<?xml version="1.0" standalone="no"?>
<!DOCTYPE svg PUBLIC "-//W3C//DTD SVG 1.1//EN" "http://www.w3.org/Graphics/SVG/1.1/DTD/svg11.dtd" >
<svg>
<metadata>
Created by FontForge 20110222 at Wed Jun  3 12:34:14 2015
 By www-data
Copyright (C) 2000, 2007 Hoefler &#38; Frere-Jones. http://www.typography.com
</metadata>
<defs>
<font id="Archer-Light" horiz-adv-x="530" >
  <font-face 
    font-family="Archer Light"
    font-weight="300"
    font-stretch="normal"
    units-per-em="1000"
    panose-1="0 0 0 0 0 0 0 0 0 0"
    ascent="800"
    descent="-200"
    x-height="416"
    cap-height="658"
    bbox="-47 -243 1372 987"
    underline-thickness="50"
    underline-position="-50"
    stemh="33"
    stemv="37"
    unicode-range="U+0020-FB04"
  />
<missing-glyph horiz-adv-x="503" 
d="M2 -200v1000h500v-1000h-500zM73 750l179 -390l179 390h-358zM52 -76l172 376l-172 376v-752zM452 676l-172 -376l172 -376v752zM252 240l-179 -390h358z" />
    <glyph glyph-name="f_b" unicode="fb" horiz-adv-x="822" 
d="M377 0v383h-224v-350h83v-33h-192v33h72v350h-77v33h77v155c0 58 16 99 44 127s66 41 109 41c42 0 77 -13 102 -39l8 -9l14 42h21v-383c38 41 87 73 159 73c114 0 202 -89 202 -216c0 -121 -88 -214 -210 -214c-59 0 -114 25 -152 59l-16 -52h-20zM566 26
c98 0 170 76 170 181c0 107 -68 183 -166 183c-67 0 -118 -32 -156 -77v-227c36 -33 87 -60 152 -60zM346 626c0 11 4 21 13 28c-5 7 -10 15 -16 21c-19 19 -48 31 -78 31s-58 -12 -78 -31c-22 -23 -34 -58 -34 -102v-157h224v159c0 6 0 12 -1 18c-17 1 -30 16 -30 33z" />
    <glyph glyph-name="f_f" unicode="ff" horiz-adv-x="557" 
d="M153 416h230v161c0 60 12 103 39 130c21 21 46 32 78 32c36 0 60 -15 60 -42c0 -17 -13 -30 -30 -30c-22 0 -35 16 -38 38c-16 -1 -32 -7 -45 -21c-17 -20 -27 -51 -27 -98v-170h110v-33h-110v-350h83v-33h-192v33h72v350h-230v-350h83v-33h-192v33h72v350h-77v33h77v141
c0 60 12 103 39 129c22 22 46 33 79 33c35 0 60 -15 60 -42c0 -18 -13 -30 -31 -30c-20 0 -34 15 -37 39c-15 -1 -31 -7 -44 -22c-18 -19 -29 -50 -29 -98v-150zM252 683c-1 0 -3 1 -4 1z" />
    <glyph glyph-name="f_h" unicode="fh" horiz-adv-x="810" 
d="M377 33v350h-224v-350h83v-33h-192v33h72v350h-77v33h77v155c0 58 16 99 44 127s66 41 109 41c42 0 77 -13 102 -39l8 -9l14 42h21v-400c39 48 98 90 163 90c51 0 84 -18 105 -47c18 -24 26 -58 26 -96v-247h72v-33h-182v33h73v242c0 35 -7 62 -21 81
c-16 21 -43 33 -79 33c-61 0 -116 -41 -157 -91v-265h72v-33h-182v33h73zM346 626c0 11 4 21 13 28c-5 7 -10 15 -16 21c-19 19 -48 31 -78 31s-58 -12 -78 -31c-22 -23 -34 -58 -34 -102v-157h224v159c0 6 0 12 -1 18c-17 1 -30 16 -30 33z" />
    <glyph glyph-name="fi" unicode="fi" horiz-adv-x="513" 
d="M404 416v-383h78v-33h-191v33h76v350h-214v-350h83v-33h-192v33h72v350h-77v33h77v146c0 67 18 116 50 144c24 22 54 32 86 32c53 0 83 -26 83 -55c0 -18 -13 -33 -31 -33c-26 0 -38 27 -31 50c-7 3 -16 5 -25 5c-22 0 -45 -11 -63 -31c-19 -22 -32 -57 -32 -103v-155
h251z" />
    <glyph glyph-name="f_j" unicode="fj" horiz-adv-x="485" 
d="M367 383h-214v-350h83v-33h-192v33h72v350h-77v33h77v146c0 67 18 116 50 144c24 22 54 32 86 32c53 0 83 -26 83 -55c0 -18 -13 -33 -31 -33c-26 0 -38 27 -31 50c-7 3 -16 5 -25 5c-22 0 -45 -11 -63 -31c-19 -22 -32 -57 -32 -103v-155h251v-417
c0 -48 -5 -85 -14 -114c-19 -61 -58 -85 -106 -85c-45 0 -74 23 -74 54c0 16 10 34 30 34c17 0 28 -13 28 -29c0 -6 -1 -15 -7 -22c6 -4 14 -6 25 -6c32 0 57 21 70 67c7 24 11 56 11 96v389z" />
    <glyph glyph-name="f_k" unicode="fk" horiz-adv-x="778" 
d="M414 733v-546l217 197h-98v32h221v-33h-75l-151 -136l150 -214h76v-33h-97l-156 227l-87 -80v-114h74v-33h-184v33h73v350h-224v-350h83v-33h-192v33h72v350h-77v33h77v155c0 58 16 99 44 127s66 41 109 41c42 0 77 -13 102 -39l8 -9l14 42h21zM153 573v-157h224v159
c0 6 0 12 -1 18c-17 1 -30 16 -30 33c0 11 4 21 13 28c-5 7 -10 15 -16 21c-19 19 -48 31 -78 31s-58 -12 -78 -31c-22 -23 -34 -58 -34 -102z" />
    <glyph glyph-name="fl" unicode="fl" horiz-adv-x="523" 
d="M299 33h78v350h-224v-350h83v-33h-192v33h72v350h-77v33h77v155c0 58 16 99 44 127s66 41 109 41c42 0 77 -13 102 -39l8 -9l14 42h21v-700h78v-33h-193v33zM265 706c-30 0 -58 -12 -78 -31c-22 -23 -34 -58 -34 -102v-157h224v159c0 6 0 12 -1 18c-17 1 -30 16 -30 33
c0 11 4 21 13 28c-5 7 -10 15 -16 21c-19 19 -48 31 -78 31z" />
    <glyph glyph-name="f_f_b" unicode="ffb" horiz-adv-x="1086" 
d="M640 0v383h-223v-350h83v-33h-192v33h72v350h-227v-350h83v-33h-192v33h72v350h-77v33h77v140c0 53 13 94 41 124c25 25 58 38 100 38c19 0 41 -3 58 -11c22 -9 39 -26 39 -50c0 -18 -11 -31 -30 -31c-27 0 -40 28 -32 53c-12 5 -25 7 -37 7c-31 0 -56 -11 -74 -32
c-20 -24 -28 -57 -28 -98v-140h227v155c0 58 16 99 44 127s66 41 109 41c41 0 77 -14 102 -40l7 -8l14 42h21v-383c39 41 88 73 160 73c113 0 201 -89 201 -216c0 -121 -87 -214 -210 -214c-59 0 -114 25 -151 59l-17 -52h-20zM829 26c99 0 170 76 170 181
c0 107 -67 183 -166 183c-66 0 -118 -32 -156 -77v-227c36 -33 88 -60 152 -60zM610 626c0 11 4 21 12 28c-4 7 -9 15 -15 21c-19 19 -48 31 -78 31s-58 -12 -78 -31c-23 -23 -34 -58 -34 -102v-157h223v159c0 6 0 12 -1 18c-17 1 -29 16 -29 33z" />
    <glyph glyph-name="f_f_h" unicode="ffh" horiz-adv-x="1073" 
d="M677 733v-400c39 48 98 90 164 90c50 0 84 -18 105 -47c17 -24 25 -58 25 -96v-247h73v-33h-182v33h72v242c0 35 -7 62 -21 81c-16 21 -43 33 -78 33c-61 0 -116 -41 -158 -91v-265h72v-33h-182v33h73v350h-223v-350h83v-33h-192v33h72v350h-227v-350h83v-33h-192v33h72
v350h-77v33h77v140c0 53 13 94 41 124c25 25 58 38 100 38c19 0 41 -3 58 -11c22 -9 39 -26 39 -50c0 -18 -11 -31 -30 -31c-27 0 -40 28 -32 53c-12 5 -25 7 -37 7c-31 0 -56 -11 -74 -32c-20 -24 -28 -57 -28 -98v-140h227v155c0 58 16 99 44 127s66 41 109 41
c41 0 77 -14 102 -40l7 -8l14 42h21zM417 573v-157h223v159c0 6 0 12 -1 18c-17 1 -29 16 -29 33c0 11 4 21 12 28c-4 7 -9 15 -15 21c-19 19 -48 31 -78 31s-58 -12 -78 -31c-23 -23 -34 -58 -34 -102z" />
    <glyph glyph-name="f_f_i" unicode="ffi" horiz-adv-x="776" 
d="M599 683c0 -18 -14 -33 -32 -33c-26 0 -38 27 -31 50c-6 3 -15 5 -24 5c-21 0 -42 -9 -60 -27c-20 -21 -35 -57 -35 -107v-155h251v-383h77v-33h-191v33h77v350h-214v-350h82v-33h-191v33h72v350h-227v-350h83v-33h-192v33h72v350h-77v33h77v140c0 53 13 94 41 124
c25 25 58 38 100 38c18 0 39 -3 56 -10c23 -9 41 -26 41 -51c0 -18 -11 -31 -30 -31c-27 0 -39 27 -32 52c-12 5 -26 8 -37 8c-31 0 -56 -11 -74 -32c-20 -24 -28 -57 -28 -98v-140h227v146c0 67 18 116 49 144c25 22 55 32 86 32c54 0 84 -26 84 -55z" />
    <glyph glyph-name="f_f_j" unicode="ffj" horiz-adv-x="748" 
d="M668 416v-417c0 -48 -5 -85 -14 -114c-20 -61 -59 -85 -107 -85c-44 0 -74 23 -74 54c0 16 11 34 30 34c18 0 29 -13 29 -29c0 -6 -2 -15 -7 -22c5 -4 14 -6 24 -6c32 0 58 21 71 67c7 24 11 56 11 96v389h-214v-350h82v-33h-191v33h72v350h-227v-350h83v-33h-192v33h72
v350h-77v33h77v140c0 53 13 94 41 124c25 25 58 38 100 38c18 0 39 -3 56 -10c23 -9 41 -26 41 -51c0 -18 -11 -31 -30 -31c-27 0 -40 27 -32 53c-12 5 -26 7 -37 7c-31 0 -56 -11 -74 -32c-20 -24 -28 -57 -28 -98v-140h227v146c0 67 18 116 49 144c25 22 55 32 86 32
c54 0 84 -26 84 -55c0 -18 -14 -33 -32 -33c-26 0 -38 27 -31 50c-6 3 -15 5 -24 5c-21 0 -42 -9 -60 -27c-20 -21 -35 -57 -35 -107v-155h251z" />
    <glyph glyph-name="f_f_k" unicode="ffk" horiz-adv-x="1041" 
d="M677 733v-546l218 197h-99v32h221v-33h-74l-152 -136l151 -214h75v-33h-97l-155 227l-88 -80v-114h75v-33h-185v33h73v350h-223v-350h83v-33h-192v33h72v350h-227v-350h83v-33h-192v33h72v350h-77v33h77v140c0 53 13 94 41 124c25 25 58 38 100 38c19 0 41 -3 58 -11
c22 -9 39 -26 39 -50c0 -18 -11 -31 -30 -31c-27 0 -40 28 -32 53c-12 5 -25 7 -37 7c-31 0 -56 -11 -74 -32c-20 -24 -28 -57 -28 -98v-140h227v155c0 58 16 99 44 127s66 41 109 41c41 0 77 -14 102 -40l7 -8l14 42h21zM417 573v-157h223v159c0 6 0 12 -1 18
c-17 1 -29 16 -29 33c0 11 4 21 12 28c-4 7 -9 15 -15 21c-19 19 -48 31 -78 31s-58 -12 -78 -31c-23 -23 -34 -58 -34 -102z" />
    <glyph glyph-name="f_f_l" unicode="ffl" horiz-adv-x="784" 
d="M153 556v-140h227v155c0 58 16 99 44 127s66 41 109 41c41 0 77 -14 102 -40l7 -8l14 42h21v-700h78v-33h-193v33h78v350h-223v-350h83v-33h-192v33h72v350h-227v-350h83v-33h-192v33h72v350h-77v33h77v140c0 53 13 94 41 124c25 25 58 38 100 38c19 0 41 -3 58 -11
c22 -9 39 -26 39 -50c0 -18 -11 -31 -30 -31c-27 0 -40 28 -32 53c-12 5 -25 7 -37 7c-31 0 -56 -11 -74 -32c-20 -24 -28 -57 -28 -98zM417 573v-157h223v159c0 6 0 12 -1 18c-17 1 -29 16 -29 33c0 11 4 21 12 28c-4 7 -9 15 -15 21c-19 19 -48 31 -78 31s-58 -12 -78 -31
c-23 -23 -34 -58 -34 -102z" />
    <glyph glyph-name=".notdef" horiz-adv-x="503" 
d="M2 -200v1000h500v-1000h-500zM73 750l179 -390l179 390h-358zM52 -76l172 376l-172 376v-752zM452 676l-172 -376l172 -376v752zM252 240l-179 -390h358z" />
    <glyph glyph-name="A" unicode="A" horiz-adv-x="702" 
d="M17 0v35h72l220 588h-83v35h250v-35h-83l220 -588h73v-35h-203v35h86l-77 209h-283l-77 -209h88v-35h-203zM222 279h257l-128 347z" />
    <glyph glyph-name="B" unicode="B" horiz-adv-x="594" 
d="M48 0v35h91v588h-91v35h262c147 0 208 -79 208 -164c0 -80 -54 -139 -133 -157c95 -18 152 -74 152 -159c0 -106 -87 -178 -220 -178h-269zM180 35h138c110 0 179 59 179 143c0 88 -69 141 -195 141h-122v-284zM180 354h123c122 0 175 61 175 138c0 75 -55 131 -170 131
h-128v-269z" />
    <glyph glyph-name="C" unicode="C" horiz-adv-x="699" 
d="M388 -11c-200 0 -330 159 -330 335c0 198 148 345 326 345c136 0 242 -86 242 -166c0 -28 -17 -47 -41 -47c-20 0 -36 16 -36 36c0 19 13 34 31 37c-13 44 -87 104 -196 104c-166 0 -284 -142 -284 -308c0 -161 118 -300 288 -300c84 0 156 32 217 89l22 -28
c-66 -63 -148 -97 -239 -97z" />
    <glyph glyph-name="D" unicode="D" horiz-adv-x="720" 
d="M48 0v35h91v588h-91v35h244c230 0 368 -132 368 -325c0 -196 -134 -333 -366 -333h-246zM180 35h118c212 0 321 123 321 299c0 173 -119 289 -328 289h-111v-588z" />
    <glyph glyph-name="E" unicode="E" horiz-adv-x="580" 
d="M48 0v35h91v588h-91v35h463v-146h-40v111h-291v-269h233v-36h-233v-283h291v111h40v-146h-463z" />
    <glyph glyph-name="F" unicode="F" horiz-adv-x="555" 
d="M48 0v35h91v588h-91v35h453v-146h-39v111h-282v-280h229v-35h-229v-273h98v-35h-230z" />
    <glyph glyph-name="G" unicode="G" horiz-adv-x="733" 
d="M379 -8c-168 0 -320 124 -320 329c0 210 158 348 335 348c145 0 243 -84 243 -149c0 -26 -16 -43 -38 -43c-20 0 -35 16 -35 36c0 15 7 28 22 35c-24 41 -97 85 -193 85c-177 0 -292 -142 -292 -312c0 -176 125 -294 280 -294c80 0 155 26 226 80v161h-202v35h242v-303
h-39v70c-68 -51 -139 -78 -229 -78z" />
    <glyph glyph-name="H" unicode="H" horiz-adv-x="769" 
d="M48 0v35h91v588h-91v35h225v-35h-93v-266h408v266h-92v35h225v-35h-92v-588h92v-35h-225v35h92v285h-408v-285h93v-35h-225z" />
    <glyph glyph-name="I" unicode="I" horiz-adv-x="331" 
d="M49 0v35h96v588h-96v35h234v-35h-97v-588h97v-35h-234z" />
    <glyph glyph-name="J" unicode="J" horiz-adv-x="511" 
d="M204 -11c-94 0 -172 68 -172 160c0 36 18 60 44 60c18 0 35 -15 35 -36c0 -19 -14 -36 -39 -37c0 -53 53 -110 132 -110c39 0 73 14 97 39c32 32 48 84 48 156v402h-107v35h234v-35h-86v-403c0 -79 -19 -142 -59 -181c-31 -32 -73 -50 -127 -50z" />
    <glyph glyph-name="K" unicode="K" horiz-adv-x="660" 
d="M48 0v35h91v588h-91v35h225v-35h-93v-347l338 347h-100v35h227v-35h-78l-239 -245l238 -343h85v-35h-111l-241 351l-119 -121v-195h93v-35h-225z" />
    <glyph glyph-name="L" unicode="L" horiz-adv-x="538" 
d="M48 0v35h91v588h-91v35h227v-35h-95v-588h267v116h39v-151h-438z" />
    <glyph glyph-name="M" unicode="M" horiz-adv-x="863" 
d="M39 0v35h95l24 588h-94v35h139l228 -504l228 504h137v-35h-94l24 -588h95v-35h-221v35h87l-20 554l-229 -501h-16l-229 502l-20 -555h87v-35h-221z" />
    <glyph glyph-name="N" unicode="N" horiz-adv-x="758" 
d="M610 -3l-432 590v-552h94v-35h-224v35h91v588h-91v35h126l422 -577v542h-93v35h222v-35h-91v-626h-24z" />
    <glyph glyph-name="O" unicode="O" horiz-adv-x="775" 
d="M386 -11c-187 0 -328 150 -328 340s142 340 330 340s328 -150 328 -340s-141 -340 -330 -340zM387 25c168 0 287 134 287 304c0 169 -119 304 -287 304c-167 0 -287 -134 -287 -304c0 -169 120 -304 287 -304z" />
    <glyph glyph-name="P" unicode="P" horiz-adv-x="567" 
d="M48 0v35h91v588h-91v35h243c137 0 236 -82 236 -201c0 -125 -91 -204 -234 -204c-39 0 -90 1 -113 2v-220h95v-35h-227zM294 288c123 0 192 66 192 168c0 100 -80 167 -193 167h-113v-333c25 -1 74 -2 114 -2z" />
    <glyph glyph-name="Q" unicode="Q" horiz-adv-x="775" 
d="M670 -139c-76 0 -125 41 -192 85c-39 26 -76 38 -127 47c-73 12 -134 39 -181 80c-68 59 -112 150 -112 256c0 190 142 340 330 340s328 -150 328 -340c0 -169 -110 -307 -273 -330c30 -8 54 -21 90 -45c57 -39 88 -56 137 -56c29 0 48 7 73 22l16 -32
c-30 -19 -58 -27 -89 -27zM388 25c167 0 286 134 286 304c0 169 -119 304 -287 304c-167 0 -287 -134 -287 -304c0 -96 35 -176 96 -230c49 -44 118 -74 192 -74z" />
    <glyph glyph-name="Q.alt" horiz-adv-x="775" 
d="M589 -102l-74 116c-39 -16 -83 -25 -129 -25c-187 0 -328 150 -328 340s142 340 330 340s328 -150 328 -340c0 -130 -66 -241 -168 -299l72 -114zM387 25c39 0 75 7 108 20l-84 134l32 19l85 -137c90 51 146 150 146 268c0 169 -119 304 -287 304
c-167 0 -287 -134 -287 -304c0 -169 120 -304 287 -304z" />
    <glyph glyph-name="R" unicode="R" horiz-adv-x="604" 
d="M48 0v35h91v588h-91v35h246c138 0 225 -77 225 -184c0 -96 -64 -159 -159 -181l164 -258h80v-35h-108l-179 286c-11 -1 -25 -2 -38 -2c-36 0 -72 0 -99 1v-250h93v-35h-225zM281 319c115 0 196 53 196 154c0 92 -71 150 -186 150h-111v-302c30 -1 66 -2 101 -2z" />
    <glyph glyph-name="S" unicode="S" horiz-adv-x="529" 
d="M264 -10c-124 0 -204 72 -204 129c0 28 16 46 37 46c18 0 34 -15 34 -34c0 -16 -9 -30 -22 -38c20 -35 78 -67 157 -67c100 0 163 57 163 139c0 83 -76 119 -158 152c-99 39 -187 80 -187 186c0 96 79 165 191 165c101 0 182 -62 182 -122c0 -26 -17 -42 -36 -42
s-35 15 -35 35c0 15 8 27 19 36c-17 32 -77 57 -132 57c-88 0 -149 -54 -149 -126c0 -84 75 -117 163 -152c96 -38 182 -81 182 -186c0 -108 -87 -178 -205 -178z" />
    <glyph glyph-name="T" unicode="T" horiz-adv-x="626" 
d="M195 0v35h98v588h-207v-116h-40v151h534v-151h-40v116h-206v-588h97v-35h-236z" />
    <glyph glyph-name="U" unicode="U" horiz-adv-x="701" 
d="M349 -11c-146 0 -225 87 -225 235v399h-92v35h226v-35h-94v-395c0 -134 65 -203 186 -203s187 68 187 202v396h-94v35h226v-35h-92v-397c0 -150 -82 -237 -228 -237z" />
    <glyph glyph-name="V" unicode="V" horiz-adv-x="685" 
d="M329 -12l-243 635h-73v35h203v-35h-86l214 -572l214 572h-89v35h203v-35h-74l-243 -635h-26z" />
    <glyph glyph-name="W" unicode="W" horiz-adv-x="963" 
d="M287 -13l-191 636h-83v35h214v-35h-89l164 -563l170 508h24l170 -508l163 563h-91v35h214v-35h-83l-190 -636h-25l-171 504l-171 -504h-25z" />
    <glyph glyph-name="X" unicode="X" horiz-adv-x="711" 
d="M41 0v35h71l220 302l-207 286h-72v35h195v-35h-77l185 -262l186 262h-79v35h195v-35h-72l-207 -285l221 -303h70v-35h-195v35h78l-198 278l-199 -278h80v-35h-195z" />
    <glyph glyph-name="Y" unicode="Y" horiz-adv-x="634" 
d="M195 0v35h101v240l-204 348h-75v35h204v-35h-82l179 -314l179 314h-83v35h203v-35h-76l-203 -348v-240h101v-35h-244z" />
    <glyph glyph-name="Z" unicode="Z" horiz-adv-x="582" 
d="M42 0v18l430 606h-368v-112h-39v146h465v-18l-429 -606h399v112h39v-146h-497z" />
    <glyph glyph-name="a" unicode="a" horiz-adv-x="472" 
d="M185 -7c-88 0 -139 53 -139 119c0 75 65 125 155 125c48 0 103 -12 133 -24v76c0 26 -7 48 -21 65c-19 22 -52 37 -98 37c-48 0 -76 -16 -92 -32c6 -6 10 -16 10 -27c0 -15 -12 -30 -30 -30c-20 0 -32 15 -32 34c0 39 53 87 147 87c55 0 98 -16 123 -45
c19 -21 29 -49 29 -83v-262h72v-33h-107v63c-34 -37 -89 -70 -150 -70zM190 25c59 0 109 33 144 73v87c-38 12 -86 21 -131 21c-82 0 -120 -43 -120 -92c0 -47 34 -89 107 -89z" />
    <glyph glyph-name="b" unicode="b" horiz-adv-x="531" 
d="M273 -7c-59 0 -114 25 -151 59l-17 -52h-20v697h-73v33h110v-380c39 41 88 73 160 73c113 0 201 -89 201 -216c0 -121 -87 -214 -210 -214zM274 26c99 0 170 76 170 181c0 107 -67 183 -166 183c-66 0 -118 -32 -156 -77v-227c36 -33 88 -60 152 -60z" />
    <glyph glyph-name="c" unicode="c" horiz-adv-x="454" 
d="M261 -7c-123 0 -216 86 -216 211c0 124 94 219 205 219c88 0 159 -58 159 -116c0 -22 -15 -41 -37 -41c-14 0 -29 9 -29 30c0 14 8 25 24 32c-12 36 -63 62 -117 62c-83 0 -167 -71 -167 -187c0 -105 76 -177 182 -177c46 0 90 14 135 44l-3 -37
c-39 -27 -92 -40 -136 -40z" />
    <glyph glyph-name="d" unicode="d" horiz-adv-x="539" 
d="M246 -7c-112 0 -200 88 -200 213c0 121 85 217 208 217c56 0 111 -24 149 -60v334h-87v33h124v-697h72v-33h-108v69c-38 -44 -91 -76 -158 -76zM248 26c65 0 116 32 155 77v226c-37 33 -88 61 -150 61c-98 0 -168 -79 -168 -183c-1 -106 68 -181 163 -181z" />
    <glyph glyph-name="e" unicode="e" horiz-adv-x="471" 
d="M424 204h-341c4 -116 74 -178 179 -178c56 0 101 19 145 48l-3 -38c-40 -27 -92 -43 -146 -43c-127 0 -213 85 -213 216c0 118 82 214 197 214c119 0 185 -93 185 -195c0 -10 -1 -18 -3 -24zM239 390c-80 0 -146 -62 -155 -154h305c-4 86 -54 154 -150 154z" />
    <glyph glyph-name="f" unicode="f" horiz-adv-x="290" 
d="M263 667c-20 0 -33 16 -36 38c-18 -1 -34 -9 -47 -22c-17 -20 -27 -51 -27 -97v-170h111v-33h-111v-350h83v-33h-192v33h72v350h-77v33h77v161c0 60 12 103 39 130c22 21 46 32 79 32c35 0 60 -15 60 -42c0 -17 -13 -30 -31 -30z" />
    <glyph glyph-name="g" unicode="g" horiz-adv-x="545" 
d="M441 383v-409c0 -50 -13 -88 -37 -116c-34 -40 -89 -58 -155 -58s-113 21 -136 46c-12 12 -18 27 -18 40c0 23 16 38 36 38c17 0 29 -14 29 -31c0 -11 -6 -22 -15 -29c13 -15 51 -31 108 -31c52 0 95 14 123 47c18 22 28 51 28 91v101c-37 -40 -87 -73 -156 -73
c-113 0 -200 90 -200 210c0 115 84 214 208 214c60 0 112 -27 149 -62v55h108v-33h-72zM255 390c-100 0 -169 -80 -169 -180c0 -101 67 -179 164 -179c66 0 116 34 154 78v219c-36 34 -85 62 -149 62z" />
    <glyph glyph-name="h" unicode="h" horiz-adv-x="535" 
d="M102 697h-72v33h109v-397c39 48 99 90 164 90c51 0 84 -18 105 -47c18 -24 25 -58 25 -96v-247h73v-33h-182v33h72v242c0 35 -6 62 -20 81c-16 21 -43 33 -79 33c-61 0 -116 -41 -158 -91v-265h73v-33h-182v33h72v664z" />
    <glyph glyph-name="i" unicode="i" horiz-adv-x="265" 
d="M130 556c-20 0 -36 17 -36 37c0 21 16 38 36 38s36 -17 36 -38c0 -20 -16 -37 -36 -37zM42 0v33h78v350h-78v33h115v-383h78v-33h-193z" />
    <glyph glyph-name="j" unicode="j" horiz-adv-x="227" 
d="M-47 -146c0 16 10 34 30 34c17 0 28 -13 28 -29c0 -6 -1 -15 -7 -22c6 -4 14 -6 24 -6c32 0 58 21 72 67c8 26 10 56 10 96v389h-86v33h123v-417c0 -48 -5 -84 -14 -114c-18 -61 -58 -85 -106 -85c-45 0 -74 23 -74 54zM120 556c-20 0 -36 17 -36 37c0 21 16 38 36 38
s35 -17 35 -38c0 -20 -15 -37 -35 -37z" />
    <glyph glyph-name="k" unicode="k" horiz-adv-x="500" 
d="M30 0v33h72v664h-72v33h109v-543l218 197h-99v32h221v-33h-74l-151 -136l150 -214h75v-33h-97l-155 227l-88 -80v-114h75v-33h-184z" />
    <glyph glyph-name="l" unicode="l" horiz-adv-x="254" 
d="M31 0v33h77v664h-77v33h114v-697h79v-33h-193z" />
    <glyph glyph-name="m" unicode="m" horiz-adv-x="816" 
d="M41 0v33h73v350h-73v33h108v-84c38 47 98 91 161 91c52 0 86 -20 104 -53c6 -12 10 -25 13 -38c46 52 105 91 164 91c58 0 91 -23 108 -61c11 -23 15 -51 15 -82v-247h73v-33h-182v33h72v242c0 28 -4 51 -11 67c-13 31 -39 47 -80 47c-57 0 -110 -39 -154 -89v-267h73
v-33h-182v33h72v242c0 27 -3 50 -10 67c-13 31 -39 47 -80 47c-59 0 -112 -41 -154 -90v-266h72v-33h-182z" />
    <glyph glyph-name="n" unicode="n" horiz-adv-x="544" 
d="M149 416v-84c39 47 100 91 165 91c55 0 90 -22 109 -55c13 -23 19 -54 19 -88v-247h73v-33h-182v33h72v242c0 28 -3 51 -12 69c-14 29 -42 45 -84 45c-61 0 -117 -41 -158 -91v-265h72v-33h-182v33h73v350h-73v33h108z" />
    <glyph glyph-name="o" unicode="o" horiz-adv-x="513" 
d="M256 -7c-123 0 -210 94 -210 215c0 120 88 215 210 215c124 0 210 -94 210 -215c0 -120 -87 -215 -210 -215zM256 26c101 0 171 77 171 182c0 104 -70 182 -171 182c-100 0 -171 -78 -171 -182c0 -105 71 -182 171 -182z" />
    <glyph glyph-name="p" unicode="p" horiz-adv-x="541" 
d="M31 -196v33h73v546h-73v33h109v-69c38 44 89 76 155 76c112 0 198 -88 198 -214c0 -120 -83 -216 -205 -216c-56 0 -109 24 -147 58v-214h80v-33h-190zM289 26c98 0 165 79 166 183c0 106 -66 181 -162 181c-64 0 -113 -32 -152 -77v-227c37 -34 85 -60 148 -60z" />
    <glyph glyph-name="q" unicode="q" horiz-adv-x="525" 
d="M327 -196v33h81v229c-39 -41 -88 -73 -160 -73c-113 0 -202 89 -202 215c0 121 87 215 210 215c59 0 114 -25 152 -59l16 52h21v-579h72v-33h-190zM251 26c67 0 118 32 157 77v226c-37 33 -88 61 -153 61c-98 0 -170 -76 -170 -182s67 -182 166 -182z" />
    <glyph glyph-name="r" unicode="r" horiz-adv-x="340" 
d="M274 423c32 0 49 -19 49 -40c0 -18 -13 -33 -33 -33c-18 0 -34 15 -35 33c-38 -6 -77 -48 -104 -97v-253h82v-33h-192v33h73v350h-73v33h108v-93c31 55 82 100 125 100z" />
    <glyph glyph-name="s" unicode="s" horiz-adv-x="412" 
d="M351 340c0 -19 -13 -33 -30 -33c-18 0 -31 14 -31 31c0 7 2 17 10 26c-20 19 -59 27 -95 27c-68 0 -110 -36 -110 -79c0 -48 52 -62 122 -80c75 -19 148 -42 148 -123c0 -70 -67 -116 -157 -116c-61 0 -116 21 -144 50c-12 12 -19 26 -19 43c0 19 13 34 30 34
c19 0 31 -13 31 -30c0 -11 -4 -20 -12 -26c13 -19 58 -39 113 -39c76 0 122 34 122 83c0 55 -55 72 -120 88c-83 20 -150 41 -150 115c0 63 61 112 147 112c59 0 103 -18 126 -42c13 -13 19 -26 19 -41z" />
    <glyph glyph-name="t" unicode="t" horiz-adv-x="299" 
d="M181 -7c-39 0 -65 16 -79 46c-7 15 -10 32 -10 52v292h-76v33h76v111l37 13v-124h134v-33h-134v-288c0 -16 2 -28 7 -39c9 -19 26 -28 53 -28c26 0 51 10 76 25l-6 -37c-20 -12 -44 -23 -78 -23z" />
    <glyph glyph-name="u" unicode="u" horiz-adv-x="535" 
d="M230 -7c-56 0 -91 22 -110 56c-13 24 -18 53 -18 87v247h-73v33h110v-276c0 -28 4 -52 13 -70c15 -28 42 -43 83 -43c61 0 115 44 158 94v262h-72v33h109v-383h73v-33h-109v88c-38 -49 -99 -95 -164 -95z" />
    <glyph glyph-name="v" unicode="v" horiz-adv-x="495" 
d="M240 -17l-177 400h-60v33h178v-33h-76l144 -339l143 339h-77v33h177v-33h-60l-177 -400h-15z" />
    <glyph glyph-name="w" unicode="w" horiz-adv-x="663" 
d="M184 -17l-118 400h-63v33h176v-32h-75l92 -328l129 310h15l129 -310l92 328h-77v32h177v-33h-65l-116 -400h-16l-132 319l-133 -319h-15z" />
    <glyph glyph-name="x" unicode="x" horiz-adv-x="476" 
d="M20 0v33h58l140 179l-131 171h-61v33h163v-31h-61l110 -151l112 151h-63v31h162v-33h-61l-129 -169l139 -181h58v-33h-168v31h69l-119 162l-121 -162h70v-31h-167z" />
    <glyph glyph-name="y" unicode="y" horiz-adv-x="484" 
d="M187 -128c-31 -49 -63 -72 -104 -72c-32 0 -56 17 -56 42c0 18 13 31 31 31c22 0 36 -21 34 -40c23 3 45 17 70 57c12 19 25 45 39 76l24 53l-161 364h-62v33h178v-33h-74l137 -325l140 325h-76v33h175v-33h-62l-195 -439c-13 -29 -25 -51 -38 -72z" />
    <glyph glyph-name="z" unicode="z" horiz-adv-x="412" 
d="M34 0v13l283 371h-230v-85h-35v117h322v-14l-283 -370h252v85h35v-117h-344z" />
    <glyph glyph-name="a.sc" horiz-adv-x="577" 
d="M166 499h245v-33h-86l167 -433h74v-33h-204v33h91l-56 145h-220l-55 -145h92v-33h-204v33h75l166 433h-85v33zM287 469l-98 -258h196z" />
    <glyph glyph-name="b.sc" horiz-adv-x="514" 
d="M170 33h117c85 0 134 41 134 103c0 69 -54 103 -144 103h-107v-206zM170 271h108c88 0 129 42 129 100c0 55 -42 95 -128 95h-109v-195zM285 0h-247v33h95v433h-95v33h242c118 0 165 -59 165 -125c0 -61 -40 -105 -105 -118c72 -13 119 -53 119 -121
c0 -81 -63 -135 -174 -135z" />
    <glyph glyph-name="c.sc" horiz-adv-x="547" 
d="M469 96l21 -26c-48 -49 -116 -78 -188 -78c-149 0 -253 112 -253 258c0 142 106 258 254 258c104 0 184 -65 184 -123c0 -27 -14 -44 -35 -44c-18 0 -31 12 -31 31c0 15 9 26 22 31c-11 32 -65 71 -140 71c-124 0 -215 -98 -215 -224c0 -129 90 -224 214 -224
c67 0 122 26 167 70z" />
    <glyph glyph-name="d.sc" horiz-adv-x="592" 
d="M170 33h90c159 0 245 91 245 222s-99 211 -249 211h-86v-433zM256 0h-218v33h95v433h-95v33h218c175 0 287 -95 287 -244c0 -151 -105 -255 -287 -255z" />
    <glyph glyph-name="e.sc" horiz-adv-x="494" 
d="M434 0h-396v33h95v433h-95v33h396v-131h-35v98h-229v-196h182v-34h-182v-203h229v97h35v-130z" />
    <glyph glyph-name="f.sc" horiz-adv-x="473" 
d="M270 0h-232v33h95v433h-95v33h394v-131h-35v98h-227v-202h176v-33h-176v-198h100v-33z" />
    <glyph glyph-name="g.sc" horiz-adv-x="580" 
d="M306 474c-129 0 -218 -101 -218 -227c0 -130 94 -220 211 -220c68 0 123 22 169 59v119h-149v32h186v-237h-36v52c-45 -37 -100 -59 -173 -59c-131 0 -247 99 -247 254c0 152 117 261 258 261c116 0 191 -65 191 -116c0 -26 -15 -43 -35 -43c-18 0 -31 12 -31 30
c0 15 9 25 21 30c-16 30 -71 65 -147 65z" />
    <glyph glyph-name="h.sc" horiz-adv-x="655" 
d="M38 0v33h94v433h-94v33h228v-33h-96v-197h314v197h-96v33h228v-33h-94v-433h94v-33h-228v33h96v202h-314v-202h96v-33h-228z" />
    <glyph glyph-name="i.sc" horiz-adv-x="308" 
d="M270 0h-232v33h97v433h-97v33h232v-33h-97v-433h97v-33z" />
    <glyph glyph-name="j.sc" horiz-adv-x="433" 
d="M173 27c31 0 58 10 78 31c23 25 36 65 36 121v287h-98v33h222v-33h-87v-288c0 -63 -14 -113 -46 -145c-27 -27 -62 -41 -106 -41c-78 0 -142 54 -142 124c0 29 15 48 37 48c16 0 30 -12 30 -31c0 -17 -10 -29 -27 -33c3 -33 41 -73 103 -73z" />
    <glyph glyph-name="k.sc" horiz-adv-x="561" 
d="M471 466l-185 -187l174 -246h91v-33h-113l-178 253l-89 -89v-131h95v-33h-228v33h96v433h-96v33h224v-33h-91v-257l256 257h-91v33h206v-33h-71z" />
    <glyph glyph-name="l.sc" horiz-adv-x="462" 
d="M390 33v101h36v-134h-388v33h95v433h-95v33h231v-33h-99v-433h220z" />
    <glyph glyph-name="m.sc" horiz-adv-x="721" 
d="M541 499h130v-33h-91l20 -433h88v-33h-220v33h94l-15 403l-179 -366h-15l-180 366l-15 -403h95v-33h-220v33h90l18 433h-91v33h130l181 -370z" />
    <glyph glyph-name="n.sc" horiz-adv-x="644" 
d="M166 499l321 -424v391h-97v33h227v-33h-95v-469h-22l-332 440v-404h97v-33h-227v33h95v433h-95v33h128z" />
    <glyph glyph-name="o.sc" horiz-adv-x="605" 
d="M302 508c150 0 253 -114 253 -258c0 -145 -103 -258 -253 -258s-253 113 -253 258c0 144 103 258 253 258zM302 26c126 0 215 95 215 224c0 128 -89 224 -215 224c-125 0 -214 -95 -214 -224s89 -224 214 -224z" />
    <glyph glyph-name="p.sc" horiz-adv-x="476" 
d="M38 499h218c106 0 182 -60 182 -153c0 -97 -68 -157 -183 -157c-32 0 -62 0 -85 1v-157h97v-33h-229v33h95v433h-95v33zM258 221c91 0 142 50 142 125c0 73 -60 120 -144 120h-86v-243c24 -1 53 -2 88 -2z" />
    <glyph glyph-name="q.sc" horiz-adv-x="605" 
d="M510 -104c-66 0 -113 46 -159 72c-25 14 -50 20 -82 26c-55 9 -102 30 -138 62c-51 44 -82 115 -82 194c0 144 103 258 253 258s253 -114 253 -258c0 -129 -84 -231 -207 -248c18 -5 31 -11 51 -23c41 -25 70 -47 110 -47c22 0 39 5 61 19l17 -32
c-24 -17 -50 -23 -77 -23zM302 26c125 0 215 98 215 224c0 128 -89 224 -215 224c-125 0 -214 -95 -214 -224c0 -69 26 -129 70 -169c36 -34 86 -55 144 -55z" />
    <glyph glyph-name="q.sc_alt" horiz-adv-x="605" 
d="M555 250c0 -100 -49 -184 -128 -227l55 -88l-29 -18l-57 91c-29 -10 -60 -16 -94 -16c-150 0 -253 113 -253 258c0 144 103 258 253 258s253 -114 253 -258zM517 250c0 128 -89 224 -215 224c-125 0 -214 -95 -214 -224s89 -224 214 -224c27 0 52 4 75 12l-62 99l29 20
l65 -105c66 37 108 110 108 198z" />
    <glyph glyph-name="r.sc" horiz-adv-x="521" 
d="M257 466h-87v-221c25 -1 55 -2 82 -2c88 0 150 41 150 115c0 67 -57 108 -145 108zM170 211v-178h97v-33h-229v33h95v433h-95v33h221c111 0 179 -55 179 -141c0 -71 -48 -121 -118 -138l116 -187h80v-33h-106l-128 211c-13 -1 -26 -1 -35 -1c-23 0 -55 0 -77 1z" />
    <glyph glyph-name="s.sc" horiz-adv-x="443" 
d="M319 406c0 12 6 24 14 30c-10 21 -56 40 -104 40c-74 0 -124 -40 -124 -93c0 -62 66 -86 130 -111c79 -29 158 -60 158 -144s-75 -136 -174 -136c-103 0 -169 52 -169 96c0 25 13 40 32 40s31 -12 31 -29c0 -13 -6 -24 -15 -31c15 -20 57 -43 122 -43
c83 0 135 40 135 101s-66 87 -128 110c-81 30 -160 59 -160 143c0 75 65 129 163 129c85 0 152 -43 152 -94c0 -23 -14 -38 -31 -38c-20 0 -32 13 -32 30z" />
    <glyph glyph-name="t.sc" horiz-adv-x="510" 
d="M139 0v33h97v433h-158v-98h-36v131h427v-131h-37v98h-158v-433h97v-33h-232z" />
    <glyph glyph-name="u.sc" horiz-adv-x="604" 
d="M153 466v-286c0 -99 56 -154 149 -154s149 55 149 153v287h-95v33h223v-33h-90v-286c0 -122 -70 -188 -188 -188s-186 65 -186 187v287h-90v33h223v-33h-95z" />
    <glyph glyph-name="v.sc" horiz-adv-x="559" 
d="M268 -9l-188 475h-73v33h205v-33h-92l161 -414l160 414h-92v33h203v-33h-73l-188 -475h-23z" />
    <glyph glyph-name="w.sc" horiz-adv-x="782" 
d="M234 -12l-146 478h-81v33h213v-33h-92l122 -406l134 370h17l135 -370l122 406h-93v33h210v-33h-80l-146 -478h-23l-135 374l-135 -374h-22z" />
    <glyph glyph-name="x.sc" horiz-adv-x="554" 
d="M535 33v-33h-196v33h78l-143 200l-145 -200h85v-33h-199v33h73l164 221l-154 212h-72v33h200v-33h-84l133 -188l135 188h-83v33h197v-33h-74l-153 -210l163 -223h75z" />
    <glyph glyph-name="y.sc" 
d="M525 499v-33h-77l-165 -277v-156h97v-33h-230v33h96v156l-164 277h-78v33h208v-33h-88l142 -245l143 245h-90v33h206z" />
    <glyph glyph-name="z.sc" horiz-adv-x="472" 
d="M44 0v20l332 447h-284v-96h-36v128h374v-20l-332 -446h298v95h37v-128h-389z" />
    <glyph glyph-name="Aacute" unicode="&#xc1;" horiz-adv-x="702" 
d="M17 0v35h72l220 588h-83v35h250v-35h-83l220 -588h73v-35h-203v35h86l-77 209h-283l-77 -209h88v-35h-203zM222 279h257l-128 347zM317 719l-9 15l124 99c11 9 21 15 31 15c14 0 27 -12 27 -29c0 -11 -12 -23 -29 -31z" />
    <glyph glyph-name="aacute" unicode="&#xe1;" horiz-adv-x="472" 
d="M185 -7c-88 0 -139 53 -139 119c0 75 65 125 155 125c48 0 103 -12 133 -24v76c0 26 -7 48 -21 65c-19 22 -52 37 -98 37c-48 0 -76 -16 -92 -32c6 -6 10 -16 10 -27c0 -15 -12 -30 -30 -30c-20 0 -32 15 -32 34c0 39 53 87 147 87c55 0 98 -16 123 -45
c19 -21 29 -49 29 -83v-262h72v-33h-107v63c-34 -37 -89 -70 -150 -70zM190 25c59 0 109 33 144 73v87c-38 12 -86 21 -131 21c-82 0 -120 -43 -120 -92c0 -47 34 -89 107 -89zM193 503l-9 15l124 99c11 9 21 15 31 15c14 0 27 -12 27 -29c0 -11 -12 -23 -29 -31z" />
    <glyph glyph-name="aacute.sc" horiz-adv-x="577" 
d="M166 499h245v-33h-86l167 -433h74v-33h-204v33h91l-56 145h-220l-55 -145h92v-33h-204v33h75l166 433h-85v33zM287 469l-98 -258h196zM256 569l-9 15l124 99c11 9 21 15 31 15c14 0 27 -12 27 -29c0 -11 -12 -23 -29 -31z" />
    <glyph glyph-name="Abreve" unicode="&#x102;" horiz-adv-x="702" 
d="M17 0v35h72l220 588h-83v35h250v-35h-83l220 -588h73v-35h-203v35h86l-77 209h-283l-77 -209h88v-35h-203zM222 279h257l-128 347zM351 719c-65 0 -116 47 -138 107l29 14c20 -49 60 -78 109 -78c51 0 89 31 109 78l28 -14c-22 -60 -73 -107 -137 -107z" />
    <glyph glyph-name="abreve" unicode="&#x103;" horiz-adv-x="472" 
d="M185 -7c-88 0 -139 53 -139 119c0 75 65 125 155 125c48 0 103 -12 133 -24v76c0 26 -7 48 -21 65c-19 22 -52 37 -98 37c-48 0 -76 -16 -92 -32c6 -6 10 -16 10 -27c0 -15 -12 -30 -30 -30c-20 0 -32 15 -32 34c0 39 53 87 147 87c55 0 98 -16 123 -45
c19 -21 29 -49 29 -83v-262h72v-33h-107v63c-34 -37 -89 -70 -150 -70zM190 25c59 0 109 33 144 73v87c-38 12 -86 21 -131 21c-82 0 -120 -43 -120 -92c0 -47 34 -89 107 -89zM226 503c-65 0 -116 47 -138 107l29 14c20 -49 60 -78 109 -78c51 0 89 31 109 78l28 -14
c-22 -60 -73 -107 -137 -107z" />
    <glyph glyph-name="abreve.sc" horiz-adv-x="577" 
d="M166 499h245v-33h-86l167 -433h74v-33h-204v33h91l-56 145h-220l-55 -145h92v-33h-204v33h75l166 433h-85v33zM287 469l-98 -258h196zM292 569c-65 0 -116 47 -138 107l29 14c20 -49 60 -78 109 -78c51 0 89 31 109 78l28 -14c-22 -60 -73 -107 -137 -107z" />
    <glyph glyph-name="Acircumflex" unicode="&#xc2;" horiz-adv-x="702" 
d="M17 0v35h72l220 588h-83v35h250v-35h-83l220 -588h73v-35h-203v35h86l-77 209h-283l-77 -209h88v-35h-203zM222 279h257l-128 347zM232 713l-17 19l136 127l135 -127l-17 -19l-118 89z" />
    <glyph glyph-name="acircumflex" unicode="&#xe2;" horiz-adv-x="472" 
d="M185 -7c-88 0 -139 53 -139 119c0 75 65 125 155 125c48 0 103 -12 133 -24v76c0 26 -7 48 -21 65c-19 22 -52 37 -98 37c-48 0 -76 -16 -92 -32c6 -6 10 -16 10 -27c0 -15 -12 -30 -30 -30c-20 0 -32 15 -32 34c0 39 53 87 147 87c55 0 98 -16 123 -45
c19 -21 29 -49 29 -83v-262h72v-33h-107v63c-34 -37 -89 -70 -150 -70zM190 25c59 0 109 33 144 73v87c-38 12 -86 21 -131 21c-82 0 -120 -43 -120 -92c0 -47 34 -89 107 -89zM107 497l-17 19l136 127l135 -127l-17 -19l-118 89z" />
    <glyph glyph-name="acircumflex.sc" horiz-adv-x="577" 
d="M166 499h245v-33h-86l167 -433h74v-33h-204v33h91l-56 145h-220l-55 -145h92v-33h-204v33h75l166 433h-85v33zM287 469l-98 -258h196zM173 563l-17 19l136 127l135 -127l-17 -19l-118 89z" />
    <glyph glyph-name="Adieresis" unicode="&#xc4;" horiz-adv-x="702" 
d="M17 0v35h72l220 588h-83v35h250v-35h-83l220 -588h73v-35h-203v35h86l-77 209h-283l-77 -209h88v-35h-203zM222 279h257l-128 347zM419 735c-22 0 -37 18 -37 38c0 22 15 39 37 39c21 0 37 -17 37 -39c0 -20 -16 -38 -37 -38zM282 735c-21 0 -37 18 -37 38
c0 22 16 39 37 39c22 0 38 -17 38 -39c0 -20 -16 -38 -38 -38z" />
    <glyph glyph-name="adieresis" unicode="&#xe4;" horiz-adv-x="472" 
d="M185 -7c-88 0 -139 53 -139 119c0 75 65 125 155 125c48 0 103 -12 133 -24v76c0 26 -7 48 -21 65c-19 22 -52 37 -98 37c-48 0 -76 -16 -92 -32c6 -6 10 -16 10 -27c0 -15 -12 -30 -30 -30c-20 0 -32 15 -32 34c0 39 53 87 147 87c55 0 98 -16 123 -45
c19 -21 29 -49 29 -83v-262h72v-33h-107v63c-34 -37 -89 -70 -150 -70zM190 25c59 0 109 33 144 73v87c-38 12 -86 21 -131 21c-82 0 -120 -43 -120 -92c0 -47 34 -89 107 -89zM294 519c-22 0 -37 18 -37 38c0 22 15 39 37 39c21 0 37 -17 37 -39c0 -20 -16 -38 -37 -38z
M157 519c-21 0 -37 18 -37 38c0 22 16 39 37 39c22 0 38 -17 38 -39c0 -20 -16 -38 -38 -38z" />
    <glyph glyph-name="adieresis.sc" horiz-adv-x="577" 
d="M166 499h245v-33h-86l167 -433h74v-33h-204v33h91l-56 145h-220l-55 -145h92v-33h-204v33h75l166 433h-85v33zM287 469l-98 -258h196zM223 585c-21 0 -37 18 -37 38c0 22 16 39 37 39c22 0 38 -17 38 -39c0 -20 -16 -38 -38 -38zM360 585c-22 0 -37 18 -37 38
c0 22 15 39 37 39c21 0 37 -17 37 -39c0 -20 -16 -38 -37 -38z" />
    <glyph glyph-name="AE" unicode="&#xc6;" horiz-adv-x="854" 
d="M-20 0v35h79l300 588h-80v35h505v-146h-39v111h-291v-269h233v-36h-233v-283h291v111h39v-146h-458v35h87v209h-207l-106 -209h77v-35h-197zM224 279h189v344h-14z" />
    <glyph glyph-name="ae" unicode="&#xe6;" horiz-adv-x="750" 
d="M215 390c-48 0 -76 -16 -92 -31c6 -7 10 -16 10 -27c0 -16 -12 -30 -30 -30c-20 0 -32 15 -32 34c0 39 53 87 147 87c54 0 96 -17 121 -47c11 -14 18 -30 22 -48c33 58 92 95 161 95c120 0 185 -93 185 -195c0 -10 -1 -18 -2 -24h-340c3 -118 72 -178 178 -178
c56 0 100 19 145 48l-4 -38c-40 -27 -91 -43 -146 -43c-79 0 -139 31 -173 87c-54 -59 -117 -87 -180 -87c-88 0 -139 53 -139 119c0 75 65 125 155 125c48 0 103 -12 133 -24v72c0 27 -8 50 -22 67c-19 23 -52 38 -97 38zM190 25c58 0 113 25 163 78c-10 24 -17 51 -19 81
c-43 14 -87 22 -131 22c-82 0 -120 -43 -120 -92c0 -47 34 -89 107 -89zM520 390c-80 0 -145 -62 -154 -154h303c-3 86 -53 154 -149 154z" />
    <glyph glyph-name="ae.sc" horiz-adv-x="686" 
d="M230 0v33h95v148h-160l-79 -148h82v-33h-188v33h66l236 433h-81v33h425v-131h-35v98h-229v-196h181v-34h-181v-203h229v97h35v-130h-396zM319 466l-135 -251h141v251h-6z" />
    <glyph glyph-name="AEacute" unicode="&#x1fc;" horiz-adv-x="854" 
d="M436 719l-9 15l124 99c11 9 21 15 31 15c14 0 27 -12 27 -29c0 -11 -12 -23 -29 -31zM-20 0v35h79l300 588h-80v35h505v-146h-39v111h-291v-269h233v-36h-233v-283h291v111h39v-146h-458v35h87v209h-207l-106 -209h77v-35h-197zM224 279h189v344h-14z" />
    <glyph glyph-name="aeacute" unicode="&#x1fd;" horiz-adv-x="750" 
d="M215 390c-48 0 -76 -16 -92 -31c6 -7 10 -16 10 -27c0 -16 -12 -30 -30 -30c-20 0 -32 15 -32 34c0 39 53 87 147 87c54 0 96 -17 121 -47c11 -14 18 -30 22 -48c33 58 92 95 161 95c120 0 185 -93 185 -195c0 -10 -1 -18 -2 -24h-340c3 -118 72 -178 178 -178
c56 0 100 19 145 48l-4 -38c-40 -27 -91 -43 -146 -43c-79 0 -139 31 -173 87c-54 -59 -117 -87 -180 -87c-88 0 -139 53 -139 119c0 75 65 125 155 125c48 0 103 -12 133 -24v72c0 27 -8 50 -22 67c-19 23 -52 38 -97 38zM190 25c58 0 113 25 163 78c-10 24 -17 51 -19 81
c-43 14 -87 22 -131 22c-82 0 -120 -43 -120 -92c0 -47 34 -89 107 -89zM520 390c-80 0 -145 -62 -154 -154h303c-3 86 -53 154 -149 154zM336 503l-9 15l124 99c11 9 21 15 31 15c14 0 27 -12 27 -29c0 -11 -12 -23 -29 -31z" />
    <glyph glyph-name="aeacute.sc" horiz-adv-x="686" 
d="M230 0v33h95v148h-160l-79 -148h82v-33h-188v33h66l236 433h-81v33h425v-131h-35v98h-229v-196h181v-34h-181v-203h229v97h35v-130h-396zM319 466l-135 -251h141v251h-6zM345 569l-9 15l124 99c11 9 21 15 31 15c14 0 27 -12 27 -29c0 -11 -12 -23 -29 -31z" />
    <glyph glyph-name="Agrave" unicode="&#xc0;" horiz-adv-x="702" 
d="M17 0v35h72l220 588h-83v35h250v-35h-83l220 -588h73v-35h-203v35h86l-77 209h-283l-77 -209h88v-35h-203zM222 279h257l-128 347zM383 719l-144 69c-17 8 -29 20 -29 31c0 17 13 29 27 29c10 0 20 -6 31 -15l124 -99z" />
    <glyph glyph-name="agrave" unicode="&#xe0;" horiz-adv-x="472" 
d="M185 -7c-88 0 -139 53 -139 119c0 75 65 125 155 125c48 0 103 -12 133 -24v76c0 26 -7 48 -21 65c-19 22 -52 37 -98 37c-48 0 -76 -16 -92 -32c6 -6 10 -16 10 -27c0 -15 -12 -30 -30 -30c-20 0 -32 15 -32 34c0 39 53 87 147 87c55 0 98 -16 123 -45
c19 -21 29 -49 29 -83v-262h72v-33h-107v63c-34 -37 -89 -70 -150 -70zM190 25c59 0 109 33 144 73v87c-38 12 -86 21 -131 21c-82 0 -120 -43 -120 -92c0 -47 34 -89 107 -89zM259 503l-144 69c-17 8 -29 20 -29 31c0 17 13 29 27 29c10 0 20 -6 31 -15l124 -99z" />
    <glyph glyph-name="agrave.sc" horiz-adv-x="577" 
d="M166 499h245v-33h-86l167 -433h74v-33h-204v33h91l-56 145h-220l-55 -145h92v-33h-204v33h75l166 433h-85v33zM287 469l-98 -258h196zM326 569l-144 69c-17 8 -29 20 -29 31c0 17 13 29 27 29c10 0 20 -6 31 -15l124 -99z" />
    <glyph glyph-name="Amacron" unicode="&#x100;" horiz-adv-x="702" 
d="M17 0v35h72l220 588h-83v35h250v-35h-83l220 -588h73v-35h-203v35h86l-77 209h-283l-77 -209h88v-35h-203zM222 279h257l-128 347zM210 750v37h281v-37h-281z" />
    <glyph glyph-name="amacron" unicode="&#x101;" horiz-adv-x="472" 
d="M185 -7c-88 0 -139 53 -139 119c0 75 65 125 155 125c48 0 103 -12 133 -24v76c0 26 -7 48 -21 65c-19 22 -52 37 -98 37c-48 0 -76 -16 -92 -32c6 -6 10 -16 10 -27c0 -15 -12 -30 -30 -30c-20 0 -32 15 -32 34c0 39 53 87 147 87c55 0 98 -16 123 -45
c19 -21 29 -49 29 -83v-262h72v-33h-107v63c-34 -37 -89 -70 -150 -70zM190 25c59 0 109 33 144 73v87c-38 12 -86 21 -131 21c-82 0 -120 -43 -120 -92c0 -47 34 -89 107 -89zM85 534v37h281v-37h-281z" />
    <glyph glyph-name="amacron.sc" horiz-adv-x="577" 
d="M166 499h245v-33h-86l167 -433h74v-33h-204v33h91l-56 145h-220l-55 -145h92v-33h-204v33h75l166 433h-85v33zM287 469l-98 -258h196zM151 600v37h281v-37h-281z" />
    <glyph glyph-name="Aogonek" unicode="&#x104;" horiz-adv-x="702" 
d="M589 -201c-63 0 -96 35 -96 85c0 46 31 88 76 116h-86v35h86l-77 209h-283l-77 -209h88v-35h-203v35h72l220 588h-83v35h250v-35h-83l220 -588h73v-35h-66c-58 -26 -91 -68 -91 -110c0 -35 22 -59 63 -59c31 0 55 10 75 21l-2 -29c-13 -10 -41 -24 -76 -24zM222 279h257
l-128 347z" />
    <glyph glyph-name="aogonek" unicode="&#x105;" horiz-adv-x="472" 
d="M353 -201c-63 0 -96 35 -96 85c0 47 32 89 78 117v62c-34 -37 -89 -70 -150 -70c-88 0 -139 53 -139 119c0 75 65 125 155 125c48 0 103 -12 133 -24v76c0 26 -7 48 -21 65c-19 22 -52 37 -98 37c-48 0 -76 -16 -92 -32c6 -6 10 -16 10 -27c0 -15 -12 -30 -30 -30
c-20 0 -32 15 -32 34c0 39 53 87 147 87c55 0 98 -16 123 -45c19 -21 29 -49 29 -83v-262h72v-33h-58c-58 -26 -91 -68 -91 -110c0 -35 22 -59 63 -59c31 0 55 10 75 21l-2 -29c-13 -10 -41 -24 -76 -24zM190 25c59 0 109 33 144 73v87c-38 12 -86 21 -131 21
c-82 0 -120 -43 -120 -92c0 -47 34 -89 107 -89z" />
    <glyph glyph-name="aogonek.sc" horiz-adv-x="577" 
d="M471 -201c-63 0 -96 35 -96 85c0 46 31 88 76 116h-89v33h91l-56 145h-220l-55 -145h92v-33h-204v33h75l166 433h-85v33h245v-33h-86l167 -433h74v-33h-64c-58 -26 -91 -68 -91 -110c0 -35 22 -59 63 -59c31 0 55 10 75 21l-2 -29c-13 -10 -41 -24 -76 -24zM287 469
l-98 -258h196z" />
    <glyph glyph-name="Aring" unicode="&#xc5;" horiz-adv-x="702" 
d="M442 726c0 -27 -11 -52 -33 -68h67v-35h-83l220 -588h73v-35h-203v35h86l-77 209h-283l-77 -209h88v-35h-203v35h72l220 588h-83v35h66c-20 16 -32 41 -32 68c0 48 39 90 91 90c51 0 91 -42 91 -90zM222 279h257l-128 347zM351 660c34 0 58 28 58 63c0 34 -24 63 -58 63
c-35 0 -59 -29 -59 -63c0 -35 24 -63 59 -63z" />
    <glyph glyph-name="aring" unicode="&#xe5;" horiz-adv-x="472" 
d="M185 -7c-88 0 -139 53 -139 119c0 75 65 125 155 125c48 0 103 -12 133 -24v76c0 26 -7 48 -21 65c-19 22 -52 37 -98 37c-48 0 -76 -16 -92 -32c6 -6 10 -16 10 -27c0 -15 -12 -30 -30 -30c-20 0 -32 15 -32 34c0 39 53 87 147 87c55 0 98 -16 123 -45
c19 -21 29 -49 29 -83v-262h72v-33h-107v63c-34 -37 -89 -70 -150 -70zM190 25c59 0 109 33 144 73v87c-38 12 -86 21 -131 21c-82 0 -120 -43 -120 -92c0 -47 34 -89 107 -89zM226 494c-52 0 -92 41 -92 93c0 50 40 93 92 93c51 0 91 -43 91 -93c0 -52 -40 -93 -91 -93z
M226 524c34 0 58 27 58 63c0 34 -24 63 -58 63c-35 0 -59 -29 -59 -63c0 -36 24 -63 59 -63z" />
    <glyph glyph-name="aring.sc" horiz-adv-x="577" 
d="M166 499h62c-19 15 -30 37 -30 62c0 50 39 92 89 92s89 -42 89 -92c0 -25 -11 -48 -30 -62h65v-33h-86l167 -433h74v-33h-204v33h91l-56 145h-220l-55 -145h92v-33h-204v33h75l166 433h-85v33zM287 469l-98 -258h196zM287 500c34 0 58 27 58 61s-24 61 -58 61
c-33 0 -57 -27 -57 -61s24 -61 57 -61z" />
    <glyph glyph-name="Aringacute" unicode="&#x1fa;" horiz-adv-x="702" 
d="M316 858l-9 15l124 99c11 9 21 15 31 15c14 0 27 -12 27 -29c0 -11 -12 -23 -29 -31zM442 726c0 -27 -11 -52 -33 -68h67v-35h-83l220 -588h73v-35h-203v35h86l-77 209h-283l-77 -209h88v-35h-203v35h72l220 588h-83v35h66c-20 16 -32 41 -32 68c0 48 39 90 91 90
c51 0 91 -42 91 -90zM222 279h257l-128 347zM351 660c34 0 58 28 58 63c0 34 -24 63 -58 63c-35 0 -59 -29 -59 -63c0 -35 24 -63 59 -63z" />
    <glyph glyph-name="aringacute" unicode="&#x1fb;" horiz-adv-x="472" 
d="M185 -7c-88 0 -139 53 -139 119c0 75 65 125 155 125c48 0 103 -12 133 -24v76c0 26 -7 48 -21 65c-19 22 -52 37 -98 37c-48 0 -76 -16 -92 -32c6 -6 10 -16 10 -27c0 -15 -12 -30 -30 -30c-20 0 -32 15 -32 34c0 39 53 87 147 87c55 0 98 -16 123 -45
c19 -21 29 -49 29 -83v-262h72v-33h-107v63c-34 -37 -89 -70 -150 -70zM190 25c59 0 109 33 144 73v87c-38 12 -86 21 -131 21c-82 0 -120 -43 -120 -92c0 -47 34 -89 107 -89zM202 735l-9 15l124 99c11 9 21 15 31 15c14 0 27 -12 27 -29c0 -11 -12 -23 -29 -31zM236 494
c-52 0 -92 41 -92 93c0 50 40 93 92 93c51 0 91 -43 91 -93c0 -52 -40 -93 -91 -93zM236 524c34 0 58 27 58 63c0 34 -24 63 -58 63c-35 0 -59 -29 -59 -63c0 -36 24 -63 59 -63z" />
    <glyph glyph-name="aringacute.sc" horiz-adv-x="577" 
d="M166 499h62c-19 15 -30 37 -30 62c0 50 39 92 89 92s89 -42 89 -92c0 -25 -11 -48 -30 -62h65v-33h-86l167 -433h74v-33h-204v33h91l-56 145h-220l-55 -145h92v-33h-204v33h75l166 433h-85v33zM287 469l-98 -258h196zM287 500c34 0 58 27 58 61s-24 61 -58 61
c-33 0 -57 -27 -57 -61s24 -61 57 -61zM249 703l-9 15l124 99c11 9 21 15 31 15c14 0 27 -12 27 -29c0 -11 -12 -23 -29 -31z" />
    <glyph glyph-name="Atilde" unicode="&#xc3;" horiz-adv-x="702" 
d="M17 0v35h72l220 588h-83v35h250v-35h-83l220 -588h73v-35h-203v35h86l-77 209h-283l-77 -209h88v-35h-203zM222 279h257l-128 347zM421 720c-33 0 -54 15 -82 37c-24 19 -38 27 -56 27c-26 0 -41 -21 -50 -59l-31 7c6 51 38 92 80 92c33 0 55 -15 82 -37
c24 -19 39 -27 56 -27c26 0 41 21 50 58l31 -6c-6 -51 -37 -92 -80 -92z" />
    <glyph glyph-name="atilde" unicode="&#xe3;" horiz-adv-x="472" 
d="M185 -7c-88 0 -139 53 -139 119c0 75 65 125 155 125c48 0 103 -12 133 -24v76c0 26 -7 48 -21 65c-19 22 -52 37 -98 37c-48 0 -76 -16 -92 -32c6 -6 10 -16 10 -27c0 -15 -12 -30 -30 -30c-20 0 -32 15 -32 34c0 39 53 87 147 87c55 0 98 -16 123 -45
c19 -21 29 -49 29 -83v-262h72v-33h-107v63c-34 -37 -89 -70 -150 -70zM190 25c59 0 109 33 144 73v87c-38 12 -86 21 -131 21c-82 0 -120 -43 -120 -92c0 -47 34 -89 107 -89zM296 504c-33 0 -54 15 -82 37c-24 19 -38 27 -56 27c-26 0 -41 -21 -50 -59l-31 7
c6 51 38 92 80 92c33 0 55 -15 82 -37c24 -19 39 -27 56 -27c26 0 41 21 50 58l31 -6c-6 -51 -37 -92 -80 -92z" />
    <glyph glyph-name="atilde.sc" horiz-adv-x="577" 
d="M166 499h245v-33h-86l167 -433h74v-33h-204v33h91l-56 145h-220l-55 -145h92v-33h-204v33h75l166 433h-85v33zM287 469l-98 -258h196zM363 570c-33 0 -54 15 -82 37c-24 19 -38 27 -56 27c-26 0 -41 -21 -50 -59l-31 7c6 51 38 92 80 92c33 0 55 -15 82 -37
c24 -19 39 -27 56 -27c26 0 41 21 50 58l31 -6c-6 -51 -37 -92 -80 -92z" />
    <glyph glyph-name="Cacute" unicode="&#x106;" horiz-adv-x="699" 
d="M351 719l-9 15l124 99c11 9 21 15 31 15c14 0 27 -12 27 -29c0 -11 -12 -23 -29 -31zM388 -11c-200 0 -330 159 -330 335c0 198 148 345 326 345c136 0 242 -86 242 -166c0 -28 -17 -47 -41 -47c-20 0 -36 16 -36 36c0 19 13 34 31 37c-13 44 -87 104 -196 104
c-166 0 -284 -142 -284 -308c0 -161 118 -300 288 -300c84 0 156 32 217 89l22 -28c-66 -63 -148 -97 -239 -97z" />
    <glyph glyph-name="cacute" unicode="&#x107;" horiz-adv-x="454" 
d="M212 503l-9 15l124 99c11 9 21 15 31 15c14 0 27 -12 27 -29c0 -11 -12 -23 -29 -31zM261 -7c-123 0 -216 86 -216 211c0 124 94 219 205 219c88 0 159 -58 159 -116c0 -22 -15 -41 -37 -41c-14 0 -29 9 -29 30c0 14 8 25 24 32c-12 36 -63 62 -117 62
c-83 0 -167 -71 -167 -187c0 -105 76 -177 182 -177c46 0 90 14 135 44l-3 -37c-39 -27 -92 -40 -136 -40z" />
    <glyph glyph-name="cacute.sc" horiz-adv-x="547" 
d="M260 569l-9 15l124 99c11 9 21 15 31 15c14 0 27 -12 27 -29c0 -11 -12 -23 -29 -31zM469 96l21 -26c-48 -49 -116 -78 -188 -78c-149 0 -253 112 -253 258c0 142 106 258 254 258c104 0 184 -65 184 -123c0 -27 -14 -44 -35 -44c-18 0 -31 12 -31 31c0 15 9 26 22 31
c-11 32 -65 71 -140 71c-124 0 -215 -98 -215 -224c0 -129 90 -224 214 -224c67 0 122 26 167 70z" />
    <glyph glyph-name="Ccaron" unicode="&#x10c;" horiz-adv-x="699" 
d="M502 861l17 -20l-135 -126l-136 126l17 20l119 -89zM388 -11c-200 0 -330 159 -330 335c0 198 148 345 326 345c136 0 242 -86 242 -166c0 -28 -17 -47 -41 -47c-20 0 -36 16 -36 36c0 19 13 34 31 37c-13 44 -87 104 -196 104c-166 0 -284 -142 -284 -308
c0 -161 118 -300 288 -300c84 0 156 32 217 89l22 -28c-66 -63 -148 -97 -239 -97z" />
    <glyph glyph-name="ccaron" unicode="&#x10d;" horiz-adv-x="454" 
d="M365 645l17 -20l-135 -126l-136 126l17 20l119 -89zM261 -7c-123 0 -216 86 -216 211c0 124 94 219 205 219c88 0 159 -58 159 -116c0 -22 -15 -41 -37 -41c-14 0 -29 9 -29 30c0 14 8 25 24 32c-12 36 -63 62 -117 62c-83 0 -167 -71 -167 -187c0 -105 76 -177 182 -177
c46 0 90 14 135 44l-3 -37c-39 -27 -92 -40 -136 -40z" />
    <glyph glyph-name="ccaron.sc" horiz-adv-x="547" 
d="M414 711l17 -20l-135 -126l-136 126l17 20l119 -89zM469 96l21 -26c-48 -49 -116 -78 -188 -78c-149 0 -253 112 -253 258c0 142 106 258 254 258c104 0 184 -65 184 -123c0 -27 -14 -44 -35 -44c-18 0 -31 12 -31 31c0 15 9 26 22 31c-11 32 -65 71 -140 71
c-124 0 -215 -98 -215 -224c0 -129 90 -224 214 -224c67 0 122 26 167 70z" />
    <glyph glyph-name="Ccedilla" unicode="&#xc7;" horiz-adv-x="699" 
d="M381 -200c-35 0 -69 9 -98 23l10 25c24 -11 60 -19 84 -19c38 0 57 17 57 40c0 22 -18 39 -63 40c-6 0 -14 -1 -18 -2l-12 8l19 75c-184 14 -302 166 -302 334c0 198 148 345 326 345c136 0 242 -86 242 -166c0 -28 -17 -47 -41 -47c-20 0 -36 16 -36 36
c0 19 13 34 31 37c-13 44 -87 104 -196 104c-166 0 -284 -142 -284 -308c0 -161 118 -300 288 -300c84 0 156 32 217 89l22 -28c-66 -63 -148 -97 -239 -97h-2l-6 -48c60 -1 91 -30 91 -70s-30 -71 -90 -71z" />
    <glyph glyph-name="ccedilla" unicode="&#xe7;" horiz-adv-x="497" 
d="M251 -200c-35 0 -69 9 -98 23l10 25c24 -11 60 -19 84 -19c38 0 57 17 57 40c0 22 -18 39 -63 40c-6 0 -14 -1 -18 -2l-12 8l20 80c-108 12 -186 94 -186 209c0 124 94 219 205 219c88 0 159 -58 159 -116c0 -22 -15 -41 -37 -41c-14 0 -29 9 -29 30c0 14 8 25 24 32
c-12 36 -63 62 -117 62c-83 0 -167 -71 -167 -187c0 -105 76 -177 182 -177c46 0 90 14 135 44l-3 -37c-39 -27 -92 -40 -136 -40h-4l-7 -52c60 -1 91 -30 91 -70s-30 -71 -90 -71z" />
    <glyph glyph-name="ccedilla.sc" horiz-adv-x="547" 
d="M292 -200c-35 0 -69 9 -98 23l10 25c24 -11 60 -19 84 -19c38 0 57 17 57 40c0 22 -18 39 -63 40c-6 0 -14 -1 -18 -2l-12 8l20 79c-133 13 -223 120 -223 256c0 142 106 258 254 258c104 0 184 -65 184 -123c0 -27 -14 -44 -35 -44c-18 0 -31 12 -31 31c0 15 9 26 22 31
c-11 32 -65 71 -140 71c-124 0 -215 -98 -215 -224c0 -129 90 -224 214 -224c67 0 122 26 167 70l21 -26c-48 -49 -116 -78 -188 -78h-5l-6 -51c60 -1 91 -30 91 -70s-30 -71 -90 -71z" />
    <glyph glyph-name="Cdotaccent" unicode="&#x10a;" horiz-adv-x="699" 
d="M388 -11c-200 0 -330 159 -330 335c0 198 148 345 326 345c136 0 242 -86 242 -166c0 -28 -17 -47 -41 -47c-20 0 -36 16 -36 36c0 19 13 34 31 37c-13 44 -87 104 -196 104c-166 0 -284 -142 -284 -308c0 -161 118 -300 288 -300c84 0 156 32 217 89l22 -28
c-66 -63 -148 -97 -239 -97zM384 733c-23 0 -40 19 -40 40c0 23 17 41 40 41c22 0 39 -18 39 -41c0 -21 -17 -40 -39 -40z" />
    <glyph glyph-name="cdotaccent" unicode="&#x10b;" horiz-adv-x="454" 
d="M261 -7c-123 0 -216 86 -216 211c0 124 94 219 205 219c88 0 159 -58 159 -116c0 -22 -15 -41 -37 -41c-14 0 -29 9 -29 30c0 14 8 25 24 32c-12 36 -63 62 -117 62c-83 0 -167 -71 -167 -187c0 -105 76 -177 182 -177c46 0 90 14 135 44l-3 -37
c-39 -27 -92 -40 -136 -40zM247 517c-23 0 -40 19 -40 40c0 23 17 41 40 41c22 0 39 -18 39 -41c0 -21 -17 -40 -39 -40z" />
    <glyph glyph-name="cdotaccent.sc" horiz-adv-x="547" 
d="M469 96l21 -26c-48 -49 -116 -78 -188 -78c-149 0 -253 112 -253 258c0 142 106 258 254 258c104 0 184 -65 184 -123c0 -27 -14 -44 -35 -44c-18 0 -31 12 -31 31c0 15 9 26 22 31c-11 32 -65 71 -140 71c-124 0 -215 -98 -215 -224c0 -129 90 -224 214 -224
c67 0 122 26 167 70zM296 583c-23 0 -40 19 -40 40c0 23 17 41 40 41c22 0 39 -18 39 -41c0 -21 -17 -40 -39 -40z" />
    <glyph glyph-name="Dcaron" unicode="&#x10e;" horiz-adv-x="720" 
d="M457 861l17 -20l-135 -126l-136 126l17 20l119 -89zM48 0v35h91v588h-91v35h244c230 0 368 -132 368 -325c0 -196 -134 -333 -366 -333h-246zM180 35h118c212 0 321 123 321 299c0 173 -119 289 -328 289h-111v-588z" />
    <glyph glyph-name="dcaron" unicode="&#x10f;" horiz-adv-x="539" 
d="M496 539l-14 10c21 34 31 64 31 98c0 22 -4 35 -4 52s9 30 27 30s27 -12 27 -33c0 -54 -29 -113 -67 -157zM246 -7c-112 0 -200 88 -200 213c0 121 85 217 208 217c56 0 111 -24 149 -60v334h-87v33h124v-697h72v-33h-108v69c-38 -44 -91 -76 -158 -76zM248 26
c65 0 116 32 155 77v226c-37 33 -88 61 -150 61c-98 0 -168 -79 -168 -183c-1 -106 68 -181 163 -181z" />
    <glyph glyph-name="dcaron.sc" horiz-adv-x="594" 
d="M171 33h90c159 0 245 91 245 222s-99 211 -249 211h-86v-433zM257 0h-218v33h95v433h-95v33h218c175 0 287 -95 287 -244c0 -151 -105 -255 -287 -255zM399 711l17 -20l-135 -126l-136 126l17 20l119 -89z" />
    <glyph glyph-name="Dcroat" unicode="&#x110;" horiz-adv-x="722" 
d="M142 319h-72v36h72v268h-92v35h244c230 0 369 -132 369 -325c0 -196 -134 -333 -366 -333h-247v35h92v284zM183 35h117c213 0 321 123 321 299c0 173 -119 289 -327 289h-111v-268h159v-36h-159v-284z" />
    <glyph glyph-name="dcroat" unicode="&#x111;" horiz-adv-x="539" 
d="M239 544v33h164v120h-87v33h124v-153h72v-33h-72v-511h72v-33h-108v69c-38 -44 -91 -76 -158 -76c-112 0 -200 88 -200 213c0 121 85 217 208 217c56 0 111 -24 149 -60v181h-164zM248 26c65 0 116 32 155 77v226c-37 33 -88 61 -150 61c-98 0 -168 -79 -168 -183
c-1 -106 68 -181 163 -181z" />
    <glyph glyph-name="dcroat.sc" horiz-adv-x="595" 
d="M259 0h-218v33h95v206h-75v33h75v194h-95v33h218c175 0 287 -95 287 -244c0 -151 -105 -255 -287 -255zM173 33h90c159 0 245 91 245 222s-99 211 -249 211h-86v-194h120v-33h-120v-206z" />
    <glyph glyph-name="Eacute" unicode="&#xc9;" horiz-adv-x="581" 
d="M255 719l-9 15l124 99c11 9 21 15 31 15c14 0 27 -12 27 -29c0 -11 -12 -23 -29 -31zM48 0v35h91v588h-91v35h463v-146h-40v111h-291v-269h233v-36h-233v-283h291v111h40v-146h-463z" />
    <glyph glyph-name="eacute" unicode="&#xe9;" horiz-adv-x="471" 
d="M424 204h-341c4 -116 74 -178 179 -178c56 0 101 19 145 48l-3 -38c-40 -27 -92 -43 -146 -43c-127 0 -213 85 -213 216c0 118 82 214 197 214c119 0 185 -93 185 -195c0 -10 -1 -18 -3 -24zM239 390c-80 0 -146 -62 -155 -154h305c-4 86 -54 154 -150 154zM206 503
l-9 15l124 99c11 9 21 15 31 15c14 0 27 -12 27 -29c0 -11 -12 -23 -29 -31z" />
    <glyph glyph-name="eacute.sc" horiz-adv-x="497" 
d="M211 569l-9 15l124 99c11 9 21 15 31 15c14 0 27 -12 27 -29c0 -11 -12 -23 -29 -31zM435 0h-396v33h95v433h-95v33h396v-131h-35v98h-229v-196h182v-34h-182v-203h229v97h35v-130z" />
    <glyph glyph-name="Ebreve" unicode="&#x114;" horiz-adv-x="581" 
d="M48 0v35h91v588h-91v35h463v-146h-40v111h-291v-269h233v-36h-233v-283h291v111h40v-146h-463zM289 719c-65 0 -116 47 -138 107l29 14c20 -49 60 -78 109 -78c51 0 89 31 109 78l28 -14c-22 -60 -73 -107 -137 -107z" />
    <glyph glyph-name="ebreve" unicode="&#x115;" horiz-adv-x="471" 
d="M424 204h-341c4 -116 74 -178 179 -178c56 0 101 19 145 48l-3 -38c-40 -27 -92 -43 -146 -43c-127 0 -213 85 -213 216c0 118 82 214 197 214c119 0 185 -93 185 -195c0 -10 -1 -18 -3 -24zM239 390c-80 0 -146 -62 -155 -154h305c-4 86 -54 154 -150 154zM240 503
c-65 0 -116 47 -138 107l29 14c20 -49 60 -78 109 -78c51 0 89 31 109 78l28 -14c-22 -60 -73 -107 -137 -107z" />
    <glyph glyph-name="ebreve.sc" horiz-adv-x="497" 
d="M435 0h-396v33h95v433h-95v33h396v-131h-35v98h-229v-196h182v-34h-182v-203h229v97h35v-130zM248 569c-65 0 -116 47 -138 107l29 14c20 -49 60 -78 109 -78c51 0 89 31 109 78l28 -14c-22 -60 -73 -107 -137 -107z" />
    <glyph glyph-name="Ecaron" unicode="&#x11a;" horiz-adv-x="581" 
d="M407 861l17 -20l-135 -126l-136 126l17 20l119 -89zM48 0v35h91v588h-91v35h463v-146h-40v111h-291v-269h233v-36h-233v-283h291v111h40v-146h-463z" />
    <glyph glyph-name="ecaron" unicode="&#x11b;" horiz-adv-x="471" 
d="M424 204h-341c4 -116 74 -178 179 -178c56 0 101 19 145 48l-3 -38c-40 -27 -92 -43 -146 -43c-127 0 -213 85 -213 216c0 118 82 214 197 214c119 0 185 -93 185 -195c0 -10 -1 -18 -3 -24zM239 390c-80 0 -146 -62 -155 -154h305c-4 86 -54 154 -150 154zM358 645
l17 -20l-135 -126l-136 126l17 20l119 -89z" />
    <glyph glyph-name="ecaron.sc" horiz-adv-x="497" 
d="M366 711l17 -20l-135 -126l-136 126l17 20l119 -89zM435 0h-396v33h95v433h-95v33h396v-131h-35v98h-229v-196h182v-34h-182v-203h229v97h35v-130z" />
    <glyph glyph-name="Ecircumflex" unicode="&#xca;" horiz-adv-x="581" 
d="M170 713l-17 19l136 127l135 -127l-17 -19l-118 89zM48 0v35h91v588h-91v35h463v-146h-40v111h-291v-269h233v-36h-233v-283h291v111h40v-146h-463z" />
    <glyph glyph-name="ecircumflex" unicode="&#xea;" horiz-adv-x="471" 
d="M424 204h-341c4 -116 74 -178 179 -178c56 0 101 19 145 48l-3 -38c-40 -27 -92 -43 -146 -43c-127 0 -213 85 -213 216c0 118 82 214 197 214c119 0 185 -93 185 -195c0 -10 -1 -18 -3 -24zM239 390c-80 0 -146 -62 -155 -154h305c-4 86 -54 154 -150 154zM121 497
l-17 19l136 127l135 -127l-17 -19l-118 89z" />
    <glyph glyph-name="ecircumflex.sc" horiz-adv-x="497" 
d="M129 563l-17 19l136 127l135 -127l-17 -19l-118 89zM435 0h-396v33h95v433h-95v33h396v-131h-35v98h-229v-196h182v-34h-182v-203h229v97h35v-130z" />
    <glyph glyph-name="Edieresis" unicode="&#xcb;" horiz-adv-x="581" 
d="M357 735c-22 0 -37 18 -37 38c0 22 15 39 37 39c21 0 37 -17 37 -39c0 -20 -16 -38 -37 -38zM220 735c-21 0 -37 18 -37 38c0 22 16 39 37 39c22 0 38 -17 38 -39c0 -20 -16 -38 -38 -38zM48 0v35h91v588h-91v35h463v-146h-40v111h-291v-269h233v-36h-233v-283h291v111
h40v-146h-463z" />
    <glyph glyph-name="edieresis" unicode="&#xeb;" horiz-adv-x="471" 
d="M424 204h-341c4 -116 74 -178 179 -178c56 0 101 19 145 48l-3 -38c-40 -27 -92 -43 -146 -43c-127 0 -213 85 -213 216c0 118 82 214 197 214c119 0 185 -93 185 -195c0 -10 -1 -18 -3 -24zM239 390c-80 0 -146 -62 -155 -154h305c-4 86 -54 154 -150 154zM171 519
c-21 0 -37 18 -37 38c0 22 16 39 37 39c22 0 38 -17 38 -39c0 -20 -16 -38 -38 -38zM308 519c-22 0 -37 18 -37 38c0 22 15 39 37 39c21 0 37 -17 37 -39c0 -20 -16 -38 -37 -38z" />
    <glyph glyph-name="edieresis.sc" horiz-adv-x="497" 
d="M316 585c-22 0 -37 18 -37 38c0 22 15 39 37 39c21 0 37 -17 37 -39c0 -20 -16 -38 -37 -38zM179 585c-21 0 -37 18 -37 38c0 22 16 39 37 39c22 0 38 -17 38 -39c0 -20 -16 -38 -38 -38zM435 0h-396v33h95v433h-95v33h396v-131h-35v98h-229v-196h182v-34h-182v-203h229
v97h35v-130z" />
    <glyph glyph-name="Edotaccent" unicode="&#x116;" horiz-adv-x="581" 
d="M48 0v35h91v588h-91v35h463v-146h-40v111h-291v-269h233v-36h-233v-283h291v111h40v-146h-463zM289 733c-23 0 -40 19 -40 40c0 23 17 41 40 41c22 0 39 -18 39 -41c0 -21 -17 -40 -39 -40z" />
    <glyph glyph-name="edotaccent" unicode="&#x117;" horiz-adv-x="471" 
d="M424 204h-341c4 -116 74 -178 179 -178c56 0 101 19 145 48l-3 -38c-40 -27 -92 -43 -146 -43c-127 0 -213 85 -213 216c0 118 82 214 197 214c119 0 185 -93 185 -195c0 -10 -1 -18 -3 -24zM239 390c-80 0 -146 -62 -155 -154h305c-4 86 -54 154 -150 154zM240 517
c-23 0 -40 19 -40 40c0 23 17 41 40 41c22 0 39 -18 39 -41c0 -21 -17 -40 -39 -40z" />
    <glyph glyph-name="edotaccent.sc" horiz-adv-x="497" 
d="M248 583c-23 0 -40 19 -40 40c0 23 17 41 40 41c22 0 39 -18 39 -41c0 -21 -17 -40 -39 -40zM435 0h-396v33h95v433h-95v33h396v-131h-35v98h-229v-196h182v-34h-182v-203h229v97h35v-130z" />
    <glyph glyph-name="Egrave" unicode="&#xc8;" horiz-adv-x="581" 
d="M48 0v35h91v588h-91v35h463v-146h-40v111h-291v-269h233v-36h-233v-283h291v111h40v-146h-463zM322 719l-144 69c-17 8 -29 20 -29 31c0 17 13 29 27 29c10 0 20 -6 31 -15l124 -99z" />
    <glyph glyph-name="egrave" unicode="&#xe8;" horiz-adv-x="471" 
d="M424 204h-341c4 -116 74 -178 179 -178c56 0 101 19 145 48l-3 -38c-40 -27 -92 -43 -146 -43c-127 0 -213 85 -213 216c0 118 82 214 197 214c119 0 185 -93 185 -195c0 -10 -1 -18 -3 -24zM239 390c-80 0 -146 -62 -155 -154h305c-4 86 -54 154 -150 154zM272 503
l-144 69c-17 8 -29 20 -29 31c0 17 13 29 27 29c10 0 20 -6 31 -15l124 -99z" />
    <glyph glyph-name="egrave.sc" horiz-adv-x="497" 
d="M282 569l-144 69c-17 8 -29 20 -29 31c0 17 13 29 27 29c10 0 20 -6 31 -15l124 -99zM435 0h-396v33h95v433h-95v33h396v-131h-35v98h-229v-196h182v-34h-182v-203h229v97h35v-130z" />
    <glyph glyph-name="Emacron" unicode="&#x112;" horiz-adv-x="581" 
d="M48 0v35h91v588h-91v35h463v-146h-40v111h-291v-269h233v-36h-233v-283h291v111h40v-146h-463zM148 750v37h281v-37h-281z" />
    <glyph glyph-name="emacron" unicode="&#x113;" horiz-adv-x="471" 
d="M424 204h-341c4 -116 74 -178 179 -178c56 0 101 19 145 48l-3 -38c-40 -27 -92 -43 -146 -43c-127 0 -213 85 -213 216c0 118 82 214 197 214c119 0 185 -93 185 -195c0 -10 -1 -18 -3 -24zM239 390c-80 0 -146 -62 -155 -154h305c-4 86 -54 154 -150 154zM99 534v37
h281v-37h-281z" />
    <glyph glyph-name="emacron.sc" horiz-adv-x="497" 
d="M107 600v37h281v-37h-281zM435 0h-396v33h95v433h-95v33h396v-131h-35v98h-229v-196h182v-34h-182v-203h229v97h35v-130z" />
    <glyph glyph-name="Eogonek" unicode="&#x118;" horiz-adv-x="581" 
d="M48 0v35h91v588h-91v35h463v-146h-40v111h-291v-269h233v-36h-233v-283h291v111h40v-146h-48c-58 -26 -91 -68 -91 -110c0 -35 22 -59 63 -59c31 0 55 10 75 21l-2 -29c-13 -10 -41 -24 -76 -24c-63 0 -96 35 -96 85c0 46 31 88 76 116h-364z" />
    <glyph glyph-name="eogonek" unicode="&#x119;" horiz-adv-x="471" 
d="M424 204h-341c4 -116 74 -178 179 -178c56 0 100 19 145 48l-3 -38c-80 -44 -148 -85 -148 -147c0 -34 22 -58 63 -58c30 0 55 10 75 21l-2 -29c-13 -10 -42 -24 -77 -24c-62 0 -95 35 -95 84c0 45 25 85 67 113c-10 -2 -19 -3 -29 -3c-127 0 -213 85 -213 216
c0 118 82 214 197 214c119 0 185 -93 185 -195c0 -10 -1 -18 -3 -24zM239 390c-80 0 -146 -62 -155 -154h305c-4 86 -54 154 -150 154z" />
    <glyph glyph-name="eogonek.sc" horiz-adv-x="497" 
d="M435 0h-51c-58 -26 -91 -68 -91 -110c0 -35 22 -59 63 -59c31 0 55 10 75 21l-2 -29c-13 -10 -41 -24 -76 -24c-63 0 -96 35 -96 85c0 46 31 88 76 116h-294v33h95v433h-95v33h396v-131h-35v98h-229v-196h182v-34h-182v-203h229v97h35v-130z" />
    <glyph glyph-name="Eth" unicode="&#xd0;" horiz-adv-x="722" 
d="M142 319h-72v36h72v268h-92v35h244c230 0 369 -132 369 -325c0 -196 -134 -333 -366 -333h-247v35h92v284zM183 35h117c213 0 321 123 321 299c0 173 -119 289 -327 289h-111v-268h159v-36h-159v-284z" />
    <glyph glyph-name="eth" unicode="&#xf0;" horiz-adv-x="511" 
d="M171 468l-21 25l133 120c-53 53 -109 85 -150 91c0 -19 -12 -38 -33 -38c-17 0 -32 14 -32 34c0 21 18 39 48 39c18 0 40 -5 63 -15c38 -16 84 -44 128 -89l99 91l22 -25l-99 -90c76 -85 139 -206 139 -363c0 -85 -24 -153 -67 -196c-36 -38 -87 -59 -147 -59
c-123 0 -208 91 -208 207c0 113 86 206 209 206c80 0 147 -45 176 -109c-8 115 -58 214 -126 292zM428 208c0 90 -72 166 -173 166s-170 -76 -170 -174c0 -100 69 -174 169 -174c51 0 93 20 124 52c32 35 50 82 50 130z" />
    <glyph glyph-name="eth.sc" horiz-adv-x="595" 
d="M259 0h-218v33h95v206h-75v33h75v194h-95v33h218c175 0 287 -95 287 -244c0 -151 -105 -255 -287 -255zM173 33h90c159 0 245 91 245 222s-99 211 -249 211h-86v-194h120v-33h-120v-206z" />
    <glyph glyph-name="Gbreve" unicode="&#x11e;" horiz-adv-x="733" 
d="M379 -8c-168 0 -320 124 -320 329c0 210 158 348 335 348c145 0 243 -84 243 -149c0 -26 -16 -43 -38 -43c-20 0 -35 16 -35 36c0 15 7 28 22 35c-24 41 -97 85 -193 85c-177 0 -292 -142 -292 -312c0 -176 125 -294 280 -294c80 0 155 26 226 80v161h-202v35h242v-303
h-39v70c-68 -51 -139 -78 -229 -78zM384 719c-65 0 -116 47 -138 107l29 14c20 -49 60 -78 109 -78c51 0 89 31 109 78l28 -14c-22 -60 -73 -107 -137 -107z" />
    <glyph glyph-name="gbreve" unicode="&#x11f;" horiz-adv-x="545" 
d="M441 383v-409c0 -50 -13 -88 -37 -116c-34 -40 -89 -58 -155 -58s-113 21 -136 46c-12 12 -18 27 -18 40c0 23 16 38 36 38c17 0 29 -14 29 -31c0 -11 -6 -22 -15 -29c13 -15 51 -31 108 -31c52 0 95 14 123 47c18 22 28 51 28 91v101c-37 -40 -87 -73 -156 -73
c-113 0 -200 90 -200 210c0 115 84 214 208 214c60 0 112 -27 149 -62v55h108v-33h-72zM255 390c-100 0 -169 -80 -169 -180c0 -101 67 -179 164 -179c66 0 116 34 154 78v219c-36 34 -85 62 -149 62zM274 503c-65 0 -116 47 -138 107l29 14c20 -49 60 -78 109 -78
c51 0 89 31 109 78l28 -14c-22 -60 -73 -107 -137 -107z" />
    <glyph glyph-name="gbreve.sc" horiz-adv-x="580" 
d="M306 474c-129 0 -218 -101 -218 -227c0 -130 94 -220 211 -220c68 0 123 22 169 59v119h-149v32h186v-237h-36v52c-45 -37 -100 -59 -173 -59c-131 0 -247 99 -247 254c0 152 117 261 258 261c116 0 191 -65 191 -116c0 -26 -15 -43 -35 -43c-18 0 -31 12 -31 30
c0 15 9 25 21 30c-16 30 -71 65 -147 65zM300 569c-65 0 -116 47 -138 107l29 14c20 -49 60 -78 109 -78c51 0 89 31 109 78l28 -14c-22 -60 -73 -107 -137 -107z" />
    <glyph glyph-name="Gcommaaccent" unicode="&#x122;" horiz-adv-x="733" 
d="M329 -243l-8 14c45 36 63 71 64 99c-21 2 -36 17 -36 37s16 34 34 34c22 0 39 -18 39 -49c0 -48 -30 -101 -93 -135zM379 -8c-168 0 -320 124 -320 329c0 210 158 348 335 348c145 0 243 -84 243 -149c0 -26 -16 -43 -38 -43c-20 0 -35 16 -35 36c0 15 7 28 22 35
c-24 41 -97 85 -193 85c-177 0 -292 -142 -292 -312c0 -176 125 -294 280 -294c80 0 155 26 226 80v161h-202v35h242v-303h-39v70c-68 -51 -139 -78 -229 -78z" />
    <glyph glyph-name="gcommaaccent" unicode="&#x123;" horiz-adv-x="545" 
d="M320 710l8 -14c-45 -36 -63 -71 -64 -99c21 -2 36 -17 36 -37s-16 -34 -34 -34c-22 0 -39 18 -39 49c0 48 30 101 93 135zM441 383v-409c0 -50 -13 -88 -37 -116c-34 -40 -89 -58 -155 -58s-113 21 -136 46c-12 12 -18 27 -18 40c0 23 16 38 36 38c17 0 29 -14 29 -31
c0 -11 -6 -22 -15 -29c13 -15 51 -31 108 -31c52 0 95 14 123 47c18 22 28 51 28 91v101c-37 -40 -87 -73 -156 -73c-113 0 -200 90 -200 210c0 115 84 214 208 214c60 0 112 -27 149 -62v55h108v-33h-72zM255 390c-100 0 -169 -80 -169 -180c0 -101 67 -179 164 -179
c66 0 116 34 154 78v219c-36 34 -85 62 -149 62z" />
    <glyph glyph-name="gcommaaccent.sc" horiz-adv-x="580" 
d="M239 -243l-8 14c45 36 63 71 64 99c-21 2 -36 17 -36 37s16 34 34 34c22 0 39 -18 39 -49c0 -48 -30 -101 -93 -135zM306 474c-129 0 -218 -101 -218 -227c0 -130 94 -220 211 -220c68 0 123 22 169 59v119h-149v32h186v-237h-36v52c-45 -37 -100 -59 -173 -59
c-131 0 -247 99 -247 254c0 152 117 261 258 261c116 0 191 -65 191 -116c0 -26 -15 -43 -35 -43c-18 0 -31 12 -31 30c0 15 9 25 21 30c-16 30 -71 65 -147 65z" />
    <glyph glyph-name="Gdotaccent" unicode="&#x120;" horiz-adv-x="733" 
d="M379 -8c-168 0 -320 124 -320 329c0 210 158 348 335 348c145 0 243 -84 243 -149c0 -26 -16 -43 -38 -43c-20 0 -35 16 -35 36c0 15 7 28 22 35c-24 41 -97 85 -193 85c-177 0 -292 -142 -292 -312c0 -176 125 -294 280 -294c80 0 155 26 226 80v161h-202v35h242v-303
h-39v70c-68 -51 -139 -78 -229 -78zM384 733c-23 0 -40 19 -40 40c0 23 17 41 40 41c22 0 39 -18 39 -41c0 -21 -17 -40 -39 -40z" />
    <glyph glyph-name="gdotaccent" unicode="&#x121;" horiz-adv-x="545" 
d="M441 383v-409c0 -50 -13 -88 -37 -116c-34 -40 -89 -58 -155 -58s-113 21 -136 46c-12 12 -18 27 -18 40c0 23 16 38 36 38c17 0 29 -14 29 -31c0 -11 -6 -22 -15 -29c13 -15 51 -31 108 -31c52 0 95 14 123 47c18 22 28 51 28 91v101c-37 -40 -87 -73 -156 -73
c-113 0 -200 90 -200 210c0 115 84 214 208 214c60 0 112 -27 149 -62v55h108v-33h-72zM255 390c-100 0 -169 -80 -169 -180c0 -101 67 -179 164 -179c66 0 116 34 154 78v219c-36 34 -85 62 -149 62zM274 517c-23 0 -40 19 -40 40c0 23 17 41 40 41c22 0 39 -18 39 -41
c0 -21 -17 -40 -39 -40z" />
    <glyph glyph-name="gdotaccent.sc" horiz-adv-x="580" 
d="M306 474c-129 0 -218 -101 -218 -227c0 -130 94 -220 211 -220c68 0 123 22 169 59v119h-149v32h186v-237h-36v52c-45 -37 -100 -59 -173 -59c-131 0 -247 99 -247 254c0 152 117 261 258 261c116 0 191 -65 191 -116c0 -26 -15 -43 -35 -43c-18 0 -31 12 -31 30
c0 15 9 25 21 30c-16 30 -71 65 -147 65zM300 583c-23 0 -40 19 -40 40c0 23 17 41 40 41c22 0 39 -18 39 -41c0 -21 -17 -40 -39 -40z" />
    <glyph glyph-name="Hbar" unicode="&#x126;" horiz-adv-x="769" 
d="M68 475v35h71v113h-91v35h225v-35h-93v-113h408v113h-92v35h225v-35h-92v-113h72v-35h-72v-440h92v-35h-225v35h92v285h-408v-285h93v-35h-225v35h91v440h-71zM180 357h408v118h-408v-118z" />
    <glyph glyph-name="hbar" unicode="&#x127;" horiz-adv-x="535" 
d="M102 697h-72v33h109v-153h164v-33h-164v-211c39 48 99 90 164 90c51 0 84 -18 105 -47c18 -24 25 -58 25 -96v-247h73v-33h-182v33h72v242c0 35 -6 62 -20 81c-16 21 -43 33 -79 33c-61 0 -116 -41 -158 -91v-265h73v-33h-182v33h72v511h-72v33h72v120z" />
    <glyph glyph-name="hbar.sc" horiz-adv-x="661" 
d="M599 384v-33h-74v-318h94v-33h-228v33h96v202h-314v-202h96v-33h-228v33h94v318h-74v33h74v82h-94v33h228v-33h-96v-82h314v82h-96v33h228v-33h-94v-82h74zM173 269h314v82h-314v-82z" />
    <glyph glyph-name="Iacute" unicode="&#xcd;" horiz-adv-x="331" 
d="M49 0v35h96v588h-96v35h234v-35h-97v-588h97v-35h-234zM133 719l-9 15l124 99c11 9 21 15 31 15c14 0 27 -12 27 -29c0 -11 -12 -23 -29 -31z" />
    <glyph glyph-name="iacute" unicode="&#xed;" horiz-adv-x="268" 
d="M101 503l-9 15l124 99c11 9 21 15 31 15c14 0 27 -12 27 -29c0 -11 -12 -23 -29 -31zM42 0v33h78v350h-78v33h115v-383h78v-33h-193z" />
    <glyph glyph-name="iacute.sc" horiz-adv-x="308" 
d="M123 569l-9 15l124 99c11 9 21 15 31 15c14 0 27 -12 27 -29c0 -11 -12 -23 -29 -31zM270 0h-232v33h97v433h-97v33h232v-33h-97v-433h97v-33z" />
    <glyph glyph-name="Ibreve" unicode="&#x12c;" horiz-adv-x="331" 
d="M49 0v35h96v588h-96v35h234v-35h-97v-588h97v-35h-234zM167 719c-65 0 -116 47 -138 107l29 14c20 -49 60 -78 109 -78c51 0 89 31 109 78l28 -14c-22 -60 -73 -107 -137 -107z" />
    <glyph glyph-name="ibreve" unicode="&#x12d;" horiz-adv-x="268" 
d="M42 0v33h78v350h-78v33h115v-383h78v-33h-193zM134 503c-65 0 -116 47 -138 107l29 14c20 -49 60 -78 109 -78c51 0 89 31 109 78l28 -14c-22 -60 -73 -107 -137 -107z" />
    <glyph glyph-name="ibreve.sc" horiz-adv-x="308" 
d="M270 0h-232v33h97v433h-97v33h232v-33h-97v-433h97v-33zM158 569c-65 0 -116 47 -138 107l29 14c20 -49 60 -78 109 -78c51 0 89 31 109 78l28 -14c-22 -60 -73 -107 -137 -107z" />
    <glyph glyph-name="Icircumflex" unicode="&#xce;" horiz-adv-x="331" 
d="M49 0v35h96v588h-96v35h234v-35h-97v-588h97v-35h-234zM48 713l-17 19l136 127l135 -127l-17 -19l-118 89z" />
    <glyph glyph-name="icircumflex" unicode="&#xee;" horiz-adv-x="268" 
d="M15 497l-17 19l136 127l135 -127l-17 -19l-118 89zM42 0v33h78v350h-78v33h115v-383h78v-33h-193z" />
    <glyph glyph-name="icircumflex.sc" horiz-adv-x="308" 
d="M39 563l-17 19l136 127l135 -127l-17 -19l-118 89zM270 0h-232v33h97v433h-97v33h232v-33h-97v-433h97v-33z" />
    <glyph glyph-name="Idieresis" unicode="&#xcf;" horiz-adv-x="331" 
d="M49 0v35h96v588h-96v35h234v-35h-97v-588h97v-35h-234zM235 735c-22 0 -37 18 -37 38c0 22 15 39 37 39c21 0 37 -17 37 -39c0 -20 -16 -38 -37 -38zM98 735c-21 0 -37 18 -37 38c0 22 16 39 37 39c22 0 38 -17 38 -39c0 -20 -16 -38 -38 -38z" />
    <glyph glyph-name="idieresis" unicode="&#xef;" horiz-adv-x="268" 
d="M202 519c-22 0 -37 18 -37 38c0 22 15 39 37 39c21 0 37 -17 37 -39c0 -20 -16 -38 -37 -38zM65 519c-21 0 -37 18 -37 38c0 22 16 39 37 39c22 0 38 -17 38 -39c0 -20 -16 -38 -38 -38zM42 0v33h78v350h-78v33h115v-383h78v-33h-193z" />
    <glyph glyph-name="idieresis.sc" horiz-adv-x="308" 
d="M226 585c-22 0 -37 18 -37 38c0 22 15 39 37 39c21 0 37 -17 37 -39c0 -20 -16 -38 -37 -38zM89 585c-21 0 -37 18 -37 38c0 22 16 39 37 39c22 0 38 -17 38 -39c0 -20 -16 -38 -38 -38zM270 0h-232v33h97v433h-97v33h232v-33h-97v-433h97v-33z" />
    <glyph glyph-name="Idotaccent" unicode="&#x130;" horiz-adv-x="331" 
d="M49 0v35h96v588h-96v35h234v-35h-97v-588h97v-35h-234zM167 733c-23 0 -40 19 -40 40c0 23 17 41 40 41c22 0 39 -18 39 -41c0 -21 -17 -40 -39 -40z" />
    <glyph glyph-name="idotaccent.sc" horiz-adv-x="313" 
d="M271 0h-232v33h97v433h-97v33h232v-33h-97v-433h97v-33zM159 583c-23 0 -40 19 -40 40c0 23 17 41 40 41c22 0 39 -18 39 -41c0 -21 -17 -40 -39 -40z" />
    <glyph glyph-name="dotlessi" unicode="&#x131;" horiz-adv-x="268" 
d="M42 0v33h78v350h-78v33h115v-383h78v-33h-193z" />
    <glyph glyph-name="dotlessi.sc" horiz-adv-x="308" 
d="M270 0h-232v33h97v433h-97v33h232v-33h-97v-433h97v-33z" />
    <glyph glyph-name="Igrave" unicode="&#xcc;" horiz-adv-x="331" 
d="M49 0v35h96v588h-96v35h234v-35h-97v-588h97v-35h-234zM199 719l-144 69c-17 8 -29 20 -29 31c0 17 13 29 27 29c10 0 20 -6 31 -15l124 -99z" />
    <glyph glyph-name="igrave" unicode="&#xec;" horiz-adv-x="268" 
d="M42 0v33h78v350h-78v33h115v-383h78v-33h-193zM167 503l-144 69c-17 8 -29 20 -29 31c0 17 13 29 27 29c10 0 20 -6 31 -15l124 -99z" />
    <glyph glyph-name="igrave.sc" horiz-adv-x="308" 
d="M270 0h-232v33h97v433h-97v33h232v-33h-97v-433h97v-33zM193 569l-144 69c-17 8 -29 20 -29 31c0 17 13 29 27 29c10 0 20 -6 31 -15l124 -99z" />
    <glyph glyph-name="Imacron" unicode="&#x12a;" horiz-adv-x="331" 
d="M49 0v35h96v588h-96v35h234v-35h-97v-588h97v-35h-234zM26 750v37h281v-37h-281z" />
    <glyph glyph-name="imacron" unicode="&#x12b;" horiz-adv-x="268" 
d="M42 0v33h78v350h-78v33h115v-383h78v-33h-193zM-7 534v37h281v-37h-281z" />
    <glyph glyph-name="imacron.sc" horiz-adv-x="308" 
d="M270 0h-232v33h97v433h-97v33h232v-33h-97v-433h97v-33zM17 600v37h281v-37h-281z" />
    <glyph glyph-name="Iogonek" unicode="&#x12e;" horiz-adv-x="331" 
d="M49 0v35h96v588h-96v35h234v-35h-97v-588h97v-35h-74c-58 -26 -91 -68 -91 -110c0 -35 22 -59 63 -59c31 0 55 10 75 21l-2 -29c-13 -10 -41 -24 -76 -24c-63 0 -96 35 -96 85c0 46 31 88 76 116h-109z" />
    <glyph glyph-name="iogonek" unicode="&#x12f;" horiz-adv-x="265" 
d="M42 0v33h78v350h-78v33h115v-383h78v-33h-67c-55 -26 -88 -68 -88 -110c0 -35 22 -59 63 -59c31 0 55 10 75 21l-2 -29c-13 -10 -41 -24 -76 -24c-63 0 -96 35 -96 85c0 46 31 88 74 116h-76zM130 556c-20 0 -36 17 -36 37c0 21 16 38 36 38s36 -17 36 -38
c0 -20 -16 -37 -36 -37z" />
    <glyph glyph-name="iogonek.sc" horiz-adv-x="308" 
d="M151 -201c-63 0 -96 35 -96 85c0 46 31 88 76 116h-93v33h97v433h-97v33h232v-33h-97v-433h97v-33h-88c-58 -26 -91 -68 -91 -110c0 -35 22 -59 63 -59c31 0 55 10 75 21l-2 -29c-13 -10 -41 -24 -76 -24z" />
    <glyph glyph-name="Kcommaaccent" unicode="&#x136;" horiz-adv-x="660" 
d="M294 -243l-8 14c45 36 63 71 64 99c-21 2 -36 17 -36 37s16 34 34 34c22 0 39 -18 39 -49c0 -48 -30 -101 -93 -135zM48 0v35h91v588h-91v35h225v-35h-93v-347l338 347h-100v35h227v-35h-78l-239 -245l238 -343h85v-35h-111l-241 351l-119 -121v-195h93v-35h-225z" />
    <glyph glyph-name="kcommaaccent" unicode="&#x137;" horiz-adv-x="500" 
d="M200 -243l-8 14c45 36 63 71 64 99c-21 2 -36 17 -36 37s16 34 34 34c22 0 39 -18 39 -49c0 -48 -30 -101 -93 -135zM30 0v33h72v664h-72v33h109v-543l218 197h-99v32h221v-33h-74l-151 -136l150 -214h75v-33h-97l-155 227l-88 -80v-114h75v-33h-184z" />
    <glyph glyph-name="kcommaaccent.sc" horiz-adv-x="561" 
d="M237 -243l-8 14c45 36 63 71 64 99c-21 2 -36 17 -36 37s16 34 34 34c22 0 39 -18 39 -49c0 -48 -30 -101 -93 -135zM471 466l-185 -187l174 -246h91v-33h-113l-178 253l-89 -89v-131h95v-33h-228v33h96v433h-96v33h224v-33h-91v-257l256 257h-91v33h206v-33h-71z" />
    <glyph glyph-name="Lacute" unicode="&#x139;" horiz-adv-x="538" 
d="M149 728l-9 15l124 99c11 9 21 15 31 15c14 0 27 -12 27 -29c0 -11 -12 -23 -29 -31zM48 0v35h91v588h-91v35h227v-35h-95v-588h267v116h39v-151h-438z" />
    <glyph glyph-name="lacute" unicode="&#x13a;" horiz-adv-x="254" 
d="M103 767l-9 15l124 99c11 9 21 15 31 15c14 0 27 -12 27 -29c0 -11 -12 -23 -29 -31zM31 0v33h77v664h-77v33h114v-697h79v-33h-193z" />
    <glyph glyph-name="lacute.sc" horiz-adv-x="462" 
d="M390 33v101h36v-134h-388v33h95v433h-95v33h231v-33h-99v-433h220zM134 569l-9 15l124 99c11 9 21 15 31 15c14 0 27 -12 27 -29c0 -11 -12 -23 -29 -31z" />
    <glyph glyph-name="Lcaron" unicode="&#x13d;" horiz-adv-x="538" 
d="M331 469l-14 10c21 34 31 64 31 98c0 22 -4 35 -4 52s9 30 27 30s27 -12 27 -33c0 -54 -29 -113 -67 -157zM48 0v35h91v588h-91v35h227v-35h-95v-588h267v116h39v-151h-438z" />
    <glyph glyph-name="lcaron" unicode="&#x13e;" horiz-adv-x="254" 
d="M202 539l-14 10c21 34 31 64 31 98c0 22 -4 35 -4 52s9 30 27 30s27 -12 27 -33c0 -54 -29 -113 -67 -157zM31 0v33h77v664h-77v33h114v-697h79v-33h-193z" />
    <glyph glyph-name="lcaron.sc" horiz-adv-x="462" 
d="M390 33v101h36v-134h-388v33h95v433h-95v33h231v-33h-99v-433h220zM308 309l-14 10c21 34 31 64 31 98c0 22 -4 35 -4 52s9 30 27 30s27 -12 27 -33c0 -54 -29 -113 -67 -157z" />
    <glyph glyph-name="Lcommaaccent" unicode="&#x13b;" horiz-adv-x="538" 
d="M213 -243l-8 14c45 36 63 71 64 99c-21 2 -36 17 -36 37s16 34 34 34c22 0 39 -18 39 -49c0 -48 -30 -101 -93 -135zM48 0v35h91v588h-91v35h227v-35h-95v-588h267v116h39v-151h-438z" />
    <glyph glyph-name="lcommaaccent" unicode="&#x13c;" horiz-adv-x="254" 
d="M72 -243l-8 14c45 36 63 71 64 99c-21 2 -36 17 -36 37s16 34 34 34c22 0 39 -18 39 -49c0 -48 -30 -101 -93 -135zM31 0v33h77v664h-77v33h114v-697h79v-33h-193z" />
    <glyph glyph-name="lcommaaccent.sc" horiz-adv-x="462" 
d="M390 33v101h36v-134h-388v33h95v433h-95v33h231v-33h-99v-433h220zM175 -243l-8 14c45 36 63 71 64 99c-21 2 -36 17 -36 37s16 34 34 34c22 0 39 -18 39 -49c0 -48 -30 -101 -93 -135z" />
    <glyph glyph-name="Ldot" unicode="&#x13f;" horiz-adv-x="538" 
d="M48 0v35h91v588h-91v35h227v-35h-95v-588h267v116h39v-151h-438zM428 309c-23 0 -40 19 -40 40c0 23 17 41 40 41c22 0 39 -18 39 -41c0 -21 -17 -40 -39 -40z" />
    <glyph glyph-name="ldot" unicode="&#x140;" horiz-adv-x="279" 
d="M31 0v33h77v664h-77v33h114v-697h79v-33h-193zM265 305c-23 0 -40 19 -40 40c0 23 17 41 40 41c22 0 39 -18 39 -41c0 -21 -17 -40 -39 -40z" />
    <glyph glyph-name="ldot.sc" horiz-adv-x="462" 
d="M390 33v101h36v-134h-388v33h95v433h-95v33h231v-33h-99v-433h220zM386 232c-23 0 -40 19 -40 40c0 23 17 41 40 41c22 0 39 -18 39 -41c0 -21 -17 -40 -39 -40z" />
    <glyph glyph-name="Lslash" unicode="&#x141;" horiz-adv-x="547" 
d="M56 0v35h91v246l-89 -53l-18 30l107 64v301h-91v35h227v-35h-95v-277l164 98l18 -30l-182 -109v-270h267v116h39v-151h-438z" />
    <glyph glyph-name="lslash" unicode="&#x142;" horiz-adv-x="274" 
d="M41 0v33h77v345l-95 -57l-16 28l111 67v281h-77v33h114v-292l84 50l17 -28l-101 -60v-367h79v-33h-193z" />
    <glyph glyph-name="lslash.sc" horiz-adv-x="467" 
d="M395 33v101h36v-134h-388v33h95v177l-91 -50l-17 29l108 59v218h-95v33h231v-33h-99v-198l147 81l16 -28l-163 -90v-198h220z" />
    <glyph glyph-name="Nacute" unicode="&#x143;" horiz-adv-x="759" 
d="M347 719l-9 15l124 99c11 9 21 15 31 15c14 0 27 -12 27 -29c0 -11 -12 -23 -29 -31zM610 -3l-432 590v-552h94v-35h-224v35h91v588h-91v35h126l422 -577v542h-93v35h222v-35h-91v-626h-24z" />
    <glyph glyph-name="nacute" unicode="&#x144;" horiz-adv-x="544" 
d="M246 503l-9 15l124 99c11 9 21 15 31 15c14 0 27 -12 27 -29c0 -11 -12 -23 -29 -31zM149 416v-84c39 47 100 91 165 91c55 0 90 -22 109 -55c13 -23 19 -54 19 -88v-247h73v-33h-182v33h72v242c0 28 -3 51 -12 69c-14 29 -42 45 -84 45c-61 0 -117 -41 -158 -91v-265h72
v-33h-182v33h73v350h-73v33h108z" />
    <glyph glyph-name="nacute.sc" horiz-adv-x="646" 
d="M288 569l-9 15l124 99c11 9 21 15 31 15c14 0 27 -12 27 -29c0 -11 -12 -23 -29 -31zM166 499l321 -424v391h-97v33h227v-33h-95v-469h-22l-332 440v-404h97v-33h-227v33h95v433h-95v33h128z" />
    <glyph glyph-name="Ncaron" unicode="&#x147;" horiz-adv-x="759" 
d="M499 861l17 -20l-135 -126l-136 126l17 20l119 -89zM610 -3l-432 590v-552h94v-35h-224v35h91v588h-91v35h126l422 -577v542h-93v35h222v-35h-91v-626h-24z" />
    <glyph glyph-name="ncaron" unicode="&#x148;" horiz-adv-x="544" 
d="M397 645l17 -20l-135 -126l-136 126l17 20l119 -89zM149 416v-84c39 47 100 91 165 91c55 0 90 -22 109 -55c13 -23 19 -54 19 -88v-247h73v-33h-182v33h72v242c0 28 -3 51 -12 69c-14 29 -42 45 -84 45c-61 0 -117 -41 -158 -91v-265h72v-33h-182v33h73v350h-73v33h108z
" />
    <glyph glyph-name="ncaron.sc" horiz-adv-x="646" 
d="M442 711l17 -20l-135 -126l-136 126l17 20l119 -89zM166 499l321 -424v391h-97v33h227v-33h-95v-469h-22l-332 440v-404h97v-33h-227v33h95v433h-95v33h128z" />
    <glyph glyph-name="Ncommaaccent" unicode="&#x145;" horiz-adv-x="759" 
d="M326 -243l-8 14c45 36 63 71 64 99c-21 2 -36 17 -36 37s16 34 34 34c22 0 39 -18 39 -49c0 -48 -30 -101 -93 -135zM610 -3l-432 590v-552h94v-35h-224v35h91v588h-91v35h126l422 -577v542h-93v35h222v-35h-91v-626h-24z" />
    <glyph glyph-name="ncommaaccent" unicode="&#x146;" horiz-adv-x="544" 
d="M224 -243l-8 14c45 36 63 71 64 99c-21 2 -36 17 -36 37s16 34 34 34c22 0 39 -18 39 -49c0 -48 -30 -101 -93 -135zM149 416v-84c39 47 100 91 165 91c55 0 90 -22 109 -55c13 -23 19 -54 19 -88v-247h73v-33h-182v33h72v242c0 28 -3 51 -12 69c-14 29 -42 45 -84 45
c-61 0 -117 -41 -158 -91v-265h72v-33h-182v33h73v350h-73v33h108z" />
    <glyph glyph-name="ncommaaccent.sc" horiz-adv-x="646" 
d="M262 -243l-8 14c45 36 63 71 64 99c-21 2 -36 17 -36 37s16 34 34 34c22 0 39 -18 39 -49c0 -48 -30 -101 -93 -135zM166 499l321 -424v391h-97v33h227v-33h-95v-469h-22l-332 440v-404h97v-33h-227v33h95v433h-95v33h128z" />
    <glyph glyph-name="Ntilde" unicode="&#xd1;" horiz-adv-x="759" 
d="M610 -3l-432 590v-552h94v-35h-224v35h91v588h-91v35h126l422 -577v542h-93v35h222v-35h-91v-626h-24zM451 720c-33 0 -54 15 -82 37c-24 19 -38 27 -56 27c-26 0 -41 -21 -50 -59l-31 7c6 51 38 92 80 92c33 0 55 -15 82 -37c24 -19 39 -27 56 -27c26 0 41 21 50 58
l31 -6c-6 -51 -37 -92 -80 -92z" />
    <glyph glyph-name="ntilde" unicode="&#xf1;" horiz-adv-x="544" 
d="M149 416v-84c39 47 100 91 165 91c55 0 90 -22 109 -55c13 -23 19 -54 19 -88v-247h73v-33h-182v33h72v242c0 28 -3 51 -12 69c-14 29 -42 45 -84 45c-61 0 -117 -41 -158 -91v-265h72v-33h-182v33h73v350h-73v33h108zM350 504c-33 0 -54 15 -82 37c-24 19 -38 27 -56 27
c-26 0 -41 -21 -50 -59l-31 7c6 51 38 92 80 92c33 0 55 -15 82 -37c24 -19 39 -27 56 -27c26 0 41 21 50 58l31 -6c-6 -51 -37 -92 -80 -92z" />
    <glyph glyph-name="ntilde.sc" horiz-adv-x="646" 
d="M166 499l321 -424v391h-97v33h227v-33h-95v-469h-22l-332 440v-404h97v-33h-227v33h95v433h-95v33h128zM395 570c-33 0 -54 15 -82 37c-24 19 -38 27 -56 27c-26 0 -41 -21 -50 -59l-31 7c6 51 38 92 80 92c33 0 55 -15 82 -37c24 -19 39 -27 56 -27c26 0 41 21 50 58
l31 -6c-6 -51 -37 -92 -80 -92z" />
    <glyph glyph-name="Oacute" unicode="&#xd3;" horiz-adv-x="775" 
d="M354 719l-9 15l124 99c11 9 21 15 31 15c14 0 27 -12 27 -29c0 -11 -12 -23 -29 -31zM386 -11c-187 0 -328 150 -328 340s142 340 330 340s328 -150 328 -340s-141 -340 -330 -340zM387 25c168 0 287 134 287 304c0 169 -119 304 -287 304c-167 0 -287 -134 -287 -304
c0 -169 120 -304 287 -304z" />
    <glyph glyph-name="oacute" unicode="&#xf3;" horiz-adv-x="513" 
d="M222 503l-9 15l124 99c11 9 21 15 31 15c14 0 27 -12 27 -29c0 -11 -12 -23 -29 -31zM256 -7c-123 0 -210 94 -210 215c0 120 88 215 210 215c124 0 210 -94 210 -215c0 -120 -87 -215 -210 -215zM256 26c101 0 171 77 171 182c0 104 -70 182 -171 182
c-100 0 -171 -78 -171 -182c0 -105 71 -182 171 -182z" />
    <glyph glyph-name="oacute.sc" horiz-adv-x="605" 
d="M302 508c150 0 253 -114 253 -258c0 -145 -103 -258 -253 -258s-253 113 -253 258c0 144 103 258 253 258zM302 26c126 0 215 95 215 224c0 128 -89 224 -215 224c-125 0 -214 -95 -214 -224s89 -224 214 -224zM268 569l-9 15l124 99c11 9 21 15 31 15
c14 0 27 -12 27 -29c0 -11 -12 -23 -29 -31z" />
    <glyph glyph-name="Obreve" unicode="&#x14e;" horiz-adv-x="775" 
d="M386 -11c-187 0 -328 150 -328 340s142 340 330 340s328 -150 328 -340s-141 -340 -330 -340zM387 25c168 0 287 134 287 304c0 169 -119 304 -287 304c-167 0 -287 -134 -287 -304c0 -169 120 -304 287 -304zM387 719c-65 0 -116 47 -138 107l29 14
c20 -49 60 -78 109 -78c51 0 89 31 109 78l28 -14c-22 -60 -73 -107 -137 -107z" />
    <glyph glyph-name="obreve" unicode="&#x14f;" horiz-adv-x="513" 
d="M256 -7c-123 0 -210 94 -210 215c0 120 88 215 210 215c124 0 210 -94 210 -215c0 -120 -87 -215 -210 -215zM256 26c101 0 171 77 171 182c0 104 -70 182 -171 182c-100 0 -171 -78 -171 -182c0 -105 71 -182 171 -182zM256 503c-65 0 -116 47 -138 107l29 14
c20 -49 60 -78 109 -78c51 0 89 31 109 78l28 -14c-22 -60 -73 -107 -137 -107z" />
    <glyph glyph-name="obreve.sc" horiz-adv-x="605" 
d="M302 508c150 0 253 -114 253 -258c0 -145 -103 -258 -253 -258s-253 113 -253 258c0 144 103 258 253 258zM302 26c126 0 215 95 215 224c0 128 -89 224 -215 224c-125 0 -214 -95 -214 -224s89 -224 214 -224zM303 569c-65 0 -116 47 -138 107l29 14
c20 -49 60 -78 109 -78c51 0 89 31 109 78l28 -14c-22 -60 -73 -107 -137 -107z" />
    <glyph glyph-name="Ocircumflex" unicode="&#xd4;" horiz-adv-x="775" 
d="M268 713l-17 19l136 127l135 -127l-17 -19l-118 89zM386 -11c-187 0 -328 150 -328 340s142 340 330 340s328 -150 328 -340s-141 -340 -330 -340zM387 25c168 0 287 134 287 304c0 169 -119 304 -287 304c-167 0 -287 -134 -287 -304c0 -169 120 -304 287 -304z" />
    <glyph glyph-name="ocircumflex" unicode="&#xf4;" horiz-adv-x="513" 
d="M137 497l-17 19l136 127l135 -127l-17 -19l-118 89zM256 -7c-123 0 -210 94 -210 215c0 120 88 215 210 215c124 0 210 -94 210 -215c0 -120 -87 -215 -210 -215zM256 26c101 0 171 77 171 182c0 104 -70 182 -171 182c-100 0 -171 -78 -171 -182
c0 -105 71 -182 171 -182z" />
    <glyph glyph-name="ocircumflex.sc" horiz-adv-x="605" 
d="M184 563l-17 19l136 127l135 -127l-17 -19l-118 89zM302 508c150 0 253 -114 253 -258c0 -145 -103 -258 -253 -258s-253 113 -253 258c0 144 103 258 253 258zM302 26c126 0 215 95 215 224c0 128 -89 224 -215 224c-125 0 -214 -95 -214 -224s89 -224 214 -224z" />
    <glyph glyph-name="Odieresis" unicode="&#xd6;" horiz-adv-x="775" 
d="M455 735c-22 0 -37 18 -37 38c0 22 15 39 37 39c21 0 37 -17 37 -39c0 -20 -16 -38 -37 -38zM318 735c-21 0 -37 18 -37 38c0 22 16 39 37 39c22 0 38 -17 38 -39c0 -20 -16 -38 -38 -38zM386 -11c-187 0 -328 150 -328 340s142 340 330 340s328 -150 328 -340
s-141 -340 -330 -340zM387 25c168 0 287 134 287 304c0 169 -119 304 -287 304c-167 0 -287 -134 -287 -304c0 -169 120 -304 287 -304z" />
    <glyph glyph-name="odieresis" unicode="&#xf6;" horiz-adv-x="513" 
d="M324 519c-22 0 -37 18 -37 38c0 22 15 39 37 39c21 0 37 -17 37 -39c0 -20 -16 -38 -37 -38zM187 519c-21 0 -37 18 -37 38c0 22 16 39 37 39c22 0 38 -17 38 -39c0 -20 -16 -38 -38 -38zM256 -7c-123 0 -210 94 -210 215c0 120 88 215 210 215c124 0 210 -94 210 -215
c0 -120 -87 -215 -210 -215zM256 26c101 0 171 77 171 182c0 104 -70 182 -171 182c-100 0 -171 -78 -171 -182c0 -105 71 -182 171 -182z" />
    <glyph glyph-name="odieresis.sc" horiz-adv-x="605" 
d="M371 585c-22 0 -37 18 -37 38c0 22 15 39 37 39c21 0 37 -17 37 -39c0 -20 -16 -38 -37 -38zM234 585c-21 0 -37 18 -37 38c0 22 16 39 37 39c22 0 38 -17 38 -39c0 -20 -16 -38 -38 -38zM302 508c150 0 253 -114 253 -258c0 -145 -103 -258 -253 -258s-253 113 -253 258
c0 144 103 258 253 258zM302 26c126 0 215 95 215 224c0 128 -89 224 -215 224c-125 0 -214 -95 -214 -224s89 -224 214 -224z" />
    <glyph glyph-name="OE" unicode="&#x152;" horiz-adv-x="918" 
d="M417 0c-220 0 -359 132 -359 325c0 196 135 333 357 333h433v-146h-39v111h-291v-269h233v-36h-233v-283h291v111h39v-146h-431zM418 35h58v588h-64c-203 0 -312 -123 -312 -299c0 -173 119 -289 318 -289z" />
    <glyph glyph-name="oe" unicode="&#x153;" horiz-adv-x="847" 
d="M640 26c56 0 101 19 146 48l-4 -38c-40 -27 -92 -43 -146 -43c-97 0 -165 50 -192 130c-28 -76 -97 -130 -188 -130c-123 0 -210 94 -210 215c0 120 88 215 210 215c92 0 161 -53 188 -131c25 75 87 131 176 131c119 0 185 -93 185 -195c0 -10 -1 -18 -3 -24h-341
c4 -116 74 -178 179 -178zM256 26c101 0 171 77 171 182c0 104 -70 182 -171 182c-100 0 -171 -78 -171 -182c0 -105 71 -182 171 -182zM617 390c-79 0 -146 -62 -155 -154h305c-4 86 -54 154 -150 154z" />
    <glyph glyph-name="oe.sc" horiz-adv-x="759" 
d="M398 33v432h-50c-146 0 -241 -83 -241 -212c0 -130 86 -220 237 -220h54zM348 499h351v-131h-36v97h-227v-195h181v-34h-181v-203h227v97h36v-130h-351c-173 0 -280 101 -280 252c0 149 110 247 280 247z" />
    <glyph glyph-name="Ograve" unicode="&#xd2;" horiz-adv-x="775" 
d="M386 -11c-187 0 -328 150 -328 340s142 340 330 340s328 -150 328 -340s-141 -340 -330 -340zM387 25c168 0 287 134 287 304c0 169 -119 304 -287 304c-167 0 -287 -134 -287 -304c0 -169 120 -304 287 -304zM419 719l-144 69c-17 8 -29 20 -29 31c0 17 13 29 27 29
c10 0 20 -6 31 -15l124 -99z" />
    <glyph glyph-name="ograve" unicode="&#xf2;" horiz-adv-x="513" 
d="M256 -7c-123 0 -210 94 -210 215c0 120 88 215 210 215c124 0 210 -94 210 -215c0 -120 -87 -215 -210 -215zM256 26c101 0 171 77 171 182c0 104 -70 182 -171 182c-100 0 -171 -78 -171 -182c0 -105 71 -182 171 -182zM290 503l-144 69c-17 8 -29 20 -29 31
c0 17 13 29 27 29c10 0 20 -6 31 -15l124 -99z" />
    <glyph glyph-name="ograve.sc" horiz-adv-x="605" 
d="M302 508c150 0 253 -114 253 -258c0 -145 -103 -258 -253 -258s-253 113 -253 258c0 144 103 258 253 258zM302 26c126 0 215 95 215 224c0 128 -89 224 -215 224c-125 0 -214 -95 -214 -224s89 -224 214 -224zM338 569l-144 69c-17 8 -29 20 -29 31c0 17 13 29 27 29
c10 0 20 -6 31 -15l124 -99z" />
    <glyph glyph-name="Ohungarumlaut" unicode="&#x150;" horiz-adv-x="775" 
d="M280 719l-9 14l122 103c11 10 21 16 31 16c14 0 26 -10 26 -27c0 -11 -11 -23 -28 -31zM449 724l-9 14l128 96c12 9 23 13 32 13c15 0 25 -12 25 -26c0 -13 -11 -24 -31 -32zM386 -11c-187 0 -328 150 -328 340s142 340 330 340s328 -150 328 -340s-141 -340 -330 -340z
M387 25c168 0 287 134 287 304c0 169 -119 304 -287 304c-167 0 -287 -134 -287 -304c0 -169 120 -304 287 -304z" />
    <glyph glyph-name="ohungarumlaut" unicode="&#x151;" horiz-adv-x="513" 
d="M149 503l-9 14l122 103c11 10 21 16 31 16c14 0 26 -10 26 -27c0 -11 -11 -23 -28 -31zM318 508l-9 14l128 96c12 9 23 13 32 13c15 0 25 -12 25 -26c0 -13 -11 -24 -31 -32zM256 -7c-123 0 -210 94 -210 215c0 120 88 215 210 215c124 0 210 -94 210 -215
c0 -120 -87 -215 -210 -215zM256 26c101 0 171 77 171 182c0 104 -70 182 -171 182c-100 0 -171 -78 -171 -182c0 -105 71 -182 171 -182z" />
    <glyph glyph-name="ohungarumlaut.sc" horiz-adv-x="605" 
d="M302 508c150 0 253 -114 253 -258c0 -145 -103 -258 -253 -258s-253 113 -253 258c0 144 103 258 253 258zM302 26c126 0 215 95 215 224c0 128 -89 224 -215 224c-125 0 -214 -95 -214 -224s89 -224 214 -224zM204 569l-9 14l122 103c11 10 21 16 31 16
c14 0 26 -10 26 -27c0 -11 -11 -23 -28 -31zM373 574l-9 14l128 96c12 9 23 13 32 13c15 0 25 -12 25 -26c0 -13 -11 -24 -31 -32z" />
    <glyph glyph-name="Omacron" unicode="&#x14c;" horiz-adv-x="775" 
d="M246 750v37h281v-37h-281zM386 -11c-187 0 -328 150 -328 340s142 340 330 340s328 -150 328 -340s-141 -340 -330 -340zM387 25c168 0 287 134 287 304c0 169 -119 304 -287 304c-167 0 -287 -134 -287 -304c0 -169 120 -304 287 -304z" />
    <glyph glyph-name="omacron" unicode="&#x14d;" horiz-adv-x="513" 
d="M115 534v37h281v-37h-281zM256 -7c-123 0 -210 94 -210 215c0 120 88 215 210 215c124 0 210 -94 210 -215c0 -120 -87 -215 -210 -215zM256 26c101 0 171 77 171 182c0 104 -70 182 -171 182c-100 0 -171 -78 -171 -182c0 -105 71 -182 171 -182z" />
    <glyph glyph-name="omacron.sc" horiz-adv-x="605" 
d="M302 508c150 0 253 -114 253 -258c0 -145 -103 -258 -253 -258s-253 113 -253 258c0 144 103 258 253 258zM302 26c126 0 215 95 215 224c0 128 -89 224 -215 224c-125 0 -214 -95 -214 -224s89 -224 214 -224zM162 600v37h281v-37h-281z" />
    <glyph glyph-name="Oslash" unicode="&#xd8;" horiz-adv-x="775" 
d="M386 -11c-81 0 -154 28 -210 76l-84 -98l-26 22l85 99c-58 61 -93 146 -93 241c0 190 142 340 330 340c78 0 147 -26 202 -70l80 93l26 -22l-81 -93c63 -61 101 -150 101 -248c0 -190 -141 -340 -330 -340zM387 25c168 0 287 134 287 304c0 88 -31 166 -84 221l-390 -457
c49 -43 113 -68 187 -68zM100 329c0 -85 28 -159 78 -214l388 456c-47 39 -109 62 -179 62c-167 0 -287 -134 -287 -304z" />
    <glyph glyph-name="oslash" unicode="&#xf8;" horiz-adv-x="513" 
d="M256 -7c-49 0 -93 16 -128 42l-50 -58l-25 21l51 59c-37 39 -58 92 -58 151c0 120 88 215 210 215c49 0 93 -16 128 -43l52 60l25 -21l-53 -61c36 -39 58 -92 58 -150c0 -120 -87 -215 -210 -215zM85 208c0 -50 16 -94 44 -126l233 272c-28 23 -65 36 -106 36
c-100 0 -171 -78 -171 -182zM256 26c101 0 171 77 171 182c0 49 -16 93 -43 125l-233 -272c28 -22 64 -35 105 -35z" />
    <glyph glyph-name="oslash.sc" horiz-adv-x="609" 
d="M304 508c61 0 114 -20 156 -52l62 73l25 -22l-63 -72c46 -46 73 -112 73 -185c0 -145 -103 -258 -253 -258c-63 0 -118 20 -160 54l-62 -72l-25 21l63 73c-44 46 -69 110 -69 182c0 144 103 258 253 258zM304 26c126 0 215 95 215 224c0 64 -22 120 -60 160l-292 -337
c36 -30 83 -47 137 -47zM90 250c0 -63 21 -117 56 -157l291 336c-36 28 -81 45 -133 45c-125 0 -214 -95 -214 -224z" />
    <glyph glyph-name="Oslashacute" unicode="&#x1fe;" horiz-adv-x="775" 
d="M386 -11c-81 0 -154 28 -210 76l-84 -98l-26 22l85 99c-58 61 -93 146 -93 241c0 190 142 340 330 340c78 0 147 -26 202 -70l80 93l26 -22l-81 -93c63 -61 101 -150 101 -248c0 -190 -141 -340 -330 -340zM387 25c168 0 287 134 287 304c0 88 -31 166 -84 221l-390 -457
c49 -43 113 -68 187 -68zM100 329c0 -85 28 -159 78 -214l388 456c-47 39 -109 62 -179 62c-167 0 -287 -134 -287 -304zM354 719l-9 15l124 99c11 9 21 15 31 15c14 0 27 -12 27 -29c0 -11 -12 -23 -29 -31z" />
    <glyph glyph-name="oslashacute" unicode="&#x1ff;" horiz-adv-x="513" 
d="M256 -7c-49 0 -93 16 -128 42l-50 -58l-25 21l51 59c-37 39 -58 92 -58 151c0 120 88 215 210 215c49 0 93 -16 128 -43l52 60l25 -21l-53 -61c36 -39 58 -92 58 -150c0 -120 -87 -215 -210 -215zM85 208c0 -50 16 -94 44 -126l233 272c-28 23 -65 36 -106 36
c-100 0 -171 -78 -171 -182zM256 26c101 0 171 77 171 182c0 49 -16 93 -43 125l-233 -272c28 -22 64 -35 105 -35zM222 503l-9 15l124 99c11 9 21 15 31 15c14 0 27 -12 27 -29c0 -11 -12 -23 -29 -31z" />
    <glyph glyph-name="oslashacute.sc" horiz-adv-x="609" 
d="M304 508c61 0 114 -20 156 -52l62 73l25 -22l-63 -72c46 -46 73 -112 73 -185c0 -145 -103 -258 -253 -258c-63 0 -118 20 -160 54l-62 -72l-25 21l63 73c-44 46 -69 110 -69 182c0 144 103 258 253 258zM304 26c126 0 215 95 215 224c0 64 -22 120 -60 160l-292 -337
c36 -30 83 -47 137 -47zM90 250c0 -63 21 -117 56 -157l291 336c-36 28 -81 45 -133 45c-125 0 -214 -95 -214 -224zM270 569l-9 15l124 99c11 9 21 15 31 15c14 0 27 -12 27 -29c0 -11 -12 -23 -29 -31z" />
    <glyph glyph-name="Otilde" unicode="&#xd5;" horiz-adv-x="775" 
d="M386 -11c-187 0 -328 150 -328 340s142 340 330 340s328 -150 328 -340s-141 -340 -330 -340zM387 25c168 0 287 134 287 304c0 169 -119 304 -287 304c-167 0 -287 -134 -287 -304c0 -169 120 -304 287 -304zM457 720c-33 0 -54 15 -82 37c-24 19 -38 27 -56 27
c-26 0 -41 -21 -50 -59l-31 7c6 51 38 92 80 92c33 0 55 -15 82 -37c24 -19 39 -27 56 -27c26 0 41 21 50 58l31 -6c-6 -51 -37 -92 -80 -92z" />
    <glyph glyph-name="otilde" unicode="&#xf5;" horiz-adv-x="513" 
d="M256 -7c-123 0 -210 94 -210 215c0 120 88 215 210 215c124 0 210 -94 210 -215c0 -120 -87 -215 -210 -215zM256 26c101 0 171 77 171 182c0 104 -70 182 -171 182c-100 0 -171 -78 -171 -182c0 -105 71 -182 171 -182zM327 504c-33 0 -54 15 -82 37
c-24 19 -38 27 -56 27c-26 0 -41 -21 -50 -59l-31 7c6 51 38 92 80 92c33 0 55 -15 82 -37c24 -19 39 -27 56 -27c26 0 41 21 50 58l31 -6c-6 -51 -37 -92 -80 -92z" />
    <glyph glyph-name="otilde.sc" horiz-adv-x="605" 
d="M302 508c150 0 253 -114 253 -258c0 -145 -103 -258 -253 -258s-253 113 -253 258c0 144 103 258 253 258zM302 26c126 0 215 95 215 224c0 128 -89 224 -215 224c-125 0 -214 -95 -214 -224s89 -224 214 -224zM374 570c-33 0 -54 15 -82 37c-24 19 -38 27 -56 27
c-26 0 -41 -21 -50 -59l-31 7c6 51 38 92 80 92c33 0 55 -15 82 -37c24 -19 39 -27 56 -27c26 0 41 21 50 58l31 -6c-6 -51 -37 -92 -80 -92z" />
    <glyph glyph-name="Racute" unicode="&#x154;" horiz-adv-x="605" 
d="M268 719l-9 15l124 99c11 9 21 15 31 15c14 0 27 -12 27 -29c0 -11 -12 -23 -29 -31zM48 0v35h91v588h-91v35h246c138 0 225 -77 225 -184c0 -96 -64 -159 -159 -181l164 -258h80v-35h-108l-179 286c-11 -1 -25 -2 -38 -2c-36 0 -72 0 -99 1v-250h93v-35h-225zM281 319
c115 0 196 53 196 154c0 92 -71 150 -186 150h-111v-302c30 -1 66 -2 101 -2z" />
    <glyph glyph-name="racute" unicode="&#x155;" horiz-adv-x="340" 
d="M274 423c32 0 49 -19 49 -40c0 -18 -13 -33 -33 -33c-18 0 -34 15 -35 33c-38 -6 -77 -48 -104 -97v-253h82v-33h-192v33h73v350h-73v33h108v-93c31 55 82 100 125 100zM150 503l-9 15l124 99c11 9 21 15 31 15c14 0 27 -12 27 -29c0 -11 -12 -23 -29 -31z" />
    <glyph glyph-name="racute.sc" horiz-adv-x="521" 
d="M224 569l-9 15l124 99c11 9 21 15 31 15c14 0 27 -12 27 -29c0 -11 -12 -23 -29 -31zM257 466h-87v-221c25 -1 55 -2 82 -2c88 0 150 41 150 115c0 67 -57 108 -145 108zM170 211v-178h97v-33h-229v33h95v433h-95v33h221c111 0 179 -55 179 -141
c0 -71 -48 -121 -118 -138l116 -187h80v-33h-106l-128 211c-13 -1 -26 -1 -35 -1c-23 0 -55 0 -77 1z" />
    <glyph glyph-name="Rcaron" unicode="&#x158;" horiz-adv-x="605" 
d="M420 861l17 -20l-135 -126l-136 126l17 20l119 -89zM48 0v35h91v588h-91v35h246c138 0 225 -77 225 -184c0 -96 -64 -159 -159 -181l164 -258h80v-35h-108l-179 286c-11 -1 -25 -2 -38 -2c-36 0 -72 0 -99 1v-250h93v-35h-225zM281 319c115 0 196 53 196 154
c0 92 -71 150 -186 150h-111v-302c30 -1 66 -2 101 -2z" />
    <glyph glyph-name="rcaron" unicode="&#x159;" horiz-adv-x="340" 
d="M274 423c32 0 49 -19 49 -40c0 -18 -13 -33 -33 -33c-18 0 -34 15 -35 33c-38 -6 -77 -48 -104 -97v-253h82v-33h-192v33h73v350h-73v33h108v-93c31 55 82 100 125 100zM301 645l17 -20l-135 -126l-136 126l17 20l119 -89z" />
    <glyph glyph-name="rcaron.sc" horiz-adv-x="521" 
d="M378 711l17 -20l-135 -126l-136 126l17 20l119 -89zM257 466h-87v-221c25 -1 55 -2 82 -2c88 0 150 41 150 115c0 67 -57 108 -145 108zM170 211v-178h97v-33h-229v33h95v433h-95v33h221c111 0 179 -55 179 -141c0 -71 -48 -121 -118 -138l116 -187h80v-33h-106l-128 211
c-13 -1 -26 -1 -35 -1c-23 0 -55 0 -77 1z" />
    <glyph glyph-name="Rcommaaccent" unicode="&#x156;" horiz-adv-x="605" 
d="M248 -243l-8 14c45 36 63 71 64 99c-21 2 -36 17 -36 37s16 34 34 34c22 0 39 -18 39 -49c0 -48 -30 -101 -93 -135zM48 0v35h91v588h-91v35h246c138 0 225 -77 225 -184c0 -96 -64 -159 -159 -181l164 -258h80v-35h-108l-179 286c-11 -1 -25 -2 -38 -2
c-36 0 -72 0 -99 1v-250h93v-35h-225zM281 319c115 0 196 53 196 154c0 92 -71 150 -186 150h-111v-302c30 -1 66 -2 101 -2z" />
    <glyph glyph-name="rcommaaccent" unicode="&#x157;" horiz-adv-x="340" 
d="M274 423c32 0 49 -19 49 -40c0 -18 -13 -33 -33 -33c-18 0 -34 15 -35 33c-38 -6 -77 -48 -104 -97v-253h82v-33h-192v33h73v350h-73v33h108v-93c31 55 82 100 125 100zM75 -243l-8 14c45 36 63 71 64 99c-21 2 -36 17 -36 37s16 34 34 34c22 0 39 -18 39 -49
c0 -48 -30 -101 -93 -135z" />
    <glyph glyph-name="rcommaaccent.sc" horiz-adv-x="521" 
d="M213 -243l-8 14c45 36 63 71 64 99c-21 2 -36 17 -36 37s16 34 34 34c22 0 39 -18 39 -49c0 -48 -30 -101 -93 -135zM257 466h-87v-221c25 -1 55 -2 82 -2c88 0 150 41 150 115c0 67 -57 108 -145 108zM170 211v-178h97v-33h-229v33h95v433h-95v33h221
c111 0 179 -55 179 -141c0 -71 -48 -121 -118 -138l116 -187h80v-33h-106l-128 211c-13 -1 -26 -1 -35 -1c-23 0 -55 0 -77 1z" />
    <glyph glyph-name="Sacute" unicode="&#x15a;" horiz-adv-x="529" 
d="M245 719l-9 15l124 99c11 9 21 15 31 15c14 0 27 -12 27 -29c0 -11 -12 -23 -29 -31zM264 -10c-124 0 -204 72 -204 129c0 28 16 46 37 46c18 0 34 -15 34 -34c0 -16 -9 -30 -22 -38c20 -35 78 -67 157 -67c100 0 163 57 163 139c0 83 -76 119 -158 152
c-99 39 -187 80 -187 186c0 96 79 165 191 165c101 0 182 -62 182 -122c0 -26 -17 -42 -36 -42s-35 15 -35 35c0 15 8 27 19 36c-17 32 -77 57 -132 57c-88 0 -149 -54 -149 -126c0 -84 75 -117 163 -152c96 -38 182 -81 182 -186c0 -108 -87 -178 -205 -178z" />
    <glyph glyph-name="sacute" unicode="&#x15b;" horiz-adv-x="412" 
d="M351 340c0 -19 -13 -33 -30 -33c-18 0 -31 14 -31 31c0 7 2 17 10 26c-20 19 -59 27 -95 27c-68 0 -110 -36 -110 -79c0 -48 52 -62 122 -80c75 -19 148 -42 148 -123c0 -70 -67 -116 -157 -116c-61 0 -116 21 -144 50c-12 12 -19 26 -19 43c0 19 13 34 30 34
c19 0 31 -13 31 -30c0 -11 -4 -20 -12 -26c13 -19 58 -39 113 -39c76 0 122 34 122 83c0 55 -55 72 -120 88c-83 20 -150 41 -150 115c0 63 61 112 147 112c59 0 103 -18 126 -42c13 -13 19 -26 19 -41zM176 503l-9 15l124 99c11 9 21 15 31 15c14 0 27 -12 27 -29
c0 -11 -12 -23 -29 -31z" />
    <glyph glyph-name="sacute.sc" horiz-adv-x="443" 
d="M199 569l-9 15l124 99c11 9 21 15 31 15c14 0 27 -12 27 -29c0 -11 -12 -23 -29 -31zM319 406c0 12 6 24 14 30c-10 21 -56 40 -104 40c-74 0 -124 -40 -124 -93c0 -62 66 -86 130 -111c79 -29 158 -60 158 -144s-75 -136 -174 -136c-103 0 -169 52 -169 96
c0 25 13 40 32 40s31 -12 31 -29c0 -13 -6 -24 -15 -31c15 -20 57 -43 122 -43c83 0 135 40 135 101s-66 87 -128 110c-81 30 -160 59 -160 143c0 75 65 129 163 129c85 0 152 -43 152 -94c0 -23 -14 -38 -31 -38c-20 0 -32 13 -32 30z" />
    <glyph glyph-name="Scaron" unicode="&#x160;" horiz-adv-x="529" 
d="M397 861l17 -20l-135 -126l-136 126l17 20l119 -89zM264 -10c-124 0 -204 72 -204 129c0 28 16 46 37 46c18 0 34 -15 34 -34c0 -16 -9 -30 -22 -38c20 -35 78 -67 157 -67c100 0 163 57 163 139c0 83 -76 119 -158 152c-99 39 -187 80 -187 186c0 96 79 165 191 165
c101 0 182 -62 182 -122c0 -26 -17 -42 -36 -42s-35 15 -35 35c0 15 8 27 19 36c-17 32 -77 57 -132 57c-88 0 -149 -54 -149 -126c0 -84 75 -117 163 -152c96 -38 182 -81 182 -186c0 -108 -87 -178 -205 -178z" />
    <glyph glyph-name="scaron" unicode="&#x161;" horiz-adv-x="412" 
d="M351 340c0 -19 -13 -33 -30 -33c-18 0 -31 14 -31 31c0 7 2 17 10 26c-20 19 -59 27 -95 27c-68 0 -110 -36 -110 -79c0 -48 52 -62 122 -80c75 -19 148 -42 148 -123c0 -70 -67 -116 -157 -116c-61 0 -116 21 -144 50c-12 12 -19 26 -19 43c0 19 13 34 30 34
c19 0 31 -13 31 -30c0 -11 -4 -20 -12 -26c13 -19 58 -39 113 -39c76 0 122 34 122 83c0 55 -55 72 -120 88c-83 20 -150 41 -150 115c0 63 61 112 147 112c59 0 103 -18 126 -42c13 -13 19 -26 19 -41zM327 645l17 -20l-135 -126l-136 126l17 20l119 -89z" />
    <glyph glyph-name="scaron.sc" horiz-adv-x="443" 
d="M352 711l17 -20l-135 -126l-136 126l17 20l119 -89zM319 406c0 12 6 24 14 30c-10 21 -56 40 -104 40c-74 0 -124 -40 -124 -93c0 -62 66 -86 130 -111c79 -29 158 -60 158 -144s-75 -136 -174 -136c-103 0 -169 52 -169 96c0 25 13 40 32 40s31 -12 31 -29
c0 -13 -6 -24 -15 -31c15 -20 57 -43 122 -43c83 0 135 40 135 101s-66 87 -128 110c-81 30 -160 59 -160 143c0 75 65 129 163 129c85 0 152 -43 152 -94c0 -23 -14 -38 -31 -38c-20 0 -32 13 -32 30z" />
    <glyph glyph-name="Scedilla" unicode="&#x15e;" horiz-adv-x="529" 
d="M267 -200c-35 0 -69 9 -98 23l10 25c24 -11 60 -19 84 -19c38 0 57 17 57 40c0 22 -18 39 -63 40c-6 0 -14 -1 -18 -2l-12 8l19 76c-114 6 -186 73 -186 128c0 28 16 46 37 46c18 0 34 -15 34 -34c0 -16 -9 -30 -22 -38c20 -35 78 -67 157 -67c100 0 163 57 163 139
c0 83 -76 119 -158 152c-99 39 -187 80 -187 186c0 96 79 165 191 165c101 0 182 -62 182 -122c0 -26 -17 -42 -36 -42s-35 15 -35 35c0 15 8 27 19 36c-17 32 -77 57 -132 57c-88 0 -149 -54 -149 -126c0 -84 75 -117 163 -152c96 -38 182 -81 182 -186
c0 -106 -83 -175 -197 -178l-6 -49c60 -1 91 -30 91 -70s-30 -71 -90 -71z" />
    <glyph glyph-name="scedilla" unicode="&#x15f;" horiz-adv-x="412" 
d="M211 -200c-35 0 -69 9 -98 23l10 25c24 -11 60 -19 84 -19c38 0 57 17 57 40c0 22 -18 39 -63 40c-6 0 -14 -1 -18 -2l-12 8l20 79c-54 3 -102 22 -127 49c-12 12 -19 26 -19 43c0 19 13 34 30 34c19 0 31 -13 31 -30c0 -11 -4 -20 -12 -26c13 -19 58 -39 113 -39
c76 0 122 34 122 83c0 55 -55 72 -120 88c-83 20 -150 41 -150 115c0 63 61 112 147 112c59 0 103 -18 126 -42c13 -13 19 -26 19 -41c0 -19 -13 -33 -30 -33c-18 0 -31 14 -31 31c0 7 2 17 10 26c-20 19 -59 27 -95 27c-68 0 -110 -36 -110 -79c0 -48 52 -62 122 -80
c75 -19 148 -42 148 -123c0 -68 -63 -113 -148 -116l-7 -52c60 -1 91 -30 91 -70s-30 -71 -90 -71z" />
    <glyph glyph-name="scedilla.sc" horiz-adv-x="443" 
d="M214 -200c-35 0 -69 9 -98 23l10 25c24 -11 60 -19 84 -19c38 0 57 17 57 40c0 22 -18 39 -63 40c-6 0 -14 -1 -18 -2l-12 8l20 78c-89 7 -144 54 -144 95c0 25 13 40 32 40s31 -12 31 -29c0 -13 -6 -24 -15 -31c15 -20 57 -43 122 -43c83 0 135 40 135 101
s-66 87 -128 110c-81 30 -160 59 -160 143c0 75 65 129 163 129c85 0 152 -43 152 -94c0 -23 -14 -38 -31 -38c-20 0 -32 13 -32 30c0 12 6 24 14 30c-10 21 -56 40 -104 40c-74 0 -124 -40 -124 -93c0 -62 66 -86 130 -111c79 -29 158 -60 158 -144s-75 -136 -174 -136
l-6 -51c60 -1 91 -30 91 -70s-30 -71 -90 -71z" />
    <glyph glyph-name="Scommaaccent" unicode="&#x218;" horiz-adv-x="529" 
d="M221 -243l-8 14c45 36 63 71 64 99c-21 2 -36 17 -36 37s16 34 34 34c22 0 39 -18 39 -49c0 -48 -30 -101 -93 -135zM264 -10c-124 0 -204 72 -204 129c0 28 16 46 37 46c18 0 34 -15 34 -34c0 -16 -9 -30 -22 -38c20 -35 78 -67 157 -67c100 0 163 57 163 139
c0 83 -76 119 -158 152c-99 39 -187 80 -187 186c0 96 79 165 191 165c101 0 182 -62 182 -122c0 -26 -17 -42 -36 -42s-35 15 -35 35c0 15 8 27 19 36c-17 32 -77 57 -132 57c-88 0 -149 -54 -149 -126c0 -84 75 -117 163 -152c96 -38 182 -81 182 -186
c0 -108 -87 -178 -205 -178z" />
    <glyph glyph-name="scommaaccent" unicode="&#x219;" horiz-adv-x="412" 
d="M351 340c0 -19 -13 -33 -30 -33c-18 0 -31 14 -31 31c0 7 2 17 10 26c-20 19 -59 27 -95 27c-68 0 -110 -36 -110 -79c0 -48 52 -62 122 -80c75 -19 148 -42 148 -123c0 -70 -67 -116 -157 -116c-61 0 -116 21 -144 50c-12 12 -19 26 -19 43c0 19 13 34 30 34
c19 0 31 -13 31 -30c0 -11 -4 -20 -12 -26c13 -19 58 -39 113 -39c76 0 122 34 122 83c0 55 -55 72 -120 88c-83 20 -150 41 -150 115c0 63 61 112 147 112c59 0 103 -18 126 -42c13 -13 19 -26 19 -41zM153 -243l-8 14c45 36 63 71 64 99c-21 2 -36 17 -36 37s16 34 34 34
c22 0 39 -18 39 -49c0 -48 -30 -101 -93 -135z" />
    <glyph glyph-name="scommaaccent.sc" horiz-adv-x="443" 
d="M171 -243l-8 14c45 36 63 71 64 99c-21 2 -36 17 -36 37s16 34 34 34c22 0 39 -18 39 -49c0 -48 -30 -101 -93 -135zM319 406c0 12 6 24 14 30c-10 21 -56 40 -104 40c-74 0 -124 -40 -124 -93c0 -62 66 -86 130 -111c79 -29 158 -60 158 -144s-75 -136 -174 -136
c-103 0 -169 52 -169 96c0 25 13 40 32 40s31 -12 31 -29c0 -13 -6 -24 -15 -31c15 -20 57 -43 122 -43c83 0 135 40 135 101s-66 87 -128 110c-81 30 -160 59 -160 143c0 75 65 129 163 129c85 0 152 -43 152 -94c0 -23 -14 -38 -31 -38c-20 0 -32 13 -32 30z" />
    <glyph glyph-name="Tcaron" unicode="&#x164;" horiz-adv-x="626" 
d="M431 861l17 -20l-135 -126l-136 126l17 20l119 -89zM195 0v35h98v588h-207v-116h-40v151h534v-151h-40v116h-206v-588h97v-35h-236z" />
    <glyph glyph-name="tcaron" unicode="&#x165;" horiz-adv-x="299" 
d="M195 480l-14 10c21 34 31 64 31 98c0 22 -4 35 -4 52s9 30 27 30s27 -12 27 -33c0 -54 -29 -113 -67 -157zM181 -7c-39 0 -65 16 -79 46c-7 15 -10 32 -10 52v292h-76v33h76v111l37 13v-124h134v-33h-134v-288c0 -16 2 -28 7 -39c9 -19 26 -28 53 -28c26 0 51 10 76 25
l-6 -37c-20 -12 -44 -23 -78 -23z" />
    <glyph glyph-name="tcaron.sc" horiz-adv-x="510" 
d="M139 0v33h97v433h-158v-98h-36v131h427v-131h-37v98h-158v-433h97v-33h-232zM375 711l17 -20l-135 -126l-136 126l17 20l119 -89z" />
    <glyph glyph-name="Tcommaaccent" unicode="&#x162;" horiz-adv-x="626" 
d="M257 -243l-8 14c45 36 63 71 64 99c-21 2 -36 17 -36 37s16 34 34 34c22 0 39 -18 39 -49c0 -48 -30 -101 -93 -135zM195 0v35h98v588h-207v-116h-40v151h534v-151h-40v116h-206v-588h97v-35h-236z" />
    <glyph glyph-name="tcommaaccent" unicode="&#x163;" horiz-adv-x="299" 
d="M110 -243l-8 14c45 36 63 71 64 99c-21 2 -36 17 -36 37s16 34 34 34c22 0 39 -18 39 -49c0 -48 -30 -101 -93 -135zM181 -7c-39 0 -65 16 -79 46c-7 15 -10 32 -10 52v292h-76v33h76v111l37 13v-124h134v-33h-134v-288c0 -16 2 -28 7 -39c9 -19 26 -28 53 -28
c26 0 51 10 76 25l-6 -37c-20 -12 -44 -23 -78 -23z" />
    <glyph glyph-name="tcommaaccent.sc" horiz-adv-x="510" 
d="M139 0v33h97v433h-158v-98h-36v131h427v-131h-37v98h-158v-433h97v-33h-232zM195 -243l-8 14c45 36 63 71 64 99c-21 2 -36 17 -36 37s16 34 34 34c22 0 39 -18 39 -49c0 -48 -30 -101 -93 -135z" />
    <glyph glyph-name="Thorn" unicode="&#xde;" horiz-adv-x="579" 
d="M48 0v35h92v588h-92v35h226v-35h-93v-100c20 1 74 3 114 3c140 0 233 -78 233 -192c0 -119 -88 -193 -232 -193c-39 0 -92 1 -115 2v-108h96v-35h-229zM297 176c123 0 190 61 190 157s-72 157 -190 157c-41 0 -94 -1 -116 -2v-310c25 -1 76 -2 116 -2z" />
    <glyph glyph-name="thorn" unicode="&#xfe;" horiz-adv-x="517" 
d="M7 -196v33h72v860h-72v33h109v-381c38 42 88 74 155 74c112 0 198 -88 198 -214c0 -120 -83 -216 -205 -216c-57 0 -110 24 -148 57v-213h80v-33h-189zM265 26c98 0 165 79 166 183c0 106 -66 181 -162 181c-65 0 -115 -32 -153 -77v-226c36 -34 86 -61 149 -61z" />
    <glyph glyph-name="thorn.sc" horiz-adv-x="476" 
d="M170 108v-75h96v-33h-228v33h94v433h-94v33h228v-33h-96v-65c31 2 57 2 86 2c110 0 182 -58 182 -148s-69 -149 -183 -149c-32 0 -61 0 -85 2zM170 368v-227c25 -1 53 -2 88 -2c90 0 142 48 142 116s-56 115 -142 115c-31 0 -57 -1 -88 -2z" />
    <glyph glyph-name="Uacute" unicode="&#xda;" horiz-adv-x="701" 
d="M317 719l-9 15l124 99c11 9 21 15 31 15c14 0 27 -12 27 -29c0 -11 -12 -23 -29 -31zM349 -11c-146 0 -225 87 -225 235v399h-92v35h226v-35h-94v-395c0 -134 65 -203 186 -203s187 68 187 202v396h-94v35h226v-35h-92v-397c0 -150 -82 -237 -228 -237z" />
    <glyph glyph-name="uacute" unicode="&#xfa;" horiz-adv-x="535" 
d="M230 503l-9 15l124 99c11 9 21 15 31 15c14 0 27 -12 27 -29c0 -11 -12 -23 -29 -31zM230 -7c-56 0 -91 22 -110 56c-13 24 -18 53 -18 87v247h-73v33h110v-276c0 -28 4 -52 13 -70c15 -28 42 -43 83 -43c61 0 115 44 158 94v262h-72v33h109v-383h73v-33h-109v88
c-38 -49 -99 -95 -164 -95z" />
    <glyph glyph-name="uacute.sc" horiz-adv-x="604" 
d="M268 569l-9 15l124 99c11 9 21 15 31 15c14 0 27 -12 27 -29c0 -11 -12 -23 -29 -31zM153 466v-286c0 -99 56 -154 149 -154s149 55 149 153v287h-95v33h223v-33h-90v-286c0 -122 -70 -188 -188 -188s-186 65 -186 187v287h-90v33h223v-33h-95z" />
    <glyph glyph-name="Ubreve" unicode="&#x16c;" horiz-adv-x="701" 
d="M349 -11c-146 0 -225 87 -225 235v399h-92v35h226v-35h-94v-395c0 -134 65 -203 186 -203s187 68 187 202v396h-94v35h226v-35h-92v-397c0 -150 -82 -237 -228 -237zM350 719c-65 0 -116 47 -138 107l29 14c20 -49 60 -78 109 -78c51 0 89 31 109 78l28 -14
c-22 -60 -73 -107 -137 -107z" />
    <glyph glyph-name="ubreve" unicode="&#x16d;" horiz-adv-x="535" 
d="M230 -7c-56 0 -91 22 -110 56c-13 24 -18 53 -18 87v247h-73v33h110v-276c0 -28 4 -52 13 -70c15 -28 42 -43 83 -43c61 0 115 44 158 94v262h-72v33h109v-383h73v-33h-109v88c-38 -49 -99 -95 -164 -95zM263 503c-65 0 -116 47 -138 107l29 14c20 -49 60 -78 109 -78
c51 0 89 31 109 78l28 -14c-22 -60 -73 -107 -137 -107z" />
    <glyph glyph-name="ubreve.sc" horiz-adv-x="604" 
d="M153 466v-286c0 -99 56 -154 149 -154s149 55 149 153v287h-95v33h223v-33h-90v-286c0 -122 -70 -188 -188 -188s-186 65 -186 187v287h-90v33h223v-33h-95zM303 569c-65 0 -116 47 -138 107l29 14c20 -49 60 -78 109 -78c51 0 89 31 109 78l28 -14
c-22 -60 -73 -107 -137 -107z" />
    <glyph glyph-name="Ucircumflex" unicode="&#xdb;" horiz-adv-x="701" 
d="M231 713l-17 19l136 127l135 -127l-17 -19l-118 89zM349 -11c-146 0 -225 87 -225 235v399h-92v35h226v-35h-94v-395c0 -134 65 -203 186 -203s187 68 187 202v396h-94v35h226v-35h-92v-397c0 -150 -82 -237 -228 -237z" />
    <glyph glyph-name="ucircumflex" unicode="&#xfb;" horiz-adv-x="535" 
d="M144 497l-17 19l136 127l135 -127l-17 -19l-118 89zM230 -7c-56 0 -91 22 -110 56c-13 24 -18 53 -18 87v247h-73v33h110v-276c0 -28 4 -52 13 -70c15 -28 42 -43 83 -43c61 0 115 44 158 94v262h-72v33h109v-383h73v-33h-109v88c-38 -49 -99 -95 -164 -95z" />
    <glyph glyph-name="ucircumflex.sc" horiz-adv-x="604" 
d="M184 563l-17 19l136 127l135 -127l-17 -19l-118 89zM153 466v-286c0 -99 56 -154 149 -154s149 55 149 153v287h-95v33h223v-33h-90v-286c0 -122 -70 -188 -188 -188s-186 65 -186 187v287h-90v33h223v-33h-95z" />
    <glyph glyph-name="Udieresis" unicode="&#xdc;" horiz-adv-x="701" 
d="M418 735c-22 0 -37 18 -37 38c0 22 15 39 37 39c21 0 37 -17 37 -39c0 -20 -16 -38 -37 -38zM281 735c-21 0 -37 18 -37 38c0 22 16 39 37 39c22 0 38 -17 38 -39c0 -20 -16 -38 -38 -38zM349 -11c-146 0 -225 87 -225 235v399h-92v35h226v-35h-94v-395
c0 -134 65 -203 186 -203s187 68 187 202v396h-94v35h226v-35h-92v-397c0 -150 -82 -237 -228 -237z" />
    <glyph glyph-name="udieresis" unicode="&#xfc;" horiz-adv-x="535" 
d="M331 519c-22 0 -37 18 -37 38c0 22 15 39 37 39c21 0 37 -17 37 -39c0 -20 -16 -38 -37 -38zM194 519c-21 0 -37 18 -37 38c0 22 16 39 37 39c22 0 38 -17 38 -39c0 -20 -16 -38 -38 -38zM230 -7c-56 0 -91 22 -110 56c-13 24 -18 53 -18 87v247h-73v33h110v-276
c0 -28 4 -52 13 -70c15 -28 42 -43 83 -43c61 0 115 44 158 94v262h-72v33h109v-383h73v-33h-109v88c-38 -49 -99 -95 -164 -95z" />
    <glyph glyph-name="udieresis.sc" horiz-adv-x="604" 
d="M371 585c-22 0 -37 18 -37 38c0 22 15 39 37 39c21 0 37 -17 37 -39c0 -20 -16 -38 -37 -38zM234 585c-21 0 -37 18 -37 38c0 22 16 39 37 39c22 0 38 -17 38 -39c0 -20 -16 -38 -38 -38zM153 466v-286c0 -99 56 -154 149 -154s149 55 149 153v287h-95v33h223v-33h-90
v-286c0 -122 -70 -188 -188 -188s-186 65 -186 187v287h-90v33h223v-33h-95z" />
    <glyph glyph-name="Ugrave" unicode="&#xd9;" horiz-adv-x="701" 
d="M349 -11c-146 0 -225 87 -225 235v399h-92v35h226v-35h-94v-395c0 -134 65 -203 186 -203s187 68 187 202v396h-94v35h226v-35h-92v-397c0 -150 -82 -237 -228 -237zM383 719l-144 69c-17 8 -29 20 -29 31c0 17 13 29 27 29c10 0 20 -6 31 -15l124 -99z" />
    <glyph glyph-name="ugrave" unicode="&#xf9;" horiz-adv-x="535" 
d="M230 -7c-56 0 -91 22 -110 56c-13 24 -18 53 -18 87v247h-73v33h110v-276c0 -28 4 -52 13 -70c15 -28 42 -43 83 -43c61 0 115 44 158 94v262h-72v33h109v-383h73v-33h-109v88c-38 -49 -99 -95 -164 -95zM296 503l-144 69c-17 8 -29 20 -29 31c0 17 13 29 27 29
c10 0 20 -6 31 -15l124 -99z" />
    <glyph glyph-name="ugrave.sc" horiz-adv-x="604" 
d="M337 569l-144 69c-17 8 -29 20 -29 31c0 17 13 29 27 29c10 0 20 -6 31 -15l124 -99zM153 466v-286c0 -99 56 -154 149 -154s149 55 149 153v287h-95v33h223v-33h-90v-286c0 -122 -70 -188 -188 -188s-186 65 -186 187v287h-90v33h223v-33h-95z" />
    <glyph glyph-name="Uhungarumlaut" unicode="&#x170;" horiz-adv-x="701" 
d="M349 -11c-146 0 -225 87 -225 235v399h-92v35h226v-35h-94v-395c0 -134 65 -203 186 -203s187 68 187 202v396h-94v35h226v-35h-92v-397c0 -150 -82 -237 -228 -237zM243 719l-9 14l122 103c11 10 21 16 31 16c14 0 26 -10 26 -27c0 -11 -11 -23 -28 -31zM412 724l-9 14
l128 96c12 9 23 13 32 13c15 0 25 -12 25 -26c0 -13 -11 -24 -31 -32z" />
    <glyph glyph-name="uhungarumlaut" unicode="&#x171;" horiz-adv-x="535" 
d="M230 -7c-56 0 -91 22 -110 56c-13 24 -18 53 -18 87v247h-73v33h110v-276c0 -28 4 -52 13 -70c15 -28 42 -43 83 -43c61 0 115 44 158 94v262h-72v33h109v-383h73v-33h-109v88c-38 -49 -99 -95 -164 -95zM156 503l-9 14l122 103c11 10 21 16 31 16c14 0 26 -10 26 -27
c0 -11 -11 -23 -28 -31zM325 508l-9 14l128 96c12 9 23 13 32 13c15 0 25 -12 25 -26c0 -13 -11 -24 -31 -32z" />
    <glyph glyph-name="uhungarumlaut.sc" horiz-adv-x="604" 
d="M203 569l-9 14l122 103c11 10 21 16 31 16c14 0 26 -10 26 -27c0 -11 -11 -23 -28 -31zM372 574l-9 14l128 96c12 9 23 13 32 13c15 0 25 -12 25 -26c0 -13 -11 -24 -31 -32zM153 466v-286c0 -99 56 -154 149 -154s149 55 149 153v287h-95v33h223v-33h-90v-286
c0 -122 -70 -188 -188 -188s-186 65 -186 187v287h-90v33h223v-33h-95z" />
    <glyph glyph-name="Umacron" unicode="&#x16a;" horiz-adv-x="701" 
d="M349 -11c-146 0 -225 87 -225 235v399h-92v35h226v-35h-94v-395c0 -134 65 -203 186 -203s187 68 187 202v396h-94v35h226v-35h-92v-397c0 -150 -82 -237 -228 -237zM209 750v37h281v-37h-281z" />
    <glyph glyph-name="umacron" unicode="&#x16b;" horiz-adv-x="535" 
d="M230 -7c-56 0 -91 22 -110 56c-13 24 -18 53 -18 87v247h-73v33h110v-276c0 -28 4 -52 13 -70c15 -28 42 -43 83 -43c61 0 115 44 158 94v262h-72v33h109v-383h73v-33h-109v88c-38 -49 -99 -95 -164 -95zM122 534v37h281v-37h-281z" />
    <glyph glyph-name="umacron.sc" horiz-adv-x="604" 
d="M162 600v37h281v-37h-281zM153 466v-286c0 -99 56 -154 149 -154s149 55 149 153v287h-95v33h223v-33h-90v-286c0 -122 -70 -188 -188 -188s-186 65 -186 187v287h-90v33h223v-33h-95z" />
    <glyph glyph-name="Uogonek" unicode="&#x172;" horiz-adv-x="701" 
d="M375 -201c-63 0 -96 35 -96 85c0 41 24 78 60 105c-140 4 -215 90 -215 235v399h-92v35h226v-35h-94v-395c0 -134 65 -203 186 -203s187 68 187 202v396h-94v35h226v-35h-92v-397c0 -136 -67 -220 -188 -234c-47 -26 -74 -64 -74 -102c0 -35 22 -59 63 -59
c31 0 55 10 75 21l-2 -29c-13 -10 -41 -24 -76 -24z" />
    <glyph glyph-name="uogonek" unicode="&#x173;" horiz-adv-x="535" 
d="M230 -7c-56 0 -91 22 -110 56c-13 24 -18 53 -18 87v247h-73v33h110v-276c0 -28 4 -52 13 -70c15 -28 42 -43 83 -43c61 0 115 44 158 94v262h-72v33h109v-383h73v-33h-60c-58 -26 -91 -68 -91 -110c0 -35 22 -59 63 -59c31 0 55 10 75 21l-2 -29
c-13 -10 -41 -24 -76 -24c-63 0 -96 35 -96 85c0 47 32 89 78 117v87c-38 -49 -99 -95 -164 -95z" />
    <glyph glyph-name="uogonek.sc" horiz-adv-x="604" 
d="M153 466v-286c0 -99 56 -154 149 -154s149 55 149 153v287h-95v33h223v-33h-90v-286c0 -112 -59 -176 -159 -186c-45 -24 -75 -61 -75 -102c0 -35 21 -60 63 -60c32 0 57 10 76 21l-2 -32c-13 -10 -43 -22 -77 -22c-64 0 -97 35 -97 86c0 42 26 81 64 108
c-106 6 -167 70 -167 186v287h-90v33h223v-33h-95z" />
    <glyph glyph-name="Uring" unicode="&#x16e;" horiz-adv-x="701" 
d="M350 710c-52 0 -92 41 -92 93c0 50 40 93 92 93c51 0 91 -43 91 -93c0 -52 -40 -93 -91 -93zM350 740c34 0 58 27 58 63c0 34 -24 63 -58 63c-35 0 -59 -29 -59 -63c0 -36 24 -63 59 -63zM349 -11c-146 0 -225 87 -225 235v399h-92v35h226v-35h-94v-395
c0 -134 65 -203 186 -203s187 68 187 202v396h-94v35h226v-35h-92v-397c0 -150 -82 -237 -228 -237z" />
    <glyph glyph-name="uring" unicode="&#x16f;" horiz-adv-x="535" 
d="M263 494c-52 0 -92 41 -92 93c0 50 40 93 92 93c51 0 91 -43 91 -93c0 -52 -40 -93 -91 -93zM263 524c34 0 58 27 58 63c0 34 -24 63 -58 63c-35 0 -59 -29 -59 -63c0 -36 24 -63 59 -63zM230 -7c-56 0 -91 22 -110 56c-13 24 -18 53 -18 87v247h-73v33h110v-276
c0 -28 4 -52 13 -70c15 -28 42 -43 83 -43c61 0 115 44 158 94v262h-72v33h109v-383h73v-33h-109v88c-38 -49 -99 -95 -164 -95z" />
    <glyph glyph-name="uring.sc" horiz-adv-x="604" 
d="M303 560c-52 0 -92 41 -92 93c0 50 40 93 92 93c51 0 91 -43 91 -93c0 -52 -40 -93 -91 -93zM303 590c34 0 58 27 58 63c0 34 -24 63 -58 63c-35 0 -59 -29 -59 -63c0 -36 24 -63 59 -63zM153 466v-286c0 -99 56 -154 149 -154s149 55 149 153v287h-95v33h223v-33h-90
v-286c0 -122 -70 -188 -188 -188s-186 65 -186 187v287h-90v33h223v-33h-95z" />
    <glyph glyph-name="Wacute" unicode="&#x1e82;" horiz-adv-x="963" 
d="M448 718l-9 15l124 99c11 9 21 15 31 15c14 0 27 -12 27 -29c0 -11 -12 -23 -29 -31zM287 -13l-191 636h-83v35h214v-35h-89l164 -563l170 508h24l170 -508l163 563h-91v35h214v-35h-83l-190 -636h-25l-171 504l-171 -504h-25z" />
    <glyph glyph-name="wacute" unicode="&#x1e83;" horiz-adv-x="663" 
d="M298 502l-9 15l124 99c11 9 21 15 31 15c14 0 27 -12 27 -29c0 -11 -12 -23 -29 -31zM184 -17l-118 400h-63v33h176v-32h-75l92 -328l129 310h15l129 -310l92 328h-77v32h177v-33h-65l-116 -400h-16l-132 319l-133 -319h-15z" />
    <glyph glyph-name="wacute.sc" horiz-adv-x="782" 
d="M234 -12l-146 478h-81v33h213v-33h-92l122 -406l134 370h17l135 -370l122 406h-93v33h210v-33h-80l-146 -478h-23l-135 374l-135 -374h-22zM358 569l-9 15l124 99c11 9 21 15 31 15c14 0 27 -12 27 -29c0 -11 -12 -23 -29 -31z" />
    <glyph glyph-name="Wcircumflex" unicode="&#x174;" horiz-adv-x="963" 
d="M363 712l-17 19l136 127l135 -127l-17 -19l-118 89zM287 -13l-191 636h-83v35h214v-35h-89l164 -563l170 508h24l170 -508l163 563h-91v35h214v-35h-83l-190 -636h-25l-171 504l-171 -504h-25z" />
    <glyph glyph-name="wcircumflex" unicode="&#x175;" horiz-adv-x="663" 
d="M213 496l-17 19l136 127l135 -127l-17 -19l-118 89zM184 -17l-118 400h-63v33h176v-32h-75l92 -328l129 310h15l129 -310l92 328h-77v32h177v-33h-65l-116 -400h-16l-132 319l-133 -319h-15z" />
    <glyph glyph-name="wcircumflex.sc" horiz-adv-x="782" 
d="M274 563l-17 19l136 127l135 -127l-17 -19l-118 89zM234 -12l-146 478h-81v33h213v-33h-92l122 -406l134 370h17l135 -370l122 406h-93v33h210v-33h-80l-146 -478h-23l-135 374l-135 -374h-22z" />
    <glyph glyph-name="Wdieresis" unicode="&#x1e84;" horiz-adv-x="963" 
d="M550 734c-22 0 -37 18 -37 38c0 22 15 39 37 39c21 0 37 -17 37 -39c0 -20 -16 -38 -37 -38zM413 734c-21 0 -37 18 -37 38c0 22 16 39 37 39c22 0 38 -17 38 -39c0 -20 -16 -38 -38 -38zM287 -13l-191 636h-83v35h214v-35h-89l164 -563l170 508h24l170 -508l163 563h-91
v35h214v-35h-83l-190 -636h-25l-171 504l-171 -504h-25z" />
    <glyph glyph-name="wdieresis" unicode="&#x1e85;" horiz-adv-x="663" 
d="M400 518c-22 0 -37 18 -37 38c0 22 15 39 37 39c21 0 37 -17 37 -39c0 -20 -16 -38 -37 -38zM263 518c-21 0 -37 18 -37 38c0 22 16 39 37 39c22 0 38 -17 38 -39c0 -20 -16 -38 -38 -38zM184 -17l-118 400h-63v33h176v-32h-75l92 -328l129 310h15l129 -310l92 328h-77
v32h177v-33h-65l-116 -400h-16l-132 319l-133 -319h-15z" />
    <glyph glyph-name="wdieresis.sc" horiz-adv-x="782" 
d="M461 585c-22 0 -37 18 -37 38c0 22 15 39 37 39c21 0 37 -17 37 -39c0 -20 -16 -38 -37 -38zM324 585c-21 0 -37 18 -37 38c0 22 16 39 37 39c22 0 38 -17 38 -39c0 -20 -16 -38 -38 -38zM234 -12l-146 478h-81v33h213v-33h-92l122 -406l134 370h17l135 -370l122 406h-93
v33h210v-33h-80l-146 -478h-23l-135 374l-135 -374h-22z" />
    <glyph glyph-name="Wgrave" unicode="&#x1e80;" horiz-adv-x="963" 
d="M287 -13l-191 636h-83v35h214v-35h-89l164 -563l170 508h24l170 -508l163 563h-91v35h214v-35h-83l-190 -636h-25l-171 504l-171 -504h-25zM514 718l-144 69c-17 8 -29 20 -29 31c0 17 13 29 27 29c10 0 20 -6 31 -15l124 -99z" />
    <glyph glyph-name="wgrave" unicode="&#x1e81;" horiz-adv-x="663" 
d="M184 -17l-118 400h-63v33h176v-32h-75l92 -328l129 310h15l129 -310l92 328h-77v32h177v-33h-65l-116 -400h-16l-132 319l-133 -319h-15zM364 502l-144 69c-17 8 -29 20 -29 31c0 17 13 29 27 29c10 0 20 -6 31 -15l124 -99z" />
    <glyph glyph-name="wgrave.sc" horiz-adv-x="782" 
d="M234 -12l-146 478h-81v33h213v-33h-92l122 -406l134 370h17l135 -370l122 406h-93v33h210v-33h-80l-146 -478h-23l-135 374l-135 -374h-22zM428 569l-144 69c-17 8 -29 20 -29 31c0 17 13 29 27 29c10 0 20 -6 31 -15l124 -99z" />
    <glyph glyph-name="Yacute" unicode="&#xdd;" horiz-adv-x="634" 
d="M195 0v35h101v240l-204 348h-75v35h204v-35h-82l179 -314l179 314h-83v35h203v-35h-76l-203 -348v-240h101v-35h-244zM283 719l-9 15l124 99c11 9 21 15 31 15c14 0 27 -12 27 -29c0 -11 -12 -23 -29 -31z" />
    <glyph glyph-name="yacute" unicode="&#xfd;" horiz-adv-x="484" 
d="M187 -128c-31 -49 -63 -72 -104 -72c-32 0 -56 17 -56 42c0 18 13 31 31 31c22 0 36 -21 34 -40c23 3 45 17 70 57c12 19 25 45 39 76l24 53l-161 364h-62v33h178v-33h-74l137 -325l140 325h-76v33h175v-33h-62l-195 -439c-13 -29 -25 -51 -38 -72zM210 503l-9 15l124 99
c11 9 21 15 31 15c14 0 27 -12 27 -29c0 -11 -12 -23 -29 -31z" />
    <glyph glyph-name="yacute.sc" 
d="M232 569l-9 15l124 99c11 9 21 15 31 15c14 0 27 -12 27 -29c0 -11 -12 -23 -29 -31zM525 499v-33h-77l-165 -277v-156h97v-33h-230v33h96v156l-164 277h-78v33h208v-33h-88l142 -245l143 245h-90v33h206z" />
    <glyph glyph-name="Ycircumflex" unicode="&#x176;" horiz-adv-x="634" 
d="M195 0v35h101v240l-204 348h-75v35h204v-35h-82l179 -314l179 314h-83v35h203v-35h-76l-203 -348v-240h101v-35h-244zM197 713l-17 19l136 127l135 -127l-17 -19l-118 89z" />
    <glyph glyph-name="ycircumflex" unicode="&#x177;" horiz-adv-x="484" 
d="M187 -128c-31 -49 -63 -72 -104 -72c-32 0 -56 17 -56 42c0 18 13 31 31 31c22 0 36 -21 34 -40c23 3 45 17 70 57c12 19 25 45 39 76l24 53l-161 364h-62v33h178v-33h-74l137 -325l140 325h-76v33h175v-33h-62l-195 -439c-13 -29 -25 -51 -38 -72zM125 497l-17 19
l136 127l135 -127l-17 -19l-118 89z" />
    <glyph glyph-name="ycircumflex.sc" 
d="M148 563l-17 19l136 127l135 -127l-17 -19l-118 89zM525 499v-33h-77l-165 -277v-156h97v-33h-230v33h96v156l-164 277h-78v33h208v-33h-88l142 -245l143 245h-90v33h206z" />
    <glyph glyph-name="Ydieresis" unicode="&#x178;" horiz-adv-x="634" 
d="M195 0v35h101v240l-204 348h-75v35h204v-35h-82l179 -314l179 314h-83v35h203v-35h-76l-203 -348v-240h101v-35h-244zM384 735c-22 0 -37 18 -37 38c0 22 15 39 37 39c21 0 37 -17 37 -39c0 -20 -16 -38 -37 -38zM247 735c-21 0 -37 18 -37 38c0 22 16 39 37 39
c22 0 38 -17 38 -39c0 -20 -16 -38 -38 -38z" />
    <glyph glyph-name="ydieresis" unicode="&#xff;" horiz-adv-x="484" 
d="M187 -128c-31 -49 -63 -72 -104 -72c-32 0 -56 17 -56 42c0 18 13 31 31 31c22 0 36 -21 34 -40c23 3 45 17 70 57c12 19 25 45 39 76l24 53l-161 364h-62v33h178v-33h-74l137 -325l140 325h-76v33h175v-33h-62l-195 -439c-13 -29 -25 -51 -38 -72zM175 519
c-21 0 -37 18 -37 38c0 22 16 39 37 39c22 0 38 -17 38 -39c0 -20 -16 -38 -38 -38zM312 519c-22 0 -37 18 -37 38c0 22 15 39 37 39c21 0 37 -17 37 -39c0 -20 -16 -38 -37 -38z" />
    <glyph glyph-name="ydieresis.sc" 
d="M335 585c-22 0 -37 18 -37 38c0 22 15 39 37 39c21 0 37 -17 37 -39c0 -20 -16 -38 -37 -38zM198 585c-21 0 -37 18 -37 38c0 22 16 39 37 39c22 0 38 -17 38 -39c0 -20 -16 -38 -38 -38zM525 499v-33h-77l-165 -277v-156h97v-33h-230v33h96v156l-164 277h-78v33h208v-33
h-88l142 -245l143 245h-90v33h206z" />
    <glyph glyph-name="Ygrave" unicode="&#x1ef2;" horiz-adv-x="634" 
d="M195 0v35h101v240l-204 348h-75v35h204v-35h-82l179 -314l179 314h-83v35h203v-35h-76l-203 -348v-240h101v-35h-244zM349 719l-144 69c-17 8 -29 20 -29 31c0 17 13 29 27 29c10 0 20 -6 31 -15l124 -99z" />
    <glyph glyph-name="ygrave" unicode="&#x1ef3;" horiz-adv-x="484" 
d="M187 -128c-31 -49 -63 -72 -104 -72c-32 0 -56 17 -56 42c0 18 13 31 31 31c22 0 36 -21 34 -40c23 3 45 17 70 57c12 19 25 45 39 76l24 53l-161 364h-62v33h178v-33h-74l137 -325l140 325h-76v33h175v-33h-62l-195 -439c-13 -29 -25 -51 -38 -72zM276 503l-144 69
c-17 8 -29 20 -29 31c0 17 13 29 27 29c10 0 20 -6 31 -15l124 -99z" />
    <glyph glyph-name="ygrave.sc" 
d="M525 499v-33h-77l-165 -277v-156h97v-33h-230v33h96v156l-164 277h-78v33h208v-33h-88l142 -245l143 245h-90v33h206zM302 569l-144 69c-17 8 -29 20 -29 31c0 17 13 29 27 29c10 0 20 -6 31 -15l124 -99z" />
    <glyph glyph-name="Zacute" unicode="&#x179;" horiz-adv-x="582" 
d="M257 719l-9 15l124 99c11 9 21 15 31 15c14 0 27 -12 27 -29c0 -11 -12 -23 -29 -31zM42 0v18l430 606h-368v-112h-39v146h465v-18l-429 -606h399v112h39v-146h-497z" />
    <glyph glyph-name="zacute" unicode="&#x17a;" horiz-adv-x="412" 
d="M174 503l-9 15l124 99c11 9 21 15 31 15c14 0 27 -12 27 -29c0 -11 -12 -23 -29 -31zM34 0v13l283 371h-230v-85h-35v117h322v-14l-283 -370h252v85h35v-117h-344z" />
    <glyph glyph-name="zacute.sc" horiz-adv-x="472" 
d="M205 569l-9 15l124 99c11 9 21 15 31 15c14 0 27 -12 27 -29c0 -11 -12 -23 -29 -31zM44 0v20l332 447h-284v-96h-36v128h374v-20l-332 -446h298v95h37v-128h-389z" />
    <glyph glyph-name="Zcaron" unicode="&#x17d;" horiz-adv-x="582" 
d="M409 861l17 -20l-135 -126l-136 126l17 20l119 -89zM42 0v18l430 606h-368v-112h-39v146h465v-18l-429 -606h399v112h39v-146h-497z" />
    <glyph glyph-name="zcaron" unicode="&#x17e;" horiz-adv-x="412" 
d="M325 645l17 -20l-135 -126l-136 126l17 20l119 -89zM34 0v13l283 371h-230v-85h-35v117h322v-14l-283 -370h252v85h35v-117h-344z" />
    <glyph glyph-name="zcaron.sc" horiz-adv-x="472" 
d="M359 711l17 -20l-135 -126l-136 126l17 20l119 -89zM44 0v20l332 447h-284v-96h-36v128h374v-20l-332 -446h298v95h37v-128h-389z" />
    <glyph glyph-name="Zdotaccent" unicode="&#x17b;" horiz-adv-x="582" 
d="M42 0v18l430 606h-368v-112h-39v146h465v-18l-429 -606h399v112h39v-146h-497zM291 733c-23 0 -40 19 -40 40c0 23 17 41 40 41c22 0 39 -18 39 -41c0 -21 -17 -40 -39 -40z" />
    <glyph glyph-name="zdotaccent" unicode="&#x17c;" horiz-adv-x="412" 
d="M34 0v13l283 371h-230v-85h-35v117h322v-14l-283 -370h252v85h35v-117h-344zM207 517c-23 0 -40 19 -40 40c0 23 17 41 40 41c22 0 39 -18 39 -41c0 -21 -17 -40 -39 -40z" />
    <glyph glyph-name="zdotaccent.sc" horiz-adv-x="472" 
d="M44 0v20l332 447h-284v-96h-36v128h374v-20l-332 -446h298v95h37v-128h-389zM241 583c-23 0 -40 19 -40 40c0 23 17 41 40 41c22 0 39 -18 39 -41c0 -21 -17 -40 -39 -40z" />
    <glyph glyph-name="schwa" unicode="&#x259;" horiz-adv-x="471" 
d="M229 -7c-119 0 -184 93 -184 195c0 10 0 18 1 24h342c-4 115 -74 178 -179 178c-56 0 -101 -19 -145 -48l3 38c40 27 92 43 146 43c127 0 214 -85 214 -216c0 -118 -84 -214 -198 -214zM232 26c80 0 146 62 155 154h-305c3 -86 54 -154 150 -154z" />
    <glyph glyph-name="germandbls" unicode="&#xdf;" horiz-adv-x="519" 
d="M333 -8c-64 0 -103 29 -103 62c0 21 13 33 30 33s30 -13 30 -29c0 -10 -4 -19 -8 -22c8 -7 29 -13 52 -13c67 0 112 40 112 103c0 55 -41 90 -93 120c-59 34 -103 67 -103 126c0 38 20 68 56 104c39 38 62 76 62 126c0 61 -46 104 -108 104c-40 0 -72 -20 -91 -55
c-10 -20 -16 -48 -16 -80v-571h-109v33h72v350h-77v33h77v152c0 43 9 78 25 105c26 43 70 66 122 66c81 0 143 -56 143 -137c0 -61 -29 -105 -69 -144c-33 -33 -50 -55 -50 -86c0 -39 35 -65 86 -96c59 -35 111 -78 111 -150c0 -79 -60 -134 -151 -134z" />
    <glyph glyph-name="zero" unicode="0" horiz-adv-x="525" 
d="M263 -8c-127 0 -216 111 -216 258c0 146 89 257 216 257c126 0 215 -111 215 -257c0 -147 -89 -258 -215 -258zM263 26c105 0 176 94 176 224c0 128 -72 223 -176 223c-105 0 -176 -94 -176 -223c0 -130 71 -224 176 -224z" />
    <glyph glyph-name="one" unicode="1" horiz-adv-x="378" 
d="M63 0v33h119v427l-111 -32l-8 33l143 41h15v-469h118v-33h-276z" />
    <glyph glyph-name="two" unicode="2" horiz-adv-x="463" 
d="M218 473c-49 0 -92 -22 -113 -52c-4 -6 -7 -12 -9 -18c16 -4 27 -17 27 -32c0 -18 -14 -33 -31 -33c-21 0 -35 17 -35 43c0 17 5 35 16 52c26 41 82 74 147 74c107 0 164 -64 164 -138c0 -80 -63 -127 -138 -177c-61 -40 -124 -88 -159 -159h278v93h35v-126h-356l-4 16
c39 98 117 155 189 204c69 47 117 83 117 149c0 60 -45 104 -128 104z" />
    <glyph glyph-name="three" unicode="3" horiz-adv-x="470" 
d="M42 -4c0 25 16 43 37 43c17 0 30 -14 30 -30c0 -14 -10 -28 -28 -33c3 -8 8 -15 13 -21c24 -27 70 -46 130 -46c95 0 155 62 155 136c0 56 -31 96 -81 119c-32 15 -72 22 -116 22h-17v34h19c44 0 85 11 118 30c41 25 67 62 67 107c0 67 -53 115 -140 115
c-55 0 -97 -20 -119 -48c-4 -6 -8 -14 -10 -21c16 -4 27 -19 27 -32c0 -19 -15 -31 -31 -31c-19 0 -36 17 -36 42c0 17 6 35 17 52c28 42 85 73 154 73c109 0 176 -72 176 -150c0 -58 -35 -105 -87 -131c-19 -10 -40 -18 -63 -21c21 -3 42 -10 61 -18c59 -25 99 -74 99 -140
c0 -102 -84 -172 -194 -172c-72 0 -135 28 -164 70c-11 15 -17 33 -17 51z" />
    <glyph glyph-name="four" unicode="4" horiz-adv-x="474" 
d="M306 -120v189h-287l-5 13l311 424l28 -21l-280 -383h233v175l35 15v-190h119v-33h-119v-189h-35z" />
    <glyph glyph-name="five" unicode="5" horiz-adv-x="454" 
d="M70 -77c-18 17 -28 36 -28 56s14 40 35 40c17 0 31 -12 31 -30c0 -12 -8 -26 -22 -31c3 -5 7 -9 15 -16c25 -20 61 -34 114 -34c91 0 159 65 159 159c0 93 -64 153 -162 153c-49 0 -94 -11 -132 -28l-16 10l33 297h282v-36h-250l-27 -230c33 13 71 20 111 20
c116 0 200 -70 200 -186c0 -112 -87 -192 -197 -192c-62 0 -116 19 -146 48z" />
    <glyph glyph-name="six" unicode="6" horiz-adv-x="501" 
d="M287 599c-100 0 -193 -107 -196 -330c23 61 92 112 171 112c113 0 193 -84 193 -189c0 -111 -83 -200 -195 -200c-57 0 -107 21 -142 56c-44 45 -63 112 -63 208c0 269 122 377 235 377c47 0 89 -17 114 -43c15 -16 23 -34 23 -51c0 -29 -17 -43 -36 -43s-30 14 -30 31
c0 15 7 25 18 31c-15 26 -48 41 -92 41zM260 26c92 0 156 71 156 166c0 89 -60 155 -154 155c-97 0 -164 -78 -164 -161c0 -43 15 -84 45 -114c28 -28 68 -46 117 -46z" />
    <glyph glyph-name="seven" unicode="7" horiz-adv-x="426" 
d="M133 -121l-34 14l249 574h-277v-106h-35v138h355l6 -13z" />
    <glyph glyph-name="eight" unicode="8" horiz-adv-x="477" 
d="M238 -8c-109 0 -192 73 -192 172c0 75 55 137 129 158c-70 24 -116 85 -116 145c0 96 78 166 179 166c102 0 179 -69 179 -166c0 -63 -47 -121 -116 -145c73 -20 130 -82 130 -158c0 -98 -84 -172 -193 -172zM238 338c79 0 141 55 141 130c0 72 -60 132 -141 132
c-80 0 -140 -59 -140 -132c0 -75 62 -130 140 -130zM238 25c87 0 152 60 152 140c0 82 -68 140 -152 140s-151 -58 -151 -140c0 -80 66 -140 151 -140z" />
    <glyph glyph-name="nine" unicode="9" horiz-adv-x="501" 
d="M206 -125c-48 0 -91 17 -116 44c-15 16 -22 33 -22 50c0 28 17 43 35 43c19 0 31 -14 31 -31c0 -15 -7 -24 -18 -31c15 -25 47 -42 93 -42c107 0 201 105 201 322c-1 -1 -1 -1 -1 -2c-23 -61 -90 -109 -170 -109c-113 0 -193 81 -193 187c0 109 84 200 196 200
c57 0 106 -21 141 -57c44 -44 64 -111 64 -207c0 -271 -126 -367 -241 -367zM357 427c-28 28 -67 45 -115 45c-93 0 -157 -72 -157 -166c0 -90 61 -153 154 -153c98 0 165 76 165 159c0 43 -16 85 -47 115z" />
    <glyph glyph-name="zero.lin" horiz-adv-x="606" 
d="M302 -11c-138 0 -243 136 -243 340c0 205 107 340 245 340s244 -136 244 -340c0 -205 -107 -340 -246 -340zM303 25c121 0 203 125 203 304s-83 304 -203 304s-203 -125 -203 -304s83 -304 203 -304z" />
    <glyph glyph-name="one.lin" horiz-adv-x="394" 
d="M46 0v35h139v582l-134 -35l-9 37l167 44h17v-628h137v-35h-317z" />
    <glyph glyph-name="two.lin" horiz-adv-x="531" 
d="M67 518c0 17 5 37 15 56c28 51 91 95 178 95c110 0 194 -75 194 -172c0 -101 -64 -156 -161 -226c-91 -66 -167 -136 -195 -236h328v120h39v-155h-406l-10 17c34 135 127 214 221 283c85 63 142 112 142 197c0 76 -66 136 -153 136c-69 0 -120 -32 -141 -71
c-4 -8 -7 -16 -9 -22c21 -4 33 -20 33 -37c0 -20 -16 -35 -35 -35c-23 0 -40 17 -40 50z" />
    <glyph glyph-name="three.lin" horiz-adv-x="501" 
d="M236 26c111 0 170 71 170 146c0 60 -33 106 -91 131c-33 14 -73 21 -119 21h-18v36h20c47 0 88 12 121 32c43 26 70 67 70 114c0 74 -55 126 -151 126c-61 0 -108 -24 -130 -53c-4 -6 -8 -11 -10 -16c15 -4 28 -16 28 -35s-15 -34 -33 -34c-20 0 -38 18 -38 45
c0 16 5 32 15 49c28 46 90 81 171 81c112 0 189 -70 189 -163c0 -59 -34 -108 -88 -138c-20 -10 -41 -19 -65 -24c24 -4 46 -9 65 -18c66 -28 104 -82 104 -152c0 -106 -85 -184 -211 -184c-73 0 -144 29 -177 74c-12 17 -19 37 -19 56c0 26 16 45 38 45c18 0 33 -15 33 -34
c0 -16 -12 -30 -27 -34c2 -7 7 -14 13 -21c26 -28 80 -50 140 -50z" />
    <glyph glyph-name="four.lin" horiz-adv-x="532" 
d="M202 0v35h125v167h-303l-6 14l332 455l31 -22l-303 -413h249v184l41 19v-203h119v-34h-119v-167h100v-35h-266z" />
    <glyph glyph-name="five.lin" horiz-adv-x="495" 
d="M229 25c100 0 174 73 174 176c0 97 -63 165 -172 165c-52 0 -101 -15 -139 -32l-18 10l33 314h300v-41h-267l-25 -236c29 13 64 23 118 23c121 0 212 -71 212 -202c0 -130 -100 -213 -218 -213c-67 0 -124 22 -155 54c-17 17 -26 37 -26 58c0 20 13 41 37 41
c19 0 34 -16 34 -34c0 -12 -7 -26 -21 -32c4 -6 8 -10 13 -15c24 -21 64 -36 120 -36z" />
    <glyph glyph-name="six.lin" horiz-adv-x="552" 
d="M461 566c0 -26 -14 -42 -35 -42c-20 0 -36 15 -36 35c0 14 7 24 16 30c-2 3 -5 6 -7 10c-14 18 -49 33 -91 33c-123 0 -209 -131 -210 -359c9 25 24 47 43 66c37 37 89 59 144 59c128 0 210 -87 210 -201c0 -116 -89 -208 -209 -208c-63 0 -117 22 -157 61
c-45 45 -70 119 -70 223c0 285 123 396 251 396c49 0 89 -15 116 -38c22 -18 35 -42 35 -65zM286 25c96 0 168 73 168 170c0 95 -68 167 -169 167c-96 0 -176 -75 -176 -166c0 -45 19 -89 50 -120c32 -31 76 -51 127 -51z" />
    <glyph glyph-name="seven.lin" horiz-adv-x="473" 
d="M121 0l268 623h-314v-112h-39v147h398l7 -13l-277 -645h-43z" />
    <glyph glyph-name="eight.lin" horiz-adv-x="541" 
d="M270 -11c-121 0 -213 74 -213 185c0 83 69 152 142 168c-73 21 -129 80 -129 154c0 106 91 173 200 173c110 0 200 -67 200 -173c0 -74 -55 -133 -129 -154c74 -16 143 -85 143 -168c0 -111 -93 -185 -214 -185zM270 360c92 0 160 58 160 135s-69 138 -160 138
s-159 -61 -159 -138c0 -76 69 -135 159 -135zM270 25c98 0 173 60 173 149c0 81 -76 150 -173 150s-173 -68 -173 -150c0 -89 76 -149 173 -149z" />
    <glyph glyph-name="nine.lin" horiz-adv-x="552" 
d="M85 93c0 25 15 41 36 41c20 0 35 -16 35 -35c0 -13 -8 -24 -19 -30c5 -8 13 -16 23 -22c20 -12 50 -22 88 -22c111 0 208 103 207 349v1c-4 -11 -9 -21 -14 -29c-36 -56 -101 -93 -174 -93c-128 0 -211 83 -211 206c0 120 90 210 210 210c62 0 116 -22 155 -61
c46 -46 72 -120 72 -226c0 -295 -115 -393 -247 -393c-47 0 -90 15 -120 38c-25 18 -41 42 -41 66zM267 290c96 0 176 73 176 165c0 49 -18 94 -50 126s-76 52 -127 52c-95 0 -168 -72 -168 -174c0 -99 68 -169 169 -169z" />
    <glyph glyph-name="period" unicode="." horiz-adv-x="167" 
d="M84 -8c-24 0 -41 18 -41 42c0 23 17 41 41 41c22 0 40 -18 40 -41c0 -24 -18 -42 -40 -42z" />
    <glyph glyph-name="comma" unicode="," horiz-adv-x="167" 
d="M21 -126l-9 15c49 39 69 78 70 108c-22 2 -39 19 -39 40s17 38 37 38c25 0 44 -20 44 -54c0 -52 -34 -109 -103 -147z" />
    <glyph glyph-name="colon" unicode=":" horiz-adv-x="185" 
d="M93 271c-23 0 -40 19 -40 42s17 42 40 42s40 -19 40 -42s-17 -42 -40 -42zM93 -8c-23 0 -40 18 -40 42c0 23 17 41 40 41s40 -18 40 -41c0 -24 -17 -42 -40 -42z" />
    <glyph glyph-name="semicolon" unicode=";" horiz-adv-x="185" 
d="M93 271c-23 0 -40 19 -40 42s17 42 40 42s40 -19 40 -42s-17 -42 -40 -42zM29 -127l-10 16c51 40 70 80 72 107c-23 1 -40 19 -40 41c0 21 18 38 38 38c25 0 45 -20 45 -55c0 -48 -35 -108 -105 -147z" />
    <glyph glyph-name="ellipsis" unicode="&#x2026;" horiz-adv-x="526" 
d="M433 -8c-23 0 -40 18 -40 42c0 23 17 41 40 41s41 -18 41 -41c0 -24 -18 -42 -41 -42zM263 -8c-23 0 -40 18 -40 42c0 23 17 41 40 41s40 -18 40 -41c0 -24 -17 -42 -40 -42zM92 -8c-23 0 -40 18 -40 42c0 23 17 41 40 41s41 -18 41 -41c0 -24 -18 -42 -41 -42z" />
    <glyph glyph-name="periodcentered" unicode="&#xb7;" horiz-adv-x="247" 
d="M124 204c-24 0 -41 19 -41 42s17 41 41 41c22 0 40 -18 40 -41s-18 -42 -40 -42z" />
    <glyph glyph-name="bullet" unicode="&#x2022;" horiz-adv-x="249" 
d="M125 188c-44 0 -79 35 -79 81c0 45 35 81 79 81s78 -36 78 -81c0 -46 -34 -81 -78 -81z" />
    <glyph glyph-name="bullet.alt" horiz-adv-x="616" 
d="M308 -48c-146 0 -255 116 -255 259s109 258 255 258s255 -115 255 -258s-109 -259 -255 -259z" />
    <glyph glyph-name="ampersand" unicode="&#x26;" horiz-adv-x="587" 
d="M564 274h-60c-18 -57 -41 -107 -70 -151c34 -32 111 -105 118 -110l-24 -25l-115 108c-53 -64 -123 -103 -206 -103c-112 0 -174 70 -174 151c0 83 58 137 141 188c-51 57 -69 96 -69 145c0 72 54 140 139 140c69 0 125 -48 125 -120c0 -61 -44 -112 -142 -171
c19 -20 42 -42 68 -67c0 0 79 -78 115 -113c27 40 48 86 61 128h-61v32h154v-32zM207 27c78 0 137 38 183 92c-36 35 -119 114 -119 114c-30 28 -54 52 -75 75c-78 -49 -124 -96 -124 -165c0 -61 46 -116 135 -116zM144 476c0 -41 16 -76 61 -126c91 55 125 94 125 147
s-36 87 -86 87c-59 0 -100 -45 -100 -108z" />
    <glyph glyph-name="exclam" unicode="!" horiz-adv-x="227" 
d="M103 167l-14 491h49l-14 -491h-21zM114 -8c-23 0 -40 18 -40 40s17 41 40 41c21 0 39 -19 39 -41s-18 -40 -39 -40z" />
    <glyph glyph-name="exclamdown" unicode="&#xa1;" horiz-adv-x="227" 
d="M114 585c-23 0 -40 18 -40 40c0 23 17 41 40 41c21 0 39 -18 39 -41c0 -22 -18 -40 -39 -40zM89 0l14 491h21l14 -491h-49z" />
    <glyph glyph-name="question" unicode="?" horiz-adv-x="415" 
d="M22 528c0 24 8 47 23 68c29 42 87 72 155 72c114 0 189 -75 189 -172c0 -88 -68 -164 -183 -192l-7 -137h-21l-9 160c118 25 181 88 181 168c0 83 -59 138 -149 138c-58 0 -105 -22 -128 -57c-6 -8 -9 -18 -11 -25c22 -4 34 -19 34 -37s-16 -33 -34 -33
c-21 0 -40 19 -40 47zM190 -6c-20 -1 -38 15 -39 37c0 21 16 40 37 40c21 1 38 -16 39 -37c1 -22 -15 -40 -37 -40z" />
    <glyph glyph-name="questiondown" unicode="&#xbf;" horiz-adv-x="415" 
d="M394 130c0 -23 -8 -47 -23 -67c-31 -43 -88 -72 -156 -72c-114 0 -189 74 -189 172c0 87 67 163 183 191l7 138h21l9 -161c-118 -25 -181 -88 -181 -167c0 -84 59 -139 149 -139c58 0 104 23 128 58c5 8 9 18 11 25c-22 3 -34 18 -34 36s15 34 34 34c20 0 41 -19 41 -48z
M227 665c21 -1 37 -18 36 -40c0 -21 -18 -39 -39 -38s-37 19 -36 41c1 21 18 38 39 37z" />
    <glyph glyph-name="quotedblleft" unicode="&#x201c;" horiz-adv-x="321" 
d="M231 467c-24 0 -45 21 -45 57c0 56 37 122 106 161l10 -16c-49 -38 -71 -85 -71 -121c22 -2 40 -20 40 -41c0 -22 -18 -40 -40 -40zM83 467c-25 0 -45 21 -45 57c0 56 36 122 106 161l10 -16c-49 -38 -71 -85 -72 -121c23 -2 41 -20 41 -41c0 -22 -18 -40 -40 -40z" />
    <glyph glyph-name="quotedblright" unicode="&#x201d;" horiz-adv-x="321" 
d="M178 458l-10 16c48 38 70 85 71 121c-23 2 -41 20 -41 41c0 22 19 40 40 40c25 0 45 -21 45 -57c0 -56 -36 -122 -105 -161zM29 458l-10 16c49 38 71 85 72 121c-23 2 -41 20 -41 41c0 22 18 40 40 40c24 0 45 -21 45 -57c0 -56 -37 -122 -106 -161z" />
    <glyph glyph-name="quoteleft" unicode="&#x2018;" horiz-adv-x="172" 
d="M83 467c-25 0 -45 21 -45 57c0 56 36 122 106 161l10 -16c-49 -38 -71 -85 -72 -121c23 -2 41 -20 41 -41c0 -22 -18 -40 -40 -40z" />
    <glyph glyph-name="quoteright" unicode="&#x2019;" horiz-adv-x="172" 
d="M29 458l-10 16c49 38 71 85 72 121c-23 2 -41 20 -41 41c0 22 18 40 40 40c24 0 45 -21 45 -57c0 -56 -37 -122 -106 -161z" />
    <glyph glyph-name="quotedblbase" unicode="&#x201e;" horiz-adv-x="314" 
d="M168 -126l-9 15c50 39 69 78 71 108c-23 2 -40 19 -40 40s17 38 38 38c24 0 43 -20 43 -54c0 -52 -33 -109 -103 -147zM21 -126l-9 15c49 39 69 78 70 108c-22 2 -39 19 -39 40s17 38 37 38c25 0 44 -20 44 -54c0 -52 -34 -109 -103 -147z" />
    <glyph glyph-name="quotesinglbase" unicode="&#x201a;" horiz-adv-x="167" 
d="M21 -126l-9 15c49 39 69 78 70 108c-22 2 -39 19 -39 40s17 38 37 38c25 0 44 -20 44 -54c0 -52 -34 -109 -103 -147z" />
    <glyph glyph-name="guillemotleft" unicode="&#xab;" horiz-adv-x="419" 
d="M350 112l-164 157l164 156l23 -22l-137 -134l137 -134zM195 112l-164 157l164 156l23 -22l-138 -134l138 -134z" />
    <glyph glyph-name="guillemotright" unicode="&#xbb;" horiz-adv-x="419" 
d="M224 112l-22 23l137 134l-137 134l22 22l164 -156zM69 112l-23 23l138 134l-138 134l23 22l164 -156z" />
    <glyph glyph-name="guilsinglleft" unicode="&#x2039;" horiz-adv-x="264" 
d="M195 112l-164 157l164 156l23 -22l-138 -134l138 -134z" />
    <glyph glyph-name="guilsinglright" unicode="&#x203a;" horiz-adv-x="264" 
d="M69 112l-23 23l138 134l-138 134l23 22l164 -156z" />
    <glyph glyph-name="hyphen" unicode="-" horiz-adv-x="262" 
d="M35 254v38h192v-38h-192z" />
    <glyph glyph-name="endash" unicode="&#x2013;" horiz-adv-x="408" 
d="M20 254v38h368v-38h-368z" />
    <glyph glyph-name="emdash" unicode="&#x2014;" horiz-adv-x="681" 
d="M20 254v38h640v-38h-640z" />
    <glyph glyph-name="hyphen.lin" horiz-adv-x="262" 
d="M35 314v38h192v-38h-192z" />
    <glyph glyph-name="endash.lin" horiz-adv-x="408" 
d="M20 314v38h368v-38h-368z" />
    <glyph glyph-name="emdash.lin" horiz-adv-x="681" 
d="M20 314v38h640v-38h-640z" />
    <glyph glyph-name="underscore" unicode="_" horiz-adv-x="506" 
d="M-3 -133v38h512v-38h-512z" />
    <glyph glyph-name="slash" unicode="/" horiz-adv-x="430" 
d="M-1 -204l-34 15l410 926l34 -15z" />
    <glyph glyph-name="backslash" unicode="\" horiz-adv-x="430" 
d="M431 -204l-410 926l35 15l410 -926z" />
    <glyph glyph-name="bar" unicode="|" horiz-adv-x="250" 
d="M107 -200v932h36v-932h-36z" />
    <glyph glyph-name="parenleft" unicode="(" horiz-adv-x="321" 
d="M322 -225c-173 116 -253 309 -253 485s80 369 253 485l22 -29c-163 -111 -236 -292 -236 -456c0 -163 73 -345 236 -456z" />
    <glyph glyph-name="parenright" unicode=")" horiz-adv-x="321" 
d="M-2 -225l-21 29c162 111 235 292 235 456c0 163 -73 345 -235 456l21 29c173 -116 254 -309 254 -485s-81 -369 -254 -485z" />
    <glyph glyph-name="parenleft.lin" horiz-adv-x="321" 
d="M322 -165c-173 116 -253 309 -253 485s80 369 253 485l22 -29c-163 -111 -236 -292 -236 -456c0 -163 73 -345 236 -456z" />
    <glyph glyph-name="parenright.lin" horiz-adv-x="321" 
d="M-2 -165l-21 29c162 111 235 292 235 456c0 163 -73 345 -235 456l21 29c173 -116 254 -309 254 -485s-81 -369 -254 -485z" />
    <glyph glyph-name="bracketleft" unicode="[" horiz-adv-x="326" 
d="M107 -200v932h202v-35h-163v-862h163v-35h-202z" />
    <glyph glyph-name="bracketright" unicode="]" horiz-adv-x="326" 
d="M17 -200v35h163v862h-163v35h203v-932h-203z" />
    <glyph glyph-name="bracketleft.lin" horiz-adv-x="326" 
d="M107 -140v932h202v-35h-163v-862h163v-35h-202z" />
    <glyph glyph-name="bracketright.lin" horiz-adv-x="326" 
d="M17 -140v35h163v862h-163v35h203v-932h-203z" />
    <glyph glyph-name="braceleft" unicode="{" horiz-adv-x="313" 
d="M261 -217c-122 2 -198 68 -198 147c0 50 31 85 71 130c29 31 55 62 55 95c0 54 -53 92 -118 92h-23v35h23c65 0 118 37 118 91c0 33 -26 65 -55 95c-40 45 -71 80 -71 130c0 79 76 145 198 147v-31c-110 -5 -160 -63 -160 -116c0 -35 30 -72 64 -109
c32 -36 63 -76 63 -115c0 -44 -33 -95 -112 -110c79 -14 112 -66 112 -109c0 -40 -31 -80 -63 -115c-34 -38 -64 -75 -64 -110c0 -53 50 -111 160 -116v-31z" />
    <glyph glyph-name="braceright" unicode="}" horiz-adv-x="313" 
d="M53 -217v31c109 5 158 63 158 116c0 35 -29 72 -62 110c-33 35 -64 75 -64 115c0 43 34 95 112 109c-78 15 -112 66 -112 110c0 39 31 79 64 115c33 37 62 74 62 109c0 53 -49 111 -158 116v31c121 -2 197 -68 197 -147c0 -50 -30 -85 -71 -130c-29 -30 -55 -62 -55 -95
c0 -54 53 -91 118 -91h23v-35h-23c-65 0 -118 -38 -118 -92c0 -33 26 -64 55 -95c41 -45 71 -80 71 -130c0 -79 -76 -145 -197 -147z" />
    <glyph glyph-name="braceleft.lin" horiz-adv-x="313" 
d="M261 -157c-122 2 -198 68 -198 147c0 50 31 85 71 130c29 31 55 62 55 95c0 54 -53 92 -118 92h-23v35h23c65 0 118 37 118 91c0 33 -26 65 -55 95c-40 45 -71 80 -71 130c0 79 76 145 198 147v-31c-110 -5 -160 -63 -160 -116c0 -35 30 -72 64 -109
c32 -36 63 -76 63 -115c0 -44 -33 -95 -112 -110c79 -14 112 -66 112 -109c0 -40 -31 -80 -63 -115c-34 -38 -64 -75 -64 -110c0 -53 50 -111 160 -116v-31z" />
    <glyph glyph-name="braceright.lin" horiz-adv-x="313" 
d="M53 -157v31c109 5 158 63 158 116c0 35 -29 72 -62 110c-33 35 -64 75 -64 115c0 43 34 95 112 109c-78 15 -112 66 -112 110c0 39 31 79 64 115c33 37 62 74 62 109c0 53 -49 111 -158 116v31c121 -2 197 -68 197 -147c0 -50 -30 -85 -71 -130c-29 -30 -55 -62 -55 -95
c0 -54 53 -91 118 -91h23v-35h-23c-65 0 -118 -38 -118 -92c0 -33 26 -64 55 -95c41 -45 71 -80 71 -130c0 -79 -76 -145 -197 -147z" />
    <glyph glyph-name="at" unicode="@" horiz-adv-x="787" 
d="M322 -173c-168 0 -275 124 -275 292c0 268 196 482 422 482c171 0 275 -111 275 -278c0 -154 -82 -283 -178 -283c-61 0 -85 40 -78 86c-23 -48 -76 -89 -135 -89c-73 0 -126 50 -126 139c0 117 86 210 182 210c69 0 105 -45 112 -97l23 94h35l-55 -222
c-16 -57 -2 -92 43 -92c81 0 147 124 147 254c0 147 -91 251 -245 251c-213 0 -392 -203 -392 -456c0 -148 93 -264 245 -264c60 0 118 15 166 41l13 -24c-53 -29 -115 -44 -179 -44zM359 69c90 0 147 98 147 182c0 64 -38 103 -96 103c-82 0 -145 -81 -145 -177
c0 -66 33 -108 94 -108z" />
    <glyph glyph-name="copyright" unicode="&#xa9;" horiz-adv-x="589" 
d="M294 -9c-146 0 -252 115 -252 259s106 260 252 260s252 -116 252 -259c0 -144 -106 -260 -252 -260zM294 15c131 0 225 107 225 236s-94 235 -225 235c-130 0 -225 -107 -225 -236c0 -128 95 -235 225 -235zM303 364c-58 0 -102 -50 -102 -110c0 -56 43 -107 105 -107
c30 0 56 11 80 33l16 -19c-26 -27 -62 -39 -97 -39c-79 0 -132 61 -132 131c0 81 63 135 130 135c57 0 97 -34 97 -63c0 -13 -9 -24 -21 -24c-11 0 -19 8 -19 19c0 8 4 14 9 15c-8 14 -31 29 -66 29z" />
    <glyph glyph-name="published" unicode="&#x2117;" horiz-adv-x="589" 
d="M294 -9c-146 0 -252 115 -252 259s106 260 252 260s252 -116 252 -259c0 -144 -106 -260 -252 -260zM294 15c131 0 225 107 225 236s-94 235 -225 235c-130 0 -225 -107 -225 -236c0 -128 95 -235 225 -235zM312 211c-15 0 -30 1 -39 1v-74h37v-23h-99v23h36v218h-36v23
h101c56 0 97 -32 97 -82c0 -54 -38 -86 -97 -86zM313 234c43 0 70 24 70 62s-31 60 -71 60h-39v-121c9 0 23 -1 40 -1z" />
    <glyph glyph-name="registered.alt" horiz-adv-x="589" 
d="M294 -9c-146 0 -252 115 -252 259s106 260 252 260s252 -116 252 -259c0 -144 -106 -260 -252 -260zM294 15c131 0 225 107 225 236s-94 235 -225 235c-130 0 -225 -107 -225 -236c0 -128 95 -235 225 -235zM287 124h-97v23h36v217h-36v23h99c58 0 95 -30 95 -75
c0 -37 -24 -62 -58 -72l57 -93h33v-23h-51l-65 109h-48v-86h35v-23zM288 364h-36v-109h33c42 0 72 20 72 56c0 34 -27 53 -69 53z" />
    <glyph glyph-name="registered" unicode="&#xae;" horiz-adv-x="381" 
d="M190 336c-100 0 -174 80 -174 178c0 99 74 179 174 179s175 -80 175 -179c0 -98 -75 -178 -175 -178zM190 670c-85 0 -149 -69 -149 -155c0 -87 64 -156 149 -156s149 69 149 156c0 86 -63 155 -149 155zM120 429v21h24v136h-24v21h69c40 0 67 -19 67 -53
c0 -23 -16 -40 -36 -48l32 -56h22v-21h-38l-40 71h-29v-50h24v-21h-71zM167 519h20c27 0 45 13 45 34c0 22 -16 33 -44 33h-21v-67z" />
    <glyph glyph-name="copyright.lin" horiz-adv-x="777" 
d="M388 -10c-187 0 -330 150 -330 339c0 188 143 339 330 339c188 0 331 -150 331 -339c0 -188 -144 -339 -331 -339zM388 15c171 0 302 139 302 314s-131 314 -302 314c-170 0 -301 -139 -301 -314s131 -314 301 -314zM399 476c-77 0 -133 -65 -133 -143
c0 -74 55 -140 135 -140c41 0 75 15 105 43l18 -22c-33 -32 -77 -49 -123 -49c-101 0 -166 77 -166 167c0 100 75 172 165 172c69 0 122 -42 122 -82c0 -16 -11 -28 -26 -28c-13 0 -24 10 -24 23c0 9 7 16 14 19c-8 18 -41 40 -87 40z" />
    <glyph glyph-name="published.lin" horiz-adv-x="777" 
d="M388 -10c-187 0 -330 150 -330 339c0 188 143 339 330 339c188 0 331 -150 331 -339c0 -188 -144 -339 -331 -339zM388 15c171 0 302 139 302 314s-131 314 -302 314c-170 0 -301 -139 -301 -314s131 -314 301 -314zM405 286c-18 0 -39 1 -49 1v-95h46v-27h-120v27h43
v275h-43v27h123c69 0 121 -40 121 -102c0 -67 -48 -106 -121 -106zM406 313c56 0 89 30 89 79c0 46 -38 75 -90 75h-49v-153c11 0 31 -1 50 -1z" />
    <glyph glyph-name="registered.lin" horiz-adv-x="777" 
d="M388 -10c-187 0 -330 150 -330 339c0 188 143 339 330 339c188 0 331 -150 331 -339c0 -188 -144 -339 -331 -339zM388 15c171 0 302 139 302 314s-131 314 -302 314c-170 0 -301 -139 -301 -314s131 -314 301 -314zM339 307v-109h45v-27h-119v27h44v275h-44v27h124
c71 0 117 -37 117 -94c0 -47 -31 -80 -75 -90l74 -118h40v-27h-59l-83 136h-64zM339 334h46c51 0 90 25 90 71c0 43 -34 68 -88 68h-48v-139z" />
    <glyph glyph-name="servicemark" unicode="&#x2120;" horiz-adv-x="542" 
d="M216 413v24h37l9 197h-38v24h69l79 -173l79 173h68v-24h-38l8 -197h39v-24h-96v24h33l-7 183l-81 -176h-12l-82 176l-5 -183h33v-24h-95zM98 408c-49 0 -84 27 -84 52c0 13 8 23 19 23c12 0 19 -9 19 -18c0 -7 -3 -11 -6 -16c8 -9 27 -18 53 -18c34 0 56 18 56 45
s-26 38 -55 49c-43 15 -76 32 -76 73c0 36 32 64 78 64c41 0 75 -23 75 -49c0 -13 -8 -21 -19 -21c-12 0 -20 9 -20 19c0 5 4 9 7 13c-7 8 -26 15 -43 15c-32 0 -52 -17 -52 -40c0 -27 27 -39 58 -51c41 -14 73 -29 73 -70c0 -42 -35 -70 -83 -70z" />
    <glyph glyph-name="trademark" unicode="&#x2122;" horiz-adv-x="585" 
d="M258 413v24h37l9 197h-37v24h69l78 -173l79 173h68v-24h-38l9 -197h38v-24h-95v24h33l-7 183l-81 -176h-12l-82 176l-6 -183h33v-24h-95zM68 413v24h40v199h-72v-43h-24v65h218v-65h-26v43h-70v-199h38v-24h-104z" />
    <glyph glyph-name="asterisk" unicode="*" horiz-adv-x="364" 
d="M291 567l-97 -16l69 -68c15 -14 19 -33 6 -45c-15 -12 -33 -3 -43 18l-44 88l-44 -88c-8 -20 -26 -30 -42 -19c-13 11 -11 30 6 46l69 68l-97 16c-23 3 -36 17 -30 34c5 17 26 18 44 9l87 -45l-16 97c-4 23 6 39 23 39s27 -16 22 -39l-15 -97l88 45c17 10 39 7 44 -9
c5 -17 -7 -31 -30 -34z" />
    <glyph glyph-name="dagger" unicode="&#x2020;" horiz-adv-x="418" 
d="M198 -2l-7 400l-103 11c2 -26 -14 -44 -35 -44c-22 0 -34 17 -34 35c0 23 15 41 45 41c6 0 16 -1 25 -3l110 -22l-17 166c-4 34 4 52 27 52s31 -18 27 -52l-17 -166l110 22c9 2 19 3 26 3c29 0 44 -18 44 -41c0 -18 -12 -35 -35 -35c-20 0 -36 18 -35 44l-102 -11
l-8 -400h-21z" />
    <glyph glyph-name="daggerdbl" unicode="&#x2021;" horiz-adv-x="418" 
d="M209 -124c-23 0 -31 19 -27 53l15 135l-96 -20c-9 -2 -19 -4 -26 -4c-28 0 -45 19 -45 42c0 16 13 34 35 34c21 0 37 -18 35 -43l90 10l10 172l-10 173l-90 10c2 -26 -14 -43 -35 -43c-22 0 -35 17 -35 34c0 22 17 41 45 41c7 0 17 -1 26 -3l96 -20l-15 135
c-4 34 4 52 27 52s31 -19 26 -52l-15 -135l97 20c9 2 19 3 26 3c28 0 45 -19 45 -41c0 -17 -13 -34 -36 -34c-20 0 -36 17 -35 43l-89 -10l-10 -173l10 -172l89 -10c-1 25 15 43 35 43c23 0 36 -18 36 -34c0 -23 -17 -42 -45 -42c-7 0 -17 2 -26 4l-97 20l15 -135
c5 -34 -3 -53 -26 -53z" />
    <glyph glyph-name="asciicircum" unicode="^" horiz-adv-x="424" 
d="M94 383l-17 19l135 127l135 -127l-17 -19l-118 89z" />
    <glyph glyph-name="asciitilde" unicode="~" horiz-adv-x="408" 
d="M273 202c-32 0 -54 15 -81 37c-25 19 -39 28 -56 28c-26 0 -42 -21 -51 -59l-31 7c7 51 39 91 81 91c33 0 54 -15 82 -37c24 -20 38 -28 55 -28c26 0 42 21 51 58l31 -7c-7 -50 -39 -90 -81 -90z" />
    <glyph glyph-name="dollar" unicode="$" horiz-adv-x="432" 
d="M260 568l-6 -72c74 -8 124 -45 124 -84c0 -21 -12 -33 -29 -33c-16 0 -31 12 -31 30c0 9 4 19 11 26c-11 13 -41 26 -77 31l-15 -196c80 -27 148 -58 148 -140c0 -84 -72 -129 -168 -130l-8 -104l-31 2l8 103c-80 7 -144 46 -144 96c0 20 13 35 30 35c20 0 31 -14 31 -31
c0 -10 -5 -20 -13 -26c11 -19 47 -38 98 -44l16 214c-74 26 -140 53 -140 130c0 72 68 123 159 123l6 73zM349 131c0 57 -49 82 -114 104l-16 -205c79 1 130 40 130 101zM99 375c0 -52 49 -75 108 -95l14 188c-71 -1 -122 -36 -122 -93z" />
    <glyph glyph-name="dollar.lin" horiz-adv-x="544" 
d="M220 -94l8 97c-110 14 -177 76 -177 125c0 29 16 45 36 45c19 0 34 -13 34 -33c0 -16 -7 -29 -19 -38c16 -28 65 -57 129 -66l26 290c-95 33 -170 74 -170 169c0 94 77 163 198 162l8 89l35 -3l-8 -88c90 -11 154 -66 154 -118c0 -27 -16 -41 -34 -41
c-20 0 -36 14 -36 35c0 14 8 27 18 36c-14 25 -56 47 -105 54l-23 -269c105 -37 193 -75 193 -179c0 -111 -98 -176 -224 -172l-8 -99zM448 170c0 80 -63 112 -157 144l-25 -281c110 -2 182 52 182 137zM126 498c0 -72 53 -106 134 -135l22 261c-95 1 -156 -55 -156 -126z
" />
    <glyph glyph-name="sterling" unicode="&#xa3;" horiz-adv-x="444" 
d="M334 133h-166c1 -11 2 -23 2 -36c0 -61 -25 -106 -58 -140c34 -1 75 -11 105 -22c42 -15 67 -19 95 -19c47 0 73 18 94 56l28 -16c-25 -48 -63 -74 -121 -74c-32 0 -65 7 -106 23c-33 12 -67 21 -103 21c-6 0 -11 0 -16 -1c-19 -29 -45 -41 -64 -41c-16 0 -29 9 -29 22
c0 23 25 47 80 50c37 38 59 86 59 141c0 13 -1 25 -2 36h-96v32h89l-11 38c-11 36 -23 73 -23 130c0 90 63 173 168 173c84 0 144 -50 144 -98c0 -29 -17 -41 -33 -41c-17 0 -30 12 -30 31c0 14 9 26 17 30c-11 24 -42 45 -98 45c-84 0 -132 -69 -132 -140
c0 -54 11 -89 23 -124c4 -15 9 -29 12 -44h172v-32z" />
    <glyph glyph-name="sterling.lin" horiz-adv-x="535" 
d="M42 19c0 22 25 49 87 50c34 41 54 95 54 152c0 13 -1 28 -4 42h-105v34h98c-4 16 -10 32 -14 47c-16 45 -30 90 -30 144c0 100 75 179 176 179c98 0 158 -58 158 -111c0 -28 -17 -41 -35 -41c-19 0 -34 14 -34 34c0 14 10 28 18 34c-13 27 -51 49 -108 49
c-79 0 -136 -65 -136 -144c0 -47 13 -90 27 -133c6 -20 12 -39 16 -58h172v-34h-165c2 -14 3 -28 3 -42c0 -66 -25 -121 -55 -151c31 -1 71 -11 106 -21c46 -15 75 -23 111 -23c49 0 74 23 90 70l32 -14c-17 -58 -56 -92 -121 -92c-43 0 -76 9 -124 25
c-37 12 -73 23 -117 23c-21 -33 -48 -47 -69 -47c-19 0 -31 11 -31 28z" />
    <glyph glyph-name="Euro" unicode="&#x20ac;" horiz-adv-x="553" 
d="M33 293v31h67c31 111 125 181 230 181c100 0 179 -63 179 -123c0 -23 -15 -40 -36 -40c-15 0 -29 12 -29 29c0 13 9 26 22 30c-10 31 -60 71 -136 71c-90 0 -163 -61 -191 -148h209v-31h-217c-3 -16 -4 -32 -4 -48c0 -15 1 -30 4 -44h217v-31h-210
c27 -84 100 -145 195 -145c59 0 110 22 155 63l22 -27c-49 -46 -112 -70 -177 -70c-118 0 -206 76 -234 179h-66v31h59c-2 14 -3 28 -3 43c0 17 1 33 4 49h-60z" />
    <glyph glyph-name="Euro.lin" horiz-adv-x="695" 
d="M27 382v35h100c33 155 146 250 287 250c123 1 214 -83 214 -161c0 -25 -15 -47 -39 -47c-20 0 -35 17 -35 35s12 33 30 38c-10 41 -78 99 -171 99c-122 0 -216 -81 -245 -214h268v-35h-274c-2 -18 -3 -38 -3 -57c0 -22 1 -42 4 -62h273v-35h-267
c28 -121 110 -202 234 -202c81 0 142 29 194 80l25 -27c-54 -55 -126 -89 -219 -89c-145 0 -245 97 -275 238h-101v35h95c-3 19 -4 40 -4 61c0 20 1 39 3 58h-94z" />
    <glyph glyph-name="yen" unicode="&#xa5;" horiz-adv-x="471" 
d="M76 230v31h124l-127 205h-61v33h164v-33h-64l124 -205l124 205h-65v33h164v-33h-62l-127 -205h125v-31h-143v-77h143v-31h-143v-90h82v-32h-198v32h83v90h-143v31h143v77h-143z" />
    <glyph glyph-name="yen.lin" horiz-adv-x="635" 
d="M195 0v35h102v118h-172v34h172v84h-172v33h154l-187 319h-75v35h204v-35h-82l179 -315l178 315h-82v35h203v-35h-76l-186 -319h154v-33h-172v-84h172v-34h-172v-118h102v-35h-244z" />
    <glyph glyph-name="cent" unicode="&#xa2;" horiz-adv-x="462" 
d="M422 348c0 -20 -14 -41 -37 -41c-14 0 -28 9 -28 30c0 11 8 26 24 31c-12 32 -54 57 -102 63l-33 -363c9 -1 18 -1 28 -1c50 0 94 15 139 44l-3 -37c-39 -27 -93 -39 -138 -39c-10 0 -19 0 -28 1l-12 -140l-32 3l12 143c-98 22 -168 100 -168 204c0 120 94 214 206 218
l9 108l32 -2l-9 -108c80 -9 140 -63 140 -114zM82 246c0 -88 53 -152 134 -172l31 357c-85 -5 -165 -75 -165 -185z" />
    <glyph glyph-name="cent.lin" horiz-adv-x="468" 
d="M194 -15l13 146c-100 23 -168 101 -168 206c0 123 93 214 206 218l10 115l34 -2l-10 -115c79 -10 139 -63 139 -114c0 -21 -14 -43 -38 -43c-14 0 -30 9 -30 30c0 11 9 27 25 33c-11 31 -51 56 -99 62l-33 -361c9 -1 18 -1 28 -1c45 0 91 14 138 46l-3 -39
c-39 -26 -92 -41 -138 -41c-9 0 -18 0 -27 1l-13 -144zM80 336c0 -86 51 -149 130 -170l32 355c-87 -5 -162 -73 -162 -185z" />
    <glyph glyph-name="numbersign" unicode="#" horiz-adv-x="487" 
d="M48 334v33h105l21 132h33l-21 -132h149l21 132h33l-21 -132h101v-33h-106l-25 -163h100v-33h-105l-21 -138h-34l21 138h-148l-21 -138h-34l21 138h-100v33h105l26 163h-100zM182 334l-26 -163h148l26 163h-148z" />
    <glyph glyph-name="numbersign.lin" horiz-adv-x="550" 
d="M57 429v31h131l31 198h35l-31 -198h143l31 198h34l-31 -198h132v-31h-137l-31 -207h128v-31h-133l-29 -191h-35l30 191h-143l-30 -191h-34l29 191h-130v31h135l32 207h-127zM218 429l-32 -207h143l32 207h-143z" />
    <glyph glyph-name="paragraph" unicode="&#xb6;" horiz-adv-x="527" 
d="M206 0v32h79v159c-17 -1 -46 -1 -75 -1c-102 0 -177 60 -177 157c0 89 78 152 180 152h276v-33h-75v-433h75v-33h-283zM321 32h58v435h-58v-435z" />
    <glyph glyph-name="paragraph.lin" horiz-adv-x="636" 
d="M256 0v35h93v212c-20 -1 -38 -1 -73 -1c-143 0 -237 81 -237 208c0 124 104 204 241 204h308v-35h-87v-588h87v-35h-332zM389 34h71v590h-71v-590z" />
    <glyph glyph-name="section" unicode="&#xa7;" horiz-adv-x="436" 
d="M226 506c75 0 133 -34 133 -75c0 -18 -10 -32 -28 -32s-29 12 -29 30c0 7 2 14 6 20c-11 13 -46 25 -82 25c-60 0 -98 -24 -98 -58c0 -35 29 -49 112 -71c76 -20 133 -43 133 -99c0 -43 -36 -72 -87 -86c40 -17 63 -40 63 -78c0 -51 -56 -92 -137 -92
c-77 0 -135 35 -135 75c0 17 11 32 28 32c18 0 30 -12 30 -30c0 -7 -2 -14 -7 -19c12 -15 46 -26 83 -26c59 0 98 24 98 57c0 36 -29 50 -112 72c-76 20 -134 43 -134 97c0 42 34 73 86 88c-40 17 -61 40 -61 78c0 50 55 92 138 92zM216 182l35 -9c48 13 83 36 83 69
c0 37 -35 53 -114 73l-34 9c-50 -14 -83 -39 -83 -70c0 -37 34 -53 113 -72z" />
    <glyph glyph-name="section.lin" horiz-adv-x="525" 
d="M113 123c20 0 34 -12 34 -33c0 -9 -3 -19 -10 -27c14 -20 63 -38 115 -38c80 0 136 33 136 81s-35 67 -151 97c-97 25 -175 55 -175 126c0 54 44 96 120 119c-56 22 -86 50 -86 101c0 68 74 119 175 119c49 0 90 -12 119 -28c34 -18 54 -43 54 -68c0 -21 -15 -37 -34 -37
s-34 13 -34 33c0 10 3 20 11 28c-5 6 -12 11 -23 17c-23 12 -56 20 -92 20c-80 0 -136 -33 -136 -82c0 -48 37 -66 151 -96c96 -25 175 -54 175 -126c0 -57 -47 -98 -119 -119c54 -21 85 -48 85 -100c0 -70 -73 -120 -176 -120c-64 0 -114 21 -144 47c-18 16 -27 32 -27 50
c0 20 13 36 32 36zM265 423l-47 12c-76 -21 -114 -56 -114 -102c0 -47 46 -71 155 -98l46 -12c70 20 115 53 115 102c0 48 -47 71 -155 98z" />
    <glyph glyph-name="ordfeminine" unicode="&#xaa;" horiz-adv-x="321" 
d="M121 409c-52 0 -84 32 -84 72c0 45 40 76 95 76c28 0 60 -7 76 -13v37c0 23 -6 38 -18 48c-11 10 -29 15 -50 15c-26 0 -41 -7 -49 -15c3 -4 4 -9 4 -15c0 -12 -8 -21 -21 -21s-22 10 -22 23c0 24 33 53 90 53c27 0 49 -6 65 -17c19 -14 30 -37 30 -66v-147h42v-25h-70
v36c-20 -21 -53 -41 -88 -41zM43 315v27h236v-27h-236zM126 434c33 0 62 18 82 41v48c-20 7 -47 12 -74 12c-45 0 -67 -23 -67 -52c0 -26 20 -49 59 -49z" />
    <glyph glyph-name="ordmasculine" unicode="&#xba;" horiz-adv-x="337" 
d="M56 315v27h225v-27h-225zM169 410c-75 0 -128 57 -128 130c0 72 53 130 128 130s127 -56 127 -130c0 -73 -52 -130 -127 -130zM169 435c57 0 97 45 97 105s-40 105 -97 105s-98 -45 -98 -105s41 -105 98 -105z" />
    <glyph glyph-name="ordfeminine.lin" horiz-adv-x="321" 
d="M121 481c-52 0 -84 32 -84 72c0 45 40 76 95 76c28 0 60 -7 76 -13v37c0 23 -6 38 -18 48c-11 10 -29 15 -50 15c-26 0 -41 -7 -49 -15c3 -4 4 -9 4 -15c0 -12 -8 -21 -21 -21s-22 10 -22 23c0 24 33 53 90 53c27 0 49 -6 65 -17c19 -14 30 -37 30 -66v-147h42v-25h-70
v36c-20 -21 -53 -41 -88 -41zM43 387v27h236v-27h-236zM126 506c33 0 62 18 82 41v48c-20 7 -47 12 -74 12c-45 0 -67 -23 -67 -52c0 -26 20 -49 59 -49z" />
    <glyph glyph-name="ordmasculine.lin" horiz-adv-x="337" 
d="M56 387v27h225v-27h-225zM169 482c-75 0 -128 57 -128 130c0 72 53 130 128 130s127 -56 127 -130c0 -73 -52 -130 -127 -130zM169 507c57 0 97 45 97 105s-40 105 -97 105s-98 -45 -98 -105s41 -105 98 -105z" />
    <glyph glyph-name="degree" unicode="&#xb0;" horiz-adv-x="283" 
d="M142 422c-71 0 -121 56 -121 123s50 123 121 123c69 0 119 -55 119 -123c0 -67 -50 -123 -119 -123zM142 449c52 0 87 42 87 96s-35 96 -87 96c-53 0 -89 -42 -89 -96s36 -96 89 -96z" />
    <glyph glyph-name="degree.lin" horiz-adv-x="283" 
d="M142 493c-71 0 -121 56 -121 123s50 123 121 123c69 0 119 -55 119 -123c0 -67 -50 -123 -119 -123zM142 520c52 0 87 42 87 96s-35 96 -87 96c-53 0 -89 -42 -89 -96s36 -96 89 -96z" />
    <glyph glyph-name="percent" unicode="%" horiz-adv-x="607" 
d="M443 223c62 0 110 -52 110 -115s-48 -115 -110 -115c-63 0 -111 52 -111 115s48 115 111 115zM164 277c-62 0 -110 52 -110 114c0 64 48 115 110 115c63 0 111 -51 111 -115c0 -62 -48 -114 -111 -114zM164 307c46 0 77 39 77 84c0 47 -31 86 -77 86
c-45 0 -76 -39 -76 -86c0 -45 31 -84 76 -84zM443 193c-46 0 -77 -39 -77 -85s31 -85 77 -85c45 0 76 39 76 85s-31 85 -76 85zM119 -21l-26 19l193 251l193 253l26 -18l-194 -253c-37 -48 -189 -247 -192 -252z" />
    <glyph glyph-name="perthousand" unicode="&#x2030;" horiz-adv-x="864" 
d="M443 -7c-63 0 -111 52 -111 115s48 115 111 115c62 0 110 -52 110 -115s-48 -115 -110 -115zM700 -7c-63 0 -111 52 -111 115s48 115 111 115c62 0 110 -52 110 -115s-48 -115 -110 -115zM164 277c-62 0 -110 52 -110 114c0 64 48 115 110 115c63 0 111 -51 111 -115
c0 -62 -48 -114 -111 -114zM164 307c46 0 77 39 77 84c0 47 -31 86 -77 86c-45 0 -76 -39 -76 -86c0 -45 31 -84 76 -84zM443 23c45 0 76 39 76 85s-31 85 -76 85c-46 0 -77 -39 -77 -85s31 -85 77 -85zM700 23c45 0 76 39 76 85s-31 85 -76 85s-77 -39 -77 -85
s32 -85 77 -85zM119 -21l-26 19l193 251l193 253l26 -18l-194 -253c-37 -48 -189 -247 -192 -252z" />
    <glyph glyph-name="percent.lin" horiz-adv-x="628" 
d="M32 525c0 79 59 143 137 143s138 -64 138 -143s-60 -142 -138 -142s-137 63 -137 142zM322 133c0 79 58 142 137 142c78 0 137 -63 137 -142s-59 -143 -137 -143c-79 0 -137 64 -137 143zM358 133c0 -61 42 -111 101 -111s101 50 101 111c0 60 -42 111 -101 111
s-101 -51 -101 -111zM68 525c0 -60 43 -111 101 -111c60 0 101 51 101 111c0 61 -42 111 -101 111s-101 -50 -101 -111zM101 -7l-28 19l226 325c43 62 224 322 229 328l28 -18c-5 -7 -185 -267 -229 -329c-43 -60 -223 -320 -226 -325z" />
    <glyph glyph-name="perthousand.lin" horiz-adv-x="953" 
d="M32 525c0 79 59 143 137 143s138 -64 138 -143s-60 -142 -138 -142s-137 63 -137 142zM322 133c0 79 58 142 137 142c78 0 137 -63 137 -142s-59 -143 -137 -143c-79 0 -137 64 -137 143zM647 133c0 79 59 142 137 142s137 -63 137 -142s-59 -143 -137 -143
s-137 64 -137 143zM358 133c0 -61 42 -111 101 -111s101 50 101 111c0 60 -42 111 -101 111s-101 -51 -101 -111zM683 133c0 -61 42 -111 101 -111s101 50 101 111c0 60 -42 111 -101 111s-101 -51 -101 -111zM68 525c0 -60 43 -111 101 -111c60 0 101 51 101 111
c0 61 -42 111 -101 111s-101 -50 -101 -111zM101 -7l-28 19l226 325c43 62 224 322 229 328l28 -18c-5 -7 -185 -267 -229 -329c-43 -60 -223 -320 -226 -325z" />
    <glyph glyph-name="quotedbl" unicode="&#x22;" horiz-adv-x="267" 
d="M191 466l-21 155c-4 29 7 47 29 47c21 0 33 -17 28 -47l-21 -155h-15zM60 466l-21 155c-4 29 8 47 29 47c22 0 33 -17 28 -47l-21 -155h-15z" />
    <glyph glyph-name="quotesingle" unicode="'" horiz-adv-x="137" 
d="M60 466l-21 155c-4 29 8 47 29 47c22 0 33 -17 28 -47l-21 -155h-15z" />
    <glyph glyph-name="quotedbl.lin" horiz-adv-x="267" 
d="M191 538l-21 155c-4 29 7 47 29 47c21 0 33 -17 28 -47l-21 -155h-15zM60 538l-21 155c-4 29 8 47 29 47c22 0 33 -17 28 -47l-21 -155h-15z" />
    <glyph glyph-name="quotesingle.lin" horiz-adv-x="137" 
d="M60 538l-21 155c-4 29 8 47 29 47c22 0 33 -17 28 -47l-21 -155h-15z" />
    <glyph glyph-name="plus" unicode="+" horiz-adv-x="390" 
d="M177 109v137h-135v35h135v137h36v-137h135v-35h-135v-137h-36z" />
    <glyph glyph-name="plus.lin" horiz-adv-x="390" 
d="M177 181v137h-135v35h135v137h36v-137h135v-35h-135v-137h-36z" />
    <glyph glyph-name="minus" unicode="&#x2212;" horiz-adv-x="390" 
d="M42 246v35h306v-35h-306z" />
    <glyph glyph-name="minus.lin" horiz-adv-x="390" 
d="M42 318v35h306v-35h-306z" />
    <glyph glyph-name="divide" unicode="&#xf7;" horiz-adv-x="390" 
d="M348 246h-306v35h306v-35zM195 354c-19 0 -34 15 -34 34s15 35 34 35c18 0 33 -16 33 -35s-15 -34 -33 -34zM195 104c-19 0 -34 16 -34 35s15 34 34 34c18 0 33 -15 33 -34s-15 -35 -33 -35z" />
    <glyph glyph-name="divide.lin" horiz-adv-x="390" 
d="M348 318h-306v35h306v-35zM195 426c-19 0 -34 15 -34 34s15 35 34 35c18 0 33 -16 33 -35s-15 -34 -33 -34zM195 176c-19 0 -34 16 -34 35s15 34 34 34c18 0 33 -15 33 -34s-15 -35 -33 -35z" />
    <glyph glyph-name="equal" unicode="=" horiz-adv-x="390" 
d="M42 307v35h306v-35h-306zM42 165v34h306v-34h-306z" />
    <glyph glyph-name="equal.lin" horiz-adv-x="390" 
d="M42 379v35h306v-35h-306zM42 237v34h306v-34h-306z" />
    <glyph glyph-name="multiply" unicode="&#xd7;" horiz-adv-x="390" 
d="M308 125l-114 114l-112 -113l-25 24l113 113l-113 113l25 26l113 -114l113 113l24 -25l-113 -112l114 -114z" />
    <glyph glyph-name="multiply.lin" horiz-adv-x="390" 
d="M308 197l-114 114l-112 -113l-25 24l113 113l-113 113l25 26l113 -114l113 113l24 -25l-113 -112l114 -114z" />
    <glyph glyph-name="less" unicode="&#x3c;" horiz-adv-x="370" 
d="M283 90l-239 157v14l239 157l19 -28l-207 -136l207 -136z" />
    <glyph glyph-name="less.lin" horiz-adv-x="370" 
d="M283 162l-239 157v14l239 157l19 -28l-207 -136l207 -136z" />
    <glyph glyph-name="greater" unicode="&#x3e;" horiz-adv-x="370" 
d="M87 90l-19 28l207 136l-207 136l19 28l239 -157v-14z" />
    <glyph glyph-name="greater.lin" horiz-adv-x="370" 
d="M87 162l-19 28l207 136l-207 136l19 28l239 -157v-14z" />
    <glyph glyph-name="plusminus" unicode="&#xb1;" horiz-adv-x="390" 
d="M177 150v138h-135v34h135v137h36v-137h135v-34h-135v-138h-36zM42 46v35h306v-35h-306z" />
    <glyph glyph-name="plusminus.lin" horiz-adv-x="390" 
d="M177 222v138h-135v34h135v137h36v-137h135v-34h-135v-138h-36zM42 118v35h306v-35h-306z" />
    <glyph glyph-name="onehalf" unicode="&#xbd;" horiz-adv-x="795" 
d="M498 -1l-9 15c22 72 75 119 127 153c49 33 82 59 82 103c0 40 -36 70 -82 70c-49 0 -79 -26 -83 -43c10 -4 17 -13 17 -23c0 -14 -11 -25 -24 -25c-17 0 -27 12 -27 33c0 39 44 86 118 86c64 0 115 -41 115 -98s-41 -87 -97 -124c-49 -32 -92 -72 -108 -120h181v63h30
v-90h-240zM220 -11l-25 14c33 55 124 203 196 323c52 85 183 301 196 321l24 -14l-196 -323zM55 281v29h100v300l-97 -24l-7 29l120 30h16v-335h98v-29h-230z" />
    <glyph glyph-name="onethird" unicode="&#x2153;" horiz-adv-x="795" 
d="M618 -7c-63 0 -124 34 -124 77c0 17 11 30 26 30c14 0 23 -11 23 -24c0 -9 -5 -17 -12 -21c7 -14 43 -35 87 -35c57 0 96 34 96 75c0 47 -42 77 -113 78h-21v28h22c59 0 103 31 103 74c0 40 -36 64 -85 64c-42 0 -70 -16 -78 -32c6 -3 12 -10 12 -20
c0 -13 -10 -24 -23 -24s-26 11 -26 30c0 33 43 74 116 74c69 0 117 -40 117 -91c0 -43 -42 -80 -91 -88c57 -8 100 -46 100 -93c0 -58 -54 -102 -129 -102zM221 -11l-25 14c33 55 124 203 196 323c52 85 183 301 196 321l24 -14l-196 -323zM59 281v29h100v300l-97 -24l-7 29
l120 30h16v-335h98v-29h-230z" />
    <glyph glyph-name="twothirds" unicode="&#x2154;" horiz-adv-x="795" 
d="M60 281l-9 15c22 72 75 119 127 153c49 33 82 59 82 103c0 40 -36 70 -82 70c-49 0 -79 -26 -83 -43c10 -4 17 -13 17 -23c0 -14 -11 -25 -24 -25c-17 0 -27 12 -27 33c0 39 44 86 118 86c64 0 115 -41 115 -98s-41 -87 -97 -124c-49 -32 -92 -72 -108 -120h181v63h30
v-90h-240zM621 -7c-63 0 -124 34 -124 77c0 17 11 30 26 30c14 0 23 -11 23 -24c0 -9 -5 -17 -12 -21c7 -14 43 -35 87 -35c57 0 96 34 96 75c0 47 -42 77 -113 78h-21v28h22c59 0 103 31 103 74c0 40 -36 64 -85 64c-42 0 -70 -16 -78 -32c6 -3 12 -10 12 -20
c0 -13 -10 -24 -23 -24s-26 11 -26 30c0 33 43 74 116 74c69 0 117 -40 117 -91c0 -43 -42 -80 -91 -88c57 -8 100 -46 100 -93c0 -58 -54 -102 -129 -102zM234 -11l-25 14c33 55 124 203 196 323c52 85 183 301 196 321l24 -14l-196 -323z" />
    <glyph glyph-name="onequarter" unicode="&#xbc;" horiz-adv-x="795" 
d="M575 -1v27h68v81h-177l-6 13l194 248l24 -18l-173 -217h138v90l30 13v-103h65v-26h-65v-81h53v-27h-151zM233 -11l-25 14c33 55 124 203 196 323c52 85 183 301 196 321l24 -14l-196 -323zM62 281v29h100v300l-97 -24l-7 29l120 30h16v-335h98v-29h-230z" />
    <glyph glyph-name="threequarters" unicode="&#xbe;" horiz-adv-x="795" 
d="M189 275c-63 0 -124 34 -124 77c0 17 11 30 26 30c14 0 23 -11 23 -24c0 -9 -5 -17 -12 -21c7 -14 43 -35 87 -35c57 0 96 34 96 75c0 47 -42 77 -113 78h-21v28h22c59 0 103 31 103 74c0 40 -36 64 -85 64c-42 0 -70 -16 -78 -32c6 -3 12 -10 12 -20
c0 -13 -10 -24 -23 -24s-26 11 -26 30c0 33 43 74 116 74c69 0 117 -40 117 -91c0 -43 -42 -80 -91 -88c57 -8 100 -46 100 -93c0 -58 -54 -102 -129 -102zM575 -1v27h68v81h-177l-6 13l194 248l24 -18l-173 -217h138v90l30 13v-103h65v-26h-65v-81h53v-27h-151zM239 -11
l-25 14c33 55 124 203 196 323c52 85 183 301 196 321l24 -14l-196 -323z" />
    <glyph glyph-name="onefifth" unicode="&#x2155;" horiz-adv-x="795" 
d="M620 -8c-66 0 -115 32 -115 66c0 15 11 27 25 27c15 0 24 -10 24 -23c0 -7 -2 -13 -8 -16c9 -13 38 -25 73 -25c63 0 102 38 102 92c0 47 -35 82 -97 82c-31 0 -64 -9 -86 -20l-15 8l19 178h189v-31h-162l-13 -119c17 6 41 13 70 13c76 0 128 -42 128 -111
c0 -73 -59 -121 -134 -121zM223 -11l-25 14c33 55 124 203 196 323c52 85 183 301 196 321l24 -14l-196 -323zM58 281v29h100v300l-97 -24l-7 29l120 30h16v-335h98v-29h-230z" />
    <glyph glyph-name="twofifths" unicode="&#x2156;" horiz-adv-x="795" 
d="M63 281l-9 15c22 72 75 119 127 153c49 33 82 59 82 103c0 40 -36 70 -82 70c-49 0 -79 -26 -83 -43c10 -4 17 -13 17 -23c0 -14 -11 -25 -24 -25c-17 0 -27 12 -27 33c0 39 44 86 118 86c64 0 115 -41 115 -98s-41 -87 -97 -124c-49 -32 -92 -72 -108 -120h181v63h30
v-90h-240zM626 -8c-66 0 -115 32 -115 66c0 15 11 27 25 27c15 0 24 -10 24 -23c0 -7 -2 -13 -8 -16c9 -13 38 -25 73 -25c63 0 102 38 102 92c0 47 -35 82 -97 82c-31 0 -64 -9 -86 -20l-15 8l19 178h189v-31h-162l-13 -119c17 6 41 13 70 13c76 0 128 -42 128 -111
c0 -73 -59 -121 -134 -121zM239 -11l-25 14c33 55 124 203 196 323c52 85 183 301 196 321l24 -14l-196 -323z" />
    <glyph glyph-name="threefifths" unicode="&#x2157;" horiz-adv-x="795" 
d="M620 -8c-66 0 -115 32 -115 66c0 15 11 27 25 27c15 0 24 -10 24 -23c0 -7 -2 -13 -8 -16c9 -13 38 -25 73 -25c63 0 102 38 102 92c0 47 -35 82 -97 82c-31 0 -64 -9 -86 -20l-15 8l19 178h189v-31h-162l-13 -119c17 6 41 13 70 13c76 0 128 -42 128 -111
c0 -73 -59 -121 -134 -121zM178 275c-63 0 -124 34 -124 77c0 17 11 30 26 30c14 0 23 -11 23 -24c0 -9 -5 -17 -12 -21c7 -14 43 -35 87 -35c57 0 96 34 96 75c0 47 -42 77 -113 78h-21v28h22c59 0 103 31 103 74c0 40 -36 64 -85 64c-42 0 -70 -16 -78 -32
c6 -3 12 -10 12 -20c0 -13 -10 -24 -23 -24s-26 11 -26 30c0 33 43 74 116 74c69 0 117 -40 117 -91c0 -43 -42 -80 -91 -88c57 -8 100 -46 100 -93c0 -58 -54 -102 -129 -102zM219 -11l-25 14c33 55 124 203 196 323c52 85 183 301 196 321l24 -14l-196 -323z" />
    <glyph glyph-name="fourfifths" unicode="&#x2158;" horiz-adv-x="795" 
d="M621 -8c-66 0 -115 32 -115 66c0 15 11 27 25 27c15 0 24 -10 24 -23c0 -7 -2 -13 -8 -16c9 -13 38 -25 73 -25c63 0 102 38 102 92c0 47 -35 82 -97 82c-31 0 -64 -9 -86 -20l-15 8l19 178h189v-31h-162l-13 -119c17 6 41 13 70 13c76 0 128 -42 128 -111
c0 -73 -59 -121 -134 -121zM154 281v27h68v81h-177l-6 13l194 248l24 -18l-173 -217h138v90l30 13v-103h65v-26h-65v-81h53v-27h-151zM238 -11l-25 14c33 55 124 203 196 323c52 85 183 301 196 321l24 -14l-196 -323z" />
    <glyph glyph-name="onesixth" unicode="&#x2159;" horiz-adv-x="795" 
d="M726 308c0 -17 -10 -27 -24 -27c-15 0 -24 10 -24 23c0 7 3 13 7 17c-7 11 -28 19 -50 19c-65 0 -118 -66 -118 -180v-2c5 10 12 20 21 29c22 22 51 34 87 34c72 0 121 -48 121 -113c0 -64 -52 -116 -126 -116c-39 0 -70 13 -95 38c-27 27 -38 64 -38 124
c0 148 72 214 149 214c34 0 59 -11 75 -27c11 -11 15 -22 15 -33zM620 21c55 0 94 38 94 87s-36 86 -92 86s-97 -38 -97 -86c0 -22 8 -45 24 -60c17 -18 44 -27 71 -27zM218 -11l-25 14c33 55 124 203 196 323c52 85 183 301 196 321l24 -14l-196 -323zM54 281v29h100v300
l-97 -24l-7 29l120 30h16v-335h98v-29h-230z" />
    <glyph glyph-name="fivesixths" unicode="&#x215a;" horiz-adv-x="795" 
d="M727 308c0 -17 -10 -27 -24 -27c-15 0 -24 10 -24 23c0 7 3 13 7 17c-7 11 -28 19 -50 19c-65 0 -118 -66 -118 -180v-2c5 10 12 20 21 29c22 22 51 34 87 34c72 0 121 -48 121 -113c0 -64 -52 -116 -126 -116c-39 0 -70 13 -95 38c-27 27 -38 64 -38 124
c0 148 72 214 149 214c34 0 59 -11 75 -27c11 -11 15 -22 15 -33zM170 274c-66 0 -115 32 -115 66c0 15 11 27 25 27c15 0 24 -10 24 -23c0 -7 -2 -13 -8 -16c9 -13 38 -25 73 -25c63 0 102 38 102 92c0 47 -35 82 -97 82c-31 0 -64 -9 -86 -20l-15 8l19 178h189v-31h-162
l-13 -119c17 6 41 13 70 13c76 0 128 -42 128 -111c0 -73 -59 -121 -134 -121zM621 21c55 0 94 38 94 87s-36 86 -92 86s-97 -38 -97 -86c0 -22 8 -45 24 -60c17 -18 44 -27 71 -27zM220 -11l-25 14c33 55 124 203 196 323c52 85 183 301 196 321l24 -14l-196 -323z" />
    <glyph glyph-name="oneeighth" unicode="&#x215b;" horiz-adv-x="795" 
d="M622 -7c-74 0 -127 41 -127 99c0 45 37 85 88 95c-49 12 -79 47 -79 87c0 56 53 92 118 92c66 0 120 -36 120 -92c0 -40 -31 -75 -81 -87c51 -10 89 -50 89 -95c0 -58 -53 -99 -128 -99zM622 22c56 0 96 30 96 75c0 42 -43 76 -96 76s-94 -34 -94 -76
c0 -45 40 -75 94 -75zM215 -11l-25 14c33 55 124 203 196 323c52 85 183 301 196 321l24 -14l-196 -323zM57 281v29h100v300l-97 -24l-7 29l120 30h16v-335h98v-29h-230zM622 199c48 0 87 30 87 70c0 42 -38 69 -87 69s-86 -27 -86 -69c0 -40 39 -70 86 -70z" />
    <glyph glyph-name="threeeighths" unicode="&#x215c;" horiz-adv-x="795" 
d="M624 -7c-74 0 -127 41 -127 99c0 45 37 85 88 95c-49 12 -79 47 -79 87c0 56 53 92 118 92c66 0 120 -36 120 -92c0 -40 -31 -75 -81 -87c51 -10 89 -50 89 -95c0 -58 -53 -99 -128 -99zM177 275c-63 0 -124 34 -124 77c0 17 11 30 26 30c14 0 23 -11 23 -24
c0 -9 -5 -17 -12 -21c7 -14 43 -35 87 -35c57 0 96 34 96 75c0 47 -42 77 -113 78h-21v28h22c59 0 103 31 103 74c0 40 -36 64 -85 64c-42 0 -70 -16 -78 -32c6 -3 12 -10 12 -20c0 -13 -10 -24 -23 -24s-26 11 -26 30c0 33 43 74 116 74c69 0 117 -40 117 -91
c0 -43 -42 -80 -91 -88c57 -8 100 -46 100 -93c0 -58 -54 -102 -129 -102zM624 22c56 0 96 30 96 75c0 42 -43 76 -96 76s-94 -34 -94 -76c0 -45 40 -75 94 -75zM215 -11l-25 14c33 55 124 203 196 323c52 85 183 301 196 321l24 -14l-196 -323zM624 199c48 0 87 30 87 70
c0 42 -38 69 -87 69s-86 -27 -86 -69c0 -40 39 -70 86 -70z" />
    <glyph glyph-name="fiveeighths" unicode="&#x215d;" horiz-adv-x="795" 
d="M616 -7c-74 0 -127 41 -127 99c0 45 37 85 88 95c-49 12 -79 47 -79 87c0 56 53 92 118 92c66 0 120 -36 120 -92c0 -40 -31 -75 -81 -87c51 -10 89 -50 89 -95c0 -58 -53 -99 -128 -99zM165 274c-66 0 -115 32 -115 66c0 15 11 27 25 27c15 0 24 -10 24 -23
c0 -7 -2 -13 -8 -16c9 -13 38 -25 73 -25c63 0 102 38 102 92c0 47 -35 82 -97 82c-31 0 -64 -9 -86 -20l-15 8l19 178h189v-31h-162l-13 -119c17 6 41 13 70 13c76 0 128 -42 128 -111c0 -73 -59 -121 -134 -121zM616 22c56 0 96 30 96 75c0 42 -43 76 -96 76
s-94 -34 -94 -76c0 -45 40 -75 94 -75zM207 -11l-25 14c33 55 124 203 196 323c52 85 183 301 196 321l24 -14l-196 -323zM616 199c48 0 87 30 87 70c0 42 -38 69 -87 69s-86 -27 -86 -69c0 -40 39 -70 86 -70z" />
    <glyph glyph-name="seveneighths" unicode="&#x215e;" horiz-adv-x="795" 
d="M599 -7c-74 0 -127 41 -127 99c0 45 37 85 88 95c-49 12 -79 47 -79 87c0 56 53 92 118 92c66 0 120 -36 120 -92c0 -40 -31 -75 -81 -87c51 -10 89 -50 89 -95c0 -58 -53 -99 -128 -99zM599 22c56 0 96 30 96 75c0 42 -43 76 -96 76s-94 -34 -94 -76
c0 -45 40 -75 94 -75zM173 -11l-25 14c33 55 124 203 196 323c52 85 183 301 196 321l24 -14l-196 -323zM126 281l157 335h-181v-63h-30v90h243l6 -14l-161 -348h-34zM599 199c48 0 87 30 87 70c0 42 -38 69 -87 69s-86 -27 -86 -69c0 -40 39 -70 86 -70z" />
    <glyph glyph-name="zero.sup" unicode="&#x2070;" horiz-adv-x="353" 
d="M176 425c-78 0 -135 74 -135 186c0 114 58 188 136 188c77 0 135 -74 135 -186c0 -114 -58 -188 -136 -188zM176 454c60 0 103 63 103 157c0 95 -43 158 -102 158c-60 0 -103 -63 -103 -157c0 -95 42 -158 102 -158z" />
    <glyph glyph-name="one.sup" unicode="&#xb9;" horiz-adv-x="353" 
d="M69 431v29h100v300l-97 -24l-7 29l120 30h16v-335h98v-29h-230z" />
    <glyph glyph-name="two.sup" unicode="&#xb2;" horiz-adv-x="353" 
d="M61 431l-9 15c22 72 75 119 127 153c49 33 82 59 82 103c0 40 -36 70 -82 70c-49 0 -79 -26 -83 -43c10 -4 17 -13 17 -23c0 -14 -11 -25 -24 -25c-17 0 -27 12 -27 33c0 39 44 86 118 86c64 0 115 -41 115 -98s-41 -87 -97 -124c-49 -32 -92 -72 -108 -120h181v63h30
v-90h-240z" />
    <glyph glyph-name="three.sup" unicode="&#xb3;" horiz-adv-x="353" 
d="M174 425c-63 0 -124 34 -124 77c0 17 11 30 26 30c14 0 23 -11 23 -24c0 -9 -5 -17 -12 -21c7 -14 43 -35 87 -35c57 0 96 34 96 75c0 47 -42 77 -113 78h-21v28h22c59 0 103 31 103 74c0 40 -36 64 -85 64c-42 0 -70 -16 -78 -32c6 -3 12 -10 12 -20
c0 -13 -10 -24 -23 -24s-26 11 -26 30c0 33 43 74 116 74c69 0 117 -40 117 -91c0 -43 -42 -80 -91 -88c57 -8 100 -46 100 -93c0 -58 -54 -102 -129 -102z" />
    <glyph glyph-name="four.sup" unicode="&#x2074;" horiz-adv-x="353" 
d="M151 431v27h68v81h-177l-6 13l194 248l24 -18l-173 -217h138v90l30 13v-103h65v-26h-65v-81h53v-27h-151z" />
    <glyph glyph-name="five.sup" unicode="&#x2075;" horiz-adv-x="353" 
d="M167 424c-66 0 -115 32 -115 66c0 15 11 27 25 27c15 0 24 -10 24 -23c0 -7 -2 -13 -8 -16c9 -13 38 -25 73 -25c63 0 102 38 102 92c0 47 -35 82 -97 82c-31 0 -64 -9 -86 -20l-15 8l19 178h189v-31h-162l-13 -119c17 6 41 13 70 13c76 0 128 -42 128 -111
c0 -73 -59 -121 -134 -121z" />
    <glyph glyph-name="six.sup" unicode="&#x2076;" horiz-adv-x="353" 
d="M288 740c0 -17 -10 -27 -24 -27c-15 0 -24 10 -24 23c0 7 3 13 7 17c-7 11 -28 19 -50 19c-65 0 -118 -66 -118 -180v-2c5 10 12 20 21 29c22 22 51 34 87 34c72 0 121 -48 121 -113c0 -64 -52 -116 -126 -116c-39 0 -70 13 -95 38c-27 27 -38 64 -38 124
c0 148 72 214 149 214c34 0 59 -11 75 -27c11 -11 15 -22 15 -33zM182 453c55 0 94 38 94 87s-36 86 -92 86s-97 -38 -97 -86c0 -22 8 -45 24 -60c17 -18 44 -27 71 -27z" />
    <glyph glyph-name="seven.sup" unicode="&#x2077;" horiz-adv-x="353" 
d="M113 431l157 335h-181v-63h-30v90h243l6 -14l-161 -348h-34z" />
    <glyph glyph-name="eight.sup" unicode="&#x2078;" horiz-adv-x="353" 
d="M176 425c-74 0 -127 41 -127 99c0 45 37 85 88 95c-49 12 -79 47 -79 87c0 56 53 92 118 92c66 0 120 -36 120 -92c0 -40 -31 -75 -81 -87c51 -10 89 -50 89 -95c0 -58 -53 -99 -128 -99zM176 631c48 0 87 30 87 70c0 42 -38 69 -87 69s-86 -27 -86 -69
c0 -40 39 -70 86 -70zM176 454c56 0 96 30 96 75c0 42 -43 76 -96 76s-94 -34 -94 -76c0 -45 40 -75 94 -75z" />
    <glyph glyph-name="nine.sup" unicode="&#x2079;" horiz-adv-x="353" 
d="M65 484c0 17 10 27 24 27c15 0 24 -10 24 -23c0 -8 -3 -14 -7 -18c7 -10 28 -18 50 -18c65 0 118 66 118 180v2c-5 -11 -12 -20 -21 -29c-22 -22 -51 -34 -87 -34c-72 0 -121 48 -121 113c0 64 52 116 126 116c39 0 70 -13 95 -38c27 -27 38 -64 38 -124
c0 -148 -72 -214 -149 -214c-34 0 -59 11 -75 27c-11 11 -15 22 -15 33zM171 771c-55 0 -94 -38 -94 -87s36 -86 92 -86s97 38 97 86c0 22 -8 45 -24 60c-17 18 -44 27 -71 27z" />
    <glyph glyph-name="zero.inf" unicode="&#x2080;" horiz-adv-x="353" 
d="M176 -145c-78 0 -135 74 -135 186c0 114 58 188 136 188c77 0 135 -74 135 -186c0 -114 -58 -188 -136 -188zM176 -116c60 0 103 63 103 157c0 95 -43 158 -102 158c-60 0 -103 -63 -103 -157c0 -95 42 -158 102 -158z" />
    <glyph glyph-name="one.inf" unicode="&#x2081;" horiz-adv-x="353" 
d="M69 -139v29h100v300l-97 -24l-7 29l120 30h16v-335h98v-29h-230z" />
    <glyph glyph-name="two.inf" unicode="&#x2082;" horiz-adv-x="353" 
d="M61 -139l-9 15c22 72 75 119 127 153c49 33 82 59 82 103c0 40 -36 70 -82 70c-49 0 -79 -26 -83 -43c10 -4 17 -13 17 -23c0 -14 -11 -25 -24 -25c-17 0 -27 12 -27 33c0 39 44 86 118 86c64 0 115 -41 115 -98s-41 -87 -97 -124c-49 -32 -92 -72 -108 -120h181v63h30
v-90h-240z" />
    <glyph glyph-name="three.inf" unicode="&#x2083;" horiz-adv-x="353" 
d="M174 -145c-63 0 -124 34 -124 77c0 17 11 30 26 30c14 0 23 -11 23 -24c0 -9 -5 -17 -12 -21c7 -14 43 -35 87 -35c57 0 96 34 96 75c0 47 -42 77 -113 78h-21v28h22c59 0 103 31 103 74c0 40 -36 64 -85 64c-42 0 -70 -16 -78 -32c6 -3 12 -10 12 -20
c0 -13 -10 -24 -23 -24s-26 11 -26 30c0 33 43 74 116 74c69 0 117 -40 117 -91c0 -43 -42 -80 -91 -88c57 -8 100 -46 100 -93c0 -58 -54 -102 -129 -102z" />
    <glyph glyph-name="four.inf" unicode="&#x2084;" horiz-adv-x="353" 
d="M151 -139v27h68v81h-177l-6 13l194 248l24 -18l-173 -217h138v90l30 13v-103h65v-26h-65v-81h53v-27h-151z" />
    <glyph glyph-name="five.inf" unicode="&#x2085;" horiz-adv-x="353" 
d="M167 -146c-66 0 -115 32 -115 66c0 15 11 27 25 27c15 0 24 -10 24 -23c0 -7 -2 -13 -8 -16c9 -13 38 -25 73 -25c63 0 102 38 102 92c0 47 -35 82 -97 82c-31 0 -64 -9 -86 -20l-15 8l19 178h189v-31h-162l-13 -119c17 6 41 13 70 13c76 0 128 -42 128 -111
c0 -73 -59 -121 -134 -121z" />
    <glyph glyph-name="six.inf" unicode="&#x2086;" horiz-adv-x="353" 
d="M288 170c0 -17 -10 -27 -24 -27c-15 0 -24 10 -24 23c0 7 3 13 7 17c-7 11 -28 19 -50 19c-65 0 -118 -66 -118 -180v-2c5 10 12 20 21 29c22 22 51 34 87 34c72 0 121 -48 121 -113c0 -64 -52 -116 -126 -116c-39 0 -70 13 -95 38c-27 27 -38 64 -38 124
c0 148 72 214 149 214c34 0 59 -11 75 -27c11 -11 15 -22 15 -33zM182 -117c55 0 94 38 94 87s-36 86 -92 86s-97 -38 -97 -86c0 -22 8 -45 24 -60c17 -18 44 -27 71 -27z" />
    <glyph glyph-name="seven.inf" unicode="&#x2087;" horiz-adv-x="353" 
d="M113 -139l157 335h-181v-63h-30v90h243l6 -14l-161 -348h-34z" />
    <glyph glyph-name="eight.inf" unicode="&#x2088;" horiz-adv-x="353" 
d="M176 -145c-74 0 -127 41 -127 99c0 45 37 85 88 95c-49 12 -79 47 -79 87c0 56 53 92 118 92c66 0 120 -36 120 -92c0 -40 -31 -75 -81 -87c51 -10 89 -50 89 -95c0 -58 -53 -99 -128 -99zM176 61c48 0 87 30 87 70c0 42 -38 69 -87 69s-86 -27 -86 -69
c0 -40 39 -70 86 -70zM176 -116c56 0 96 30 96 75c0 42 -43 76 -96 76s-94 -34 -94 -76c0 -45 40 -75 94 -75z" />
    <glyph glyph-name="nine.inf" unicode="&#x2089;" horiz-adv-x="353" 
d="M65 -86c0 17 10 27 24 27c15 0 24 -10 24 -23c0 -7 -3 -14 -7 -18c7 -10 28 -18 50 -18c65 0 118 66 118 180v2c-5 -11 -12 -20 -21 -29c-22 -22 -51 -34 -87 -34c-72 0 -121 48 -121 113c0 64 52 116 126 116c39 0 70 -13 95 -38c27 -27 38 -64 38 -124
c0 -148 -72 -214 -149 -214c-34 0 -59 11 -75 27c-11 11 -15 22 -15 33zM171 201c-55 0 -94 -38 -94 -87s36 -86 92 -86s97 38 97 86c0 22 -8 45 -24 60c-17 18 -44 27 -71 27z" />
    <glyph glyph-name="zero.tab" 
d="M265 -11c-125 0 -219 135 -219 340c0 207 94 342 219 342s219 -135 219 -342c0 -205 -94 -340 -219 -340zM265 633c-104 0 -178 -120 -178 -302c0 -183 74 -304 178 -304s178 121 178 304c0 182 -74 302 -178 302z" />
    <glyph glyph-name="one.tab" 
d="M83 0v36h171v581l-165 -47l-8 38l191 54h23v-626h168v-36h-380z" />
    <glyph glyph-name="two.tab" 
d="M455 497c0 -103 -67 -156 -164 -228c-88 -65 -167 -140 -192 -233h328v113h40v-149h-408l-9 18c32 130 130 214 219 281c83 63 144 114 144 198c0 80 -68 136 -153 136c-70 0 -121 -32 -143 -72c-5 -8 -8 -16 -9 -22c21 -4 32 -21 32 -37c0 -20 -15 -36 -36 -36
c-22 0 -39 17 -39 50c0 17 5 39 17 59c29 52 94 94 180 94c109 0 193 -68 193 -172z" />
    <glyph glyph-name="three.tab" 
d="M249 -10c-78 0 -148 33 -183 80c-13 18 -20 39 -20 58c0 26 16 45 37 45c19 0 34 -15 34 -34c0 -17 -12 -30 -28 -34c3 -7 8 -16 15 -23c26 -28 79 -55 145 -55c111 0 179 70 179 146c0 64 -39 107 -102 131c-36 15 -74 21 -122 21h-20v36h24c48 0 86 11 120 29
c52 25 85 66 85 118c0 74 -61 125 -160 125c-63 0 -110 -28 -133 -54c-7 -7 -12 -16 -15 -23c15 -5 28 -16 28 -35s-14 -34 -33 -34c-20 0 -38 16 -38 43c0 18 6 38 20 58c31 44 91 82 174 82c115 0 197 -65 197 -162c0 -63 -40 -111 -101 -140c-23 -10 -47 -19 -73 -22
c26 -4 50 -9 71 -18c72 -27 118 -80 118 -153c0 -105 -89 -185 -219 -185z" />
    <glyph glyph-name="four.tab" 
d="M210 0v36h122v164h-307l-7 15l338 456l32 -22l-309 -414h253v184l41 18v-202h118v-35h-118v-164h101v-36h-264z" />
    <glyph glyph-name="five.tab" 
d="M244 -11c-70 0 -128 23 -161 55c-18 18 -29 38 -29 58c0 22 14 41 38 41c18 0 33 -15 33 -33c0 -14 -7 -26 -20 -32c5 -6 10 -12 17 -17c25 -20 67 -33 125 -33c110 0 187 73 187 175c0 94 -71 161 -186 161c-56 0 -112 -17 -148 -33l-17 8l36 319h314v-41h-281l-27 -237
c31 13 69 23 126 23c125 0 224 -71 224 -199c0 -135 -104 -215 -231 -215z" />
    <glyph glyph-name="six.tab" 
d="M415 524c-20 0 -35 16 -35 35c0 14 6 24 16 30c-14 25 -54 43 -99 43c-115 0 -206 -134 -206 -356v-6c8 24 21 46 38 65c36 39 89 65 146 65c121 0 205 -86 205 -202s-88 -209 -207 -209c-62 0 -114 22 -152 61c-46 48 -69 120 -69 228c0 283 131 393 249 393
c51 0 90 -17 117 -41c20 -19 32 -42 32 -64c0 -25 -14 -42 -35 -42zM274 27c94 0 165 73 165 170c0 96 -71 166 -165 166c-96 0 -170 -76 -170 -168c0 -43 18 -89 50 -120c31 -31 73 -48 120 -48z" />
    <glyph glyph-name="seven.tab" 
d="M152 0l282 622h-341v-112h-40v148h431l6 -12l-293 -646h-45z" />
    <glyph glyph-name="eight.tab" 
d="M265 27c97 0 171 61 171 148c0 83 -78 149 -171 149s-171 -66 -171 -149c0 -87 74 -148 171 -148zM265 670c107 0 198 -63 198 -171c0 -75 -57 -137 -132 -156c70 -13 146 -81 146 -168c0 -111 -94 -185 -212 -185s-212 74 -212 185c0 87 76 155 146 168
c-75 19 -132 81 -132 156c0 108 91 171 198 171zM265 361c89 0 157 59 157 136s-66 136 -157 136s-157 -59 -157 -136s68 -136 157 -136z" />
    <glyph glyph-name="nine.tab" 
d="M478 382c0 -283 -129 -393 -246 -393c-46 0 -89 16 -119 41c-21 18 -36 42 -36 63c0 25 15 41 35 41s36 -15 36 -35c0 -13 -8 -25 -19 -30c5 -7 11 -13 18 -19c19 -15 50 -24 90 -24c113 0 202 135 202 358c-8 -24 -22 -47 -39 -65c-35 -40 -88 -67 -145 -67
c-121 0 -205 88 -205 206s88 213 207 213c63 0 114 -22 152 -62c46 -47 69 -119 69 -227zM256 633c-94 0 -164 -74 -164 -173s70 -170 164 -170c96 0 170 77 170 171c0 44 -17 90 -49 122c-31 31 -74 50 -121 50z" />
    <glyph glyph-name="period.tab" horiz-adv-x="265" 
d="M133 -9c-25 0 -42 19 -42 43s17 43 42 43s42 -19 42 -43s-17 -43 -42 -43z" />
    <glyph glyph-name="comma.tab" horiz-adv-x="265" 
d="M68 -132l-11 16c55 43 73 82 74 111c-21 0 -41 19 -41 41s19 39 40 39c25 0 45 -20 45 -57c0 -46 -29 -105 -107 -150z" />
    <glyph glyph-name="colon.tab" horiz-adv-x="265" 
d="M133 -9c-25 0 -42 19 -42 43s17 43 42 43s42 -19 42 -43s-17 -43 -42 -43zM133 269c-25 0 -42 19 -42 43c0 25 17 44 42 44s42 -19 42 -44c0 -24 -17 -43 -42 -43z" />
    <glyph glyph-name="semicolon.tab" horiz-adv-x="265" 
d="M69 -132l-11 16c55 43 72 82 73 111c-20 0 -40 19 -40 41s19 39 40 39c24 0 44 -20 44 -57c0 -46 -28 -105 -106 -150zM133 269c-25 0 -42 19 -42 43c0 25 17 44 42 44s42 -19 42 -44c0 -24 -17 -43 -42 -43z" />
    <glyph glyph-name="twodotleader.tab" 
d="M133 -9c-25 0 -42 19 -42 43s17 43 42 43s42 -19 42 -43s-17 -43 -42 -43zM398 -9c-25 0 -42 19 -42 43s17 43 42 43s42 -19 42 -43s-17 -43 -42 -43z" />
    <glyph glyph-name="periodcentered.tab" horiz-adv-x="265" 
d="M133 201c-25 0 -42 19 -42 43c0 25 17 44 42 44s42 -19 42 -44c0 -24 -17 -43 -42 -43z" />
    <glyph glyph-name="slash.tab" 
d="M18 -205l-32 16l471 927l32 -16z" />
    <glyph glyph-name="bar.tab" horiz-adv-x="265" 
d="M116 -200v932h34v-932h-34z" />
    <glyph glyph-name="underscore.tab" 
d="M-5 -133v38h540v-38h-540z" />
    <glyph glyph-name="dollar.tab" 
d="M100 107c16 -30 61 -61 123 -71l25 287c-96 37 -164 84 -164 176c0 88 74 158 189 158h4l8 89l34 -3l-8 -89c89 -12 153 -64 153 -121c0 -26 -15 -41 -34 -41s-35 14 -35 35c0 15 8 27 18 36c-15 26 -56 50 -105 58l-23 -270c107 -40 185 -86 185 -182
c0 -104 -90 -170 -210 -170h-6l-8 -97l-34 3l8 96c-106 14 -171 82 -171 132c0 29 16 45 37 45c18 0 34 -13 34 -33c0 -16 -8 -29 -20 -38zM431 166c0 73 -56 112 -150 146l-24 -278h5c101 0 169 53 169 132zM123 502c0 -69 50 -106 129 -138l22 260h-2
c-90 0 -149 -56 -149 -122z" />
    <glyph glyph-name="sterling.tab" 
d="M40 19c0 22 24 46 83 47c36 40 61 89 61 154c0 14 -1 29 -4 43h-107v33h100c-4 16 -9 31 -14 48c-14 42 -28 87 -28 145c0 103 79 177 175 177c94 0 155 -56 155 -111c0 -28 -18 -41 -36 -41c-19 0 -34 14 -34 34c0 13 10 27 17 33c-13 27 -46 49 -103 49
c-74 0 -137 -57 -137 -140c0 -52 14 -94 26 -137c6 -20 12 -39 16 -57h172v-33h-165c2 -15 3 -29 3 -44c0 -71 -27 -123 -55 -150c2 1 4 1 7 1c28 0 61 -9 97 -20c55 -17 77 -23 107 -23c55 0 74 25 92 68l33 -14c-18 -53 -52 -91 -123 -91c-40 0 -66 9 -120 26
c-36 11 -65 21 -105 21c-3 0 -8 0 -12 -1c-21 -31 -50 -45 -70 -45c-19 0 -31 11 -31 28z" />
    <glyph glyph-name="Euro.tab" 
d="M418 508c0 18 11 31 28 37c-10 35 -54 86 -127 86c-92 -1 -161 -82 -182 -217h213v-35h-217c-1 -18 -2 -35 -2 -54c0 -20 1 -40 3 -59h216v-34h-212c21 -120 82 -205 176 -205c60 0 105 28 148 79l25 -26c-43 -55 -102 -91 -174 -91c-117 0 -194 101 -217 243h-70v34h66
c-2 19 -3 39 -3 59c0 18 1 36 2 54h-65v35h69c25 157 116 253 227 253c99 1 168 -78 168 -147c0 -26 -13 -46 -38 -46c-20 0 -34 16 -34 34z" />
    <glyph glyph-name="yen.tab" 
d="M150 0v36h94v118h-150v34h150v84h-150v34h140l-162 316h-69v36h198v-36h-86l151 -298l150 298h-87v36h198v-36h-70l-162 -316h141v-34h-151v-84h151v-34h-151v-118h95v-36h-230z" />
    <glyph glyph-name="cent.tab" 
d="M445 205l-3 -40c-39 -28 -96 -43 -141 -43c-10 0 -20 0 -30 1l-13 -141l-34 3l13 144c-103 24 -173 105 -173 209c0 123 94 214 211 219l10 113l35 -2l-10 -113c81 -9 145 -63 145 -119c0 -23 -14 -44 -38 -44c-14 0 -30 10 -30 29c0 15 9 27 25 34
c-12 34 -56 60 -106 66l-32 -363c9 -1 19 -1 30 -1c45 0 94 15 141 48zM105 337c0 -87 53 -151 135 -172l31 357c-87 -5 -166 -70 -166 -185z" />
    <glyph glyph-name="numbersign.tab" 
d="M55 428v31h127l31 198h34l-31 -198h138l30 198h34l-31 -198h129v-31h-134l-31 -207h125v-30h-130l-29 -191h-34l29 191h-137l-29 -191h-34l29 191h-126v30h131l32 207h-123zM211 428l-32 -207h138l32 207h-138z" />
    <glyph glyph-name="paragraph.tab" 
d="M321 34h57v590h-57v-590zM32 454c0 124 96 204 227 204h238v-36h-82v-586h82v-36h-299v36h86v212c-12 -1 -17 -2 -33 -2c-129 0 -219 81 -219 208z" />
    <glyph glyph-name="section.tab" 
d="M113 125c19 0 34 -12 34 -33c0 -9 -3 -19 -11 -26c16 -20 66 -41 116 -41c86 0 140 36 140 81c0 43 -29 64 -151 96c-104 28 -180 59 -180 128c0 53 51 94 123 117c-59 23 -89 52 -89 101c0 64 74 120 182 120c55 0 97 -15 126 -34c29 -18 46 -41 46 -63s-14 -39 -33 -39
s-34 13 -34 33c0 10 4 20 12 27c-3 5 -10 11 -18 16c-22 14 -58 26 -99 26c-84 0 -140 -36 -140 -85c0 -43 34 -63 151 -93c105 -27 180 -59 180 -127c0 -53 -50 -95 -121 -119c57 -21 86 -49 86 -100c0 -66 -71 -120 -180 -120c-65 0 -117 22 -146 49c-17 16 -27 33 -27 50
c0 20 14 36 33 36zM265 424l-46 12c-70 -20 -115 -57 -115 -101c0 -45 43 -72 160 -100l46 -12c72 21 114 58 114 102s-42 70 -159 99z" />
    <glyph glyph-name="degree.tab" 
d="M263 388c-105 0 -174 81 -174 177c0 97 69 178 174 178s174 -81 174 -178c0 -96 -69 -177 -174 -177zM263 714c-85 0 -141 -67 -141 -149c0 -81 56 -148 141 -148s141 67 141 148c0 82 -56 149 -141 149z" />
    <glyph glyph-name="percent.tab" 
d="M26 525c0 80 47 143 116 143s116 -63 116 -143c0 -79 -47 -142 -116 -142s-116 63 -116 142zM271 133c0 79 48 142 116 142c67 0 116 -63 116 -142c0 -80 -49 -143 -116 -143c-68 0 -116 63 -116 143zM59 525c0 -62 34 -113 83 -113c50 0 84 51 84 113
c0 63 -34 114 -84 114c-49 0 -83 -51 -83 -114zM306 133c0 -63 33 -112 81 -112s81 49 81 112c0 62 -33 111 -81 111s-81 -49 -81 -111zM84 -6l-27 15c4 9 140 233 195 325c54 93 191 320 197 330l26 -16l-196 -329c-54 -91 -191 -319 -195 -325z" />
    <glyph glyph-name="quotedbl.tab" 
d="M169 492l-22 204c-4 27 7 45 29 45c21 0 34 -16 29 -45l-22 -204h-14zM347 492l-22 204c-5 27 7 45 29 45c21 0 33 -16 29 -45l-22 -204h-14z" />
    <glyph glyph-name="quotesingle.tab" horiz-adv-x="265" 
d="M125 492l-22 204c-4 27 8 45 30 45c20 0 33 -16 29 -45l-23 -204h-14z" />
    <glyph glyph-name="plus.tab" 
d="M247 162v157h-155v35h155v157h36v-157h155v-35h-155v-157h-36z" />
    <glyph glyph-name="minus.tab" 
d="M92 319v35h346v-35h-346z" />
    <glyph glyph-name="divide.tab" 
d="M438 319h-346v35h346v-35zM265 448c-19 0 -34 15 -34 34s15 35 34 35c18 0 33 -16 33 -35s-15 -34 -33 -34zM265 157c-19 0 -34 15 -34 34s15 35 34 35c18 0 33 -16 33 -35s-15 -34 -33 -34z" />
    <glyph glyph-name="equal.tab" 
d="M92 394v34h346v-34h-346zM92 226v35h346v-35h-346z" />
    <glyph glyph-name="multiply.tab" 
d="M398 179l-133 133l-133 -133l-24 25l133 132l-134 134l25 25l134 -134l132 133l24 -24l-133 -133l134 -133z" />
    <glyph glyph-name="less.tab" 
d="M383 145l-279 179v9l279 179l19 -28l-244 -156l244 -155z" />
    <glyph glyph-name="greater.tab" 
d="M147 512l279 -179v-9l-279 -179l-19 28l244 155l-244 156z" />
    <glyph glyph-name="plusminus.tab" 
d="M247 213v157h-155v35h155v157h36v-157h155v-35h-155v-157h-36zM92 100v35h346v-35h-346z" />
    <glyph glyph-name="zero.idx_P2D" horiz-adv-x="1088" 
d="M544 792c271 0 486 -220 486 -492s-215 -492 -486 -492c-272 0 -487 220 -487 492s215 492 487 492zM544 765c-257 0 -456 -208 -456 -465s199 -465 456 -465s456 208 456 465s-199 465 -456 465zM542 65c-99 0 -177 97 -177 242c0 146 79 241 179 241
c99 0 178 -96 178 -241c0 -146 -79 -242 -180 -242zM543 100c84 0 140 84 140 207c0 122 -57 207 -140 207s-140 -84 -140 -207s58 -207 140 -207z" />
    <glyph glyph-name="one.idx_P2D" horiz-adv-x="1088" 
d="M544 792c271 0 486 -220 486 -492s-215 -492 -486 -492c-272 0 -487 220 -487 492s215 492 487 492zM544 765c-257 0 -456 -208 -456 -465s199 -465 456 -465s456 208 456 465s-199 465 -456 465zM675 73h-255v34h110v395l-106 -24l-8 33l134 32h18v-436h107v-34z" />
    <glyph glyph-name="two.idx_P2D" horiz-adv-x="1088" 
d="M544 792c271 0 486 -220 486 -492s-215 -492 -486 -492c-272 0 -487 220 -487 492s215 492 487 492zM544 765c-257 0 -456 -208 -456 -465s199 -465 456 -465s456 208 456 465s-199 465 -456 465zM402 439c0 12 4 27 12 41c20 37 67 68 132 68c81 0 144 -53 144 -124
c0 -73 -49 -111 -117 -160c-63 -45 -118 -93 -139 -158h230v81h34v-114h-299l-10 16c28 98 96 155 162 201c60 42 100 76 100 134c0 52 -46 91 -106 91c-45 0 -78 -17 -95 -42c-4 -6 -7 -11 -8 -15c14 -5 22 -18 22 -29c0 -17 -13 -30 -29 -30c-20 0 -33 15 -33 40z" />
    <glyph glyph-name="three.idx_P2D" horiz-adv-x="1088" 
d="M544 792c271 0 486 -220 486 -492s-215 -492 -486 -492c-272 0 -487 220 -487 492s215 492 487 492zM544 765c-257 0 -456 -208 -456 -465s199 -465 456 -465s456 208 456 465s-199 465 -456 465zM392 162c0 20 13 37 31 37c16 0 29 -14 29 -29c0 -12 -8 -22 -19 -27
c2 -4 5 -8 10 -12c17 -18 55 -31 96 -31c75 0 119 45 119 97c0 39 -22 68 -59 85c-24 11 -54 17 -89 17h-15v33h18c36 0 68 10 91 27c26 17 41 42 41 72c0 50 -39 82 -104 82c-43 0 -75 -14 -90 -33c-3 -3 -5 -6 -7 -9h1c11 -3 19 -13 19 -25c0 -16 -13 -29 -28 -29
c-16 0 -31 14 -31 37c0 13 5 28 15 42c22 28 65 51 123 51c82 0 140 -48 140 -115c0 -40 -22 -74 -57 -95c-15 -9 -31 -15 -50 -19c18 -3 34 -9 49 -16c43 -20 70 -57 70 -105c0 -76 -64 -130 -156 -130c-52 0 -101 18 -127 47c-13 14 -20 31 -20 48z" />
    <glyph glyph-name="four.idx_P2D" horiz-adv-x="1088" 
d="M544 792c271 0 486 -220 486 -492s-215 -492 -486 -492c-272 0 -487 220 -487 492s215 492 487 492zM544 765c-257 0 -456 -208 -456 -465s199 -465 456 -465s456 208 456 465s-199 465 -456 465zM477 73v33h95v109h-221l-8 15l245 321l28 -20l-218 -285h174v119l38 17
v-136h88v-32h-88v-108h74v-33h-207z" />
    <glyph glyph-name="five.idx_P2D" horiz-adv-x="1088" 
d="M544 792c271 0 486 -220 486 -492s-215 -492 -486 -492c-272 0 -487 220 -487 492s215 492 487 492zM544 765c-257 0 -456 -208 -456 -465s199 -465 456 -465s456 208 456 465s-199 465 -456 465zM535 65c-78 0 -143 39 -143 82c0 17 11 33 30 33c16 0 28 -13 28 -28
c0 -9 -4 -18 -11 -22c10 -17 50 -31 96 -31c71 0 119 49 119 119c0 65 -41 111 -118 111c-37 0 -82 -10 -108 -23l-17 10l23 225h231v-37h-200l-17 -155c21 8 54 14 91 14c88 0 153 -52 153 -144c0 -95 -70 -154 -157 -154z" />
    <glyph glyph-name="six.idx_P2D" horiz-adv-x="1088" 
d="M544 792c271 0 486 -220 486 -492s-215 -492 -486 -492c-272 0 -487 220 -487 492s215 492 487 492zM544 765c-257 0 -456 -208 -456 -465s199 -465 456 -465s456 208 456 465s-199 465 -456 465zM679 472c0 -21 -13 -32 -29 -32c-18 0 -29 13 -29 28c0 9 4 16 9 21
c-1 3 -4 6 -8 9c-10 8 -32 16 -58 16c-81 0 -146 -81 -147 -239c19 48 71 83 132 83c92 0 154 -62 154 -145s-66 -148 -155 -148c-48 0 -87 18 -115 46c-35 35 -52 88 -52 160c0 196 90 277 185 277c32 0 60 -9 79 -22c22 -14 34 -33 34 -54zM424 215c0 -30 14 -60 36 -82
c23 -21 53 -35 88 -35c67 0 117 49 117 114s-48 113 -118 113c-69 0 -123 -50 -123 -110z" />
    <glyph glyph-name="seven.idx_P2D" horiz-adv-x="1088" 
d="M544 792c271 0 486 -220 486 -492s-215 -492 -486 -492c-272 0 -487 220 -487 492s215 492 487 492zM544 765c-257 0 -456 -208 -456 -465s199 -465 456 -465s456 208 456 465s-199 465 -456 465zM514 68h-39l196 435h-229v-80h-36v112h304l7 -14z" />
    <glyph glyph-name="eight.idx_P2D" horiz-adv-x="1088" 
d="M544 792c271 0 486 -220 486 -492s-215 -492 -486 -492c-272 0 -487 220 -487 492s215 492 487 492zM544 765c-257 0 -456 -208 -456 -465s199 -465 456 -465s456 208 456 465s-199 465 -456 465zM544 67c-92 0 -158 53 -158 130c0 58 48 106 101 119
c-53 15 -91 57 -91 107c0 76 66 124 148 124c81 0 147 -48 147 -124c0 -50 -38 -92 -91 -107c54 -13 101 -61 101 -119c0 -77 -66 -130 -157 -130zM544 331c62 0 109 39 109 91s-47 92 -109 92c-63 0 -110 -40 -110 -92c0 -51 48 -91 110 -91zM544 100c68 0 119 40 119 99
c0 55 -53 100 -119 100c-67 0 -120 -45 -120 -100c0 -59 51 -99 120 -99z" />
    <glyph glyph-name="nine.idx_P2D" horiz-adv-x="1088" 
d="M544 792c271 0 486 -220 486 -492s-215 -492 -486 -492c-272 0 -487 220 -487 492s215 492 487 492zM544 765c-257 0 -456 -208 -456 -465s199 -465 456 -465s456 208 456 465s-199 465 -456 465zM408 141c0 21 12 33 28 33c17 0 29 -13 29 -29c0 -10 -4 -16 -10 -20
c2 -3 5 -6 7 -7c13 -12 34 -20 65 -20c79 0 144 73 145 230c-20 -43 -70 -77 -132 -77c-92 0 -153 60 -153 147c0 85 66 150 155 150c47 0 86 -18 113 -44c36 -36 53 -91 53 -164c0 -201 -84 -275 -182 -275c-37 0 -72 13 -94 32c-15 13 -24 28 -24 44zM665 393
c0 35 -14 66 -37 88c-22 21 -52 34 -87 34c-66 0 -116 -49 -116 -116c0 -68 47 -114 117 -114c69 0 123 48 123 108z" />
    <glyph glyph-name="space" unicode=" " horiz-adv-x="223" 
 />
    <glyph glyph-name="uni00A0" unicode="&#xa0;" horiz-adv-x="223" 
 />
    <glyph glyph-name="emspace" unicode="&#x2003;" horiz-adv-x="1000" 
 />
    <glyph glyph-name="enspace" unicode="&#x2002;" horiz-adv-x="500" 
 />
    <glyph glyph-name="threeperemspace" unicode="&#x2004;" horiz-adv-x="333" 
 />
    <glyph glyph-name="fourperemspace" unicode="&#x2005;" horiz-adv-x="250" 
 />
    <glyph glyph-name="thinspace" unicode="&#x2009;" horiz-adv-x="133" 
 />
    <glyph glyph-name="hairspace" unicode="&#x200a;" horiz-adv-x="75" 
 />
    <glyph glyph-name="space.tab" horiz-adv-x="265" 
 />
    <glyph glyph-name="figurespace" unicode="&#x2007;" 
 />
    <glyph glyph-name="NUL" horiz-adv-x="0" 
 />
    <glyph glyph-name="hfjslug" horiz-adv-x="697" 
d="M646 -200h-208l-8 14h-163l-8 -14h-207v303c18 0 32 14 32 32c0 17 -14 32 -32 32v554h100l30 79h334l29 -79h101v-921zM402 563v-172h15v78h38v14h-38v66h43v14h-58zM186 563v-172h15v79h47v-79h15v172h-15v-79h-47v79h-15zM462 394c5 -2 14 -4 21 -4c20 0 31 11 31 36
v137h-16v-137c0 -16 -5 -22 -16 -22c-6 0 -15 3 -20 5v-15zM373 465l-13 3c-2 -9 -5 -21 -8 -30h-1l-16 31c13 12 23 26 23 42c0 15 -9 31 -27 31c-17 0 -28 -16 -28 -31s6 -24 14 -39c-15 -12 -23 -28 -23 -47c0 -22 12 -37 29 -37c13 0 23 9 29 24h1l12 -24l12 6l-17 32
c5 12 9 25 13 39zM525 323v-46h8v12l8 8l15 -20h10l-20 26l18 20h-10l-20 -24h-1v24h-8zM490 292l10 -15h9l-12 17c5 2 10 6 10 14c0 9 -7 15 -17 15h-20v-46h8v15h12zM428 276c14 0 24 11 24 24c0 12 -10 24 -24 24s-24 -12 -24 -24c0 -13 10 -24 24 -24zM372 301l-13 22
h-9l18 -29v-17h8v17l18 29h-9zM195 323v-46h34v7h-26v13h23v7h-23v12h26v7h-34zM134 323v-46h8v32l25 -32h7v46h-8v-32l-25 32h-7zM243 323l14 -47h8l11 34h1l11 -34h8l14 47h-8l-10 -35h-1l-11 35h-7l-11 -35h-1l-10 35h-8zM329 479c-7 13 -12 22 -12 32s6 19 14 19
s13 -9 13 -19c0 -12 -5 -21 -15 -32zM344 423c-5 -13 -12 -21 -20 -21c-9 0 -16 10 -16 25c0 13 7 26 16 35zM489 299h-11v17h11c6 0 10 -3 10 -8s-4 -9 -10 -9zM428 283c-10 0 -16 8 -16 17c0 8 6 17 16 17s16 -9 16 -17c0 -9 -6 -17 -16 -17z" />
    <glyph glyph-name="A.sc" horiz-adv-x="577" 
d="M166 499h245v-33h-86l167 -433h74v-33h-204v33h91l-56 145h-220l-55 -145h92v-33h-204v33h75l166 433h-85v33zM287 469l-98 -258h196z" />
    <glyph glyph-name="B.sc" horiz-adv-x="514" 
d="M170 33h117c85 0 134 41 134 103c0 69 -54 103 -144 103h-107v-206zM170 271h108c88 0 129 42 129 100c0 55 -42 95 -128 95h-109v-195zM285 0h-247v33h95v433h-95v33h242c118 0 165 -59 165 -125c0 -61 -40 -105 -105 -118c72 -13 119 -53 119 -121
c0 -81 -63 -135 -174 -135z" />
    <glyph glyph-name="C.sc" horiz-adv-x="547" 
d="M469 96l21 -26c-48 -49 -116 -78 -188 -78c-149 0 -253 112 -253 258c0 142 106 258 254 258c104 0 184 -65 184 -123c0 -27 -14 -44 -35 -44c-18 0 -31 12 -31 31c0 15 9 26 22 31c-11 32 -65 71 -140 71c-124 0 -215 -98 -215 -224c0 -129 90 -224 214 -224
c67 0 122 26 167 70z" />
    <glyph glyph-name="D.sc" horiz-adv-x="592" 
d="M170 33h90c159 0 245 91 245 222s-99 211 -249 211h-86v-433zM256 0h-218v33h95v433h-95v33h218c175 0 287 -95 287 -244c0 -151 -105 -255 -287 -255z" />
    <glyph glyph-name="E.sc" horiz-adv-x="494" 
d="M434 0h-396v33h95v433h-95v33h396v-131h-35v98h-229v-196h182v-34h-182v-203h229v97h35v-130z" />
    <glyph glyph-name="F.sc" horiz-adv-x="473" 
d="M270 0h-232v33h95v433h-95v33h394v-131h-35v98h-227v-202h176v-33h-176v-198h100v-33z" />
    <glyph glyph-name="G.sc" horiz-adv-x="580" 
d="M306 474c-129 0 -218 -101 -218 -227c0 -130 94 -220 211 -220c68 0 123 22 169 59v119h-149v32h186v-237h-36v52c-45 -37 -100 -59 -173 -59c-131 0 -247 99 -247 254c0 152 117 261 258 261c116 0 191 -65 191 -116c0 -26 -15 -43 -35 -43c-18 0 -31 12 -31 30
c0 15 9 25 21 30c-16 30 -71 65 -147 65z" />
    <glyph glyph-name="H.sc" horiz-adv-x="655" 
d="M38 0v33h94v433h-94v33h228v-33h-96v-197h314v197h-96v33h228v-33h-94v-433h94v-33h-228v33h96v202h-314v-202h96v-33h-228z" />
    <glyph glyph-name="I.sc" horiz-adv-x="308" 
d="M270 0h-232v33h97v433h-97v33h232v-33h-97v-433h97v-33z" />
    <glyph glyph-name="J.sc" horiz-adv-x="433" 
d="M173 27c31 0 58 10 78 31c23 25 36 65 36 121v287h-98v33h222v-33h-87v-288c0 -63 -14 -113 -46 -145c-27 -27 -62 -41 -106 -41c-78 0 -142 54 -142 124c0 29 15 48 37 48c16 0 30 -12 30 -31c0 -17 -10 -29 -27 -33c3 -33 41 -73 103 -73z" />
    <glyph glyph-name="K.sc" horiz-adv-x="561" 
d="M471 466l-185 -187l174 -246h91v-33h-113l-178 253l-89 -89v-131h95v-33h-228v33h96v433h-96v33h224v-33h-91v-257l256 257h-91v33h206v-33h-71z" />
    <glyph glyph-name="L.sc" horiz-adv-x="462" 
d="M390 33v101h36v-134h-388v33h95v433h-95v33h231v-33h-99v-433h220z" />
    <glyph glyph-name="M.sc" horiz-adv-x="721" 
d="M541 499h130v-33h-91l20 -433h88v-33h-220v33h94l-15 403l-179 -366h-15l-180 366l-15 -403h95v-33h-220v33h90l18 433h-91v33h130l181 -370z" />
    <glyph glyph-name="N.sc" horiz-adv-x="644" 
d="M166 499l321 -424v391h-97v33h227v-33h-95v-469h-22l-332 440v-404h97v-33h-227v33h95v433h-95v33h128z" />
    <glyph glyph-name="O.sc" horiz-adv-x="605" 
d="M302 508c150 0 253 -114 253 -258c0 -145 -103 -258 -253 -258s-253 113 -253 258c0 144 103 258 253 258zM302 26c126 0 215 95 215 224c0 128 -89 224 -215 224c-125 0 -214 -95 -214 -224s89 -224 214 -224z" />
    <glyph glyph-name="P.sc" horiz-adv-x="476" 
d="M38 499h218c106 0 182 -60 182 -153c0 -97 -68 -157 -183 -157c-32 0 -62 0 -85 1v-157h97v-33h-229v33h95v433h-95v33zM258 221c91 0 142 50 142 125c0 73 -60 120 -144 120h-86v-243c24 -1 53 -2 88 -2z" />
    <glyph glyph-name="Q.sc" horiz-adv-x="605" 
d="M510 -104c-66 0 -113 46 -159 72c-25 14 -50 20 -82 26c-55 9 -102 30 -138 62c-51 44 -82 115 -82 194c0 144 103 258 253 258s253 -114 253 -258c0 -129 -84 -231 -207 -248c18 -5 31 -11 51 -23c41 -25 70 -47 110 -47c22 0 39 5 61 19l17 -32
c-24 -17 -50 -23 -77 -23zM302 26c125 0 215 98 215 224c0 128 -89 224 -215 224c-125 0 -214 -95 -214 -224c0 -69 26 -129 70 -169c36 -34 86 -55 144 -55z" />
    <glyph glyph-name="Q.sc_alt" horiz-adv-x="605" 
d="M555 250c0 -100 -49 -184 -128 -227l55 -88l-29 -18l-57 91c-29 -10 -60 -16 -94 -16c-150 0 -253 113 -253 258c0 144 103 258 253 258s253 -114 253 -258zM517 250c0 128 -89 224 -215 224c-125 0 -214 -95 -214 -224s89 -224 214 -224c27 0 52 4 75 12l-62 99l29 20
l65 -105c66 37 108 110 108 198z" />
    <glyph glyph-name="R.sc" horiz-adv-x="521" 
d="M257 466h-87v-221c25 -1 55 -2 82 -2c88 0 150 41 150 115c0 67 -57 108 -145 108zM170 211v-178h97v-33h-229v33h95v433h-95v33h221c111 0 179 -55 179 -141c0 -71 -48 -121 -118 -138l116 -187h80v-33h-106l-128 211c-13 -1 -26 -1 -35 -1c-23 0 -55 0 -77 1z" />
    <glyph glyph-name="S.sc" horiz-adv-x="443" 
d="M319 406c0 12 6 24 14 30c-10 21 -56 40 -104 40c-74 0 -124 -40 -124 -93c0 -62 66 -86 130 -111c79 -29 158 -60 158 -144s-75 -136 -174 -136c-103 0 -169 52 -169 96c0 25 13 40 32 40s31 -12 31 -29c0 -13 -6 -24 -15 -31c15 -20 57 -43 122 -43
c83 0 135 40 135 101s-66 87 -128 110c-81 30 -160 59 -160 143c0 75 65 129 163 129c85 0 152 -43 152 -94c0 -23 -14 -38 -31 -38c-20 0 -32 13 -32 30z" />
    <glyph glyph-name="T.sc" horiz-adv-x="510" 
d="M139 0v33h97v433h-158v-98h-36v131h427v-131h-37v98h-158v-433h97v-33h-232z" />
    <glyph glyph-name="U.sc" horiz-adv-x="604" 
d="M153 466v-286c0 -99 56 -154 149 -154s149 55 149 153v287h-95v33h223v-33h-90v-286c0 -122 -70 -188 -188 -188s-186 65 -186 187v287h-90v33h223v-33h-95z" />
    <glyph glyph-name="V.sc" horiz-adv-x="559" 
d="M268 -9l-188 475h-73v33h205v-33h-92l161 -414l160 414h-92v33h203v-33h-73l-188 -475h-23z" />
    <glyph glyph-name="W.sc" horiz-adv-x="782" 
d="M234 -12l-146 478h-81v33h213v-33h-92l122 -406l134 370h17l135 -370l122 406h-93v33h210v-33h-80l-146 -478h-23l-135 374l-135 -374h-22z" />
    <glyph glyph-name="X.sc" horiz-adv-x="554" 
d="M535 33v-33h-196v33h78l-143 200l-145 -200h85v-33h-199v33h73l164 221l-154 212h-72v33h200v-33h-84l133 -188l135 188h-83v33h197v-33h-74l-153 -210l163 -223h75z" />
    <glyph glyph-name="Y.sc" 
d="M525 499v-33h-77l-165 -277v-156h97v-33h-230v33h96v156l-164 277h-78v33h208v-33h-88l142 -245l143 245h-90v33h206z" />
    <glyph glyph-name="Z.sc" horiz-adv-x="472" 
d="M44 0v20l332 447h-284v-96h-36v128h374v-20l-332 -446h298v95h37v-128h-389z" />
    <glyph glyph-name="Aacute.sc" horiz-adv-x="577" 
d="M166 499h245v-33h-86l167 -433h74v-33h-204v33h91l-56 145h-220l-55 -145h92v-33h-204v33h75l166 433h-85v33zM287 469l-98 -258h196zM256 569l-9 15l124 99c11 9 21 15 31 15c14 0 27 -12 27 -29c0 -11 -12 -23 -29 -31z" />
    <glyph glyph-name="Abreve.sc" horiz-adv-x="577" 
d="M166 499h245v-33h-86l167 -433h74v-33h-204v33h91l-56 145h-220l-55 -145h92v-33h-204v33h75l166 433h-85v33zM287 469l-98 -258h196zM292 569c-65 0 -116 47 -138 107l29 14c20 -49 60 -78 109 -78c51 0 89 31 109 78l28 -14c-22 -60 -73 -107 -137 -107z" />
    <glyph glyph-name="Acircumflex.sc" horiz-adv-x="577" 
d="M166 499h245v-33h-86l167 -433h74v-33h-204v33h91l-56 145h-220l-55 -145h92v-33h-204v33h75l166 433h-85v33zM287 469l-98 -258h196zM173 563l-17 19l136 127l135 -127l-17 -19l-118 89z" />
    <glyph glyph-name="Adieresis.sc" horiz-adv-x="577" 
d="M166 499h245v-33h-86l167 -433h74v-33h-204v33h91l-56 145h-220l-55 -145h92v-33h-204v33h75l166 433h-85v33zM287 469l-98 -258h196zM223 585c-21 0 -37 18 -37 38c0 22 16 39 37 39c22 0 38 -17 38 -39c0 -20 -16 -38 -38 -38zM360 585c-22 0 -37 18 -37 38
c0 22 15 39 37 39c21 0 37 -17 37 -39c0 -20 -16 -38 -37 -38z" />
    <glyph glyph-name="AE.sc" horiz-adv-x="686" 
d="M230 0v33h95v148h-160l-79 -148h82v-33h-188v33h66l236 433h-81v33h425v-131h-35v98h-229v-196h181v-34h-181v-203h229v97h35v-130h-396zM319 466l-135 -251h141v251h-6z" />
    </font>
</defs>
</svg>
